# MagicaVoxel @ ephtracy

# material
mtllib arm.mtl
usemtl palette

# normals
vn -1 0 0
vn 1 0 0
vn 0 0 1
vn 0 0 -1
vn 0 -1 0
vn 0 1 0

# texcoords
vt 0.298828 0.5
vt 0.357422 0.5
vt 0.361328 0.5
vt 0.513672 0.5

# verts
v -2.5 0 3
v -2.5 0 -0
v -2.5 0 -1
v -2.5 1 2
v -2.5 1 -0
v -2.5 2 2
v -2.5 2 -1
v -2.5 3 3
v -2.5 3 2
v -2.5 3 -1
v -2.5 7 2
v -2.5 7 1
v -2.5 8 1
v -2.5 8 -1
v -1.5 3 3
v -1.5 3 2
v -1.5 3 -1
v -1.5 3 -2
v -1.5 6 -2
v -1.5 6 -3
v -1.5 7 3
v -1.5 7 2
v -1.5 7 1
v -1.5 8 2
v -1.5 8 1
v -1.5 8 -1
v -1.5 9 1
v -1.5 9 -0
v -1.5 10 -0
v -1.5 10 -3
v 1.5 3 3
v 1.5 3 2
v 1.5 3 -1
v 1.5 3 -2
v 1.5 6 -2
v 1.5 6 -3
v 1.5 7 3
v 1.5 7 2
v 1.5 7 1
v 1.5 8 2
v 1.5 8 1
v 1.5 8 -1
v 1.5 9 1
v 1.5 9 -0
v 1.5 10 -0
v 1.5 10 -3
v 2.5 0 3
v 2.5 0 -0
v 2.5 0 -1
v 2.5 1 2
v 2.5 1 -0
v 2.5 2 2
v 2.5 2 -1
v 2.5 3 3
v 2.5 3 2
v 2.5 3 -1
v 2.5 7 2
v 2.5 7 1
v 2.5 8 1
v 2.5 8 -1
v -2.5 0 3
v -2.5 3 3
v -1.5 0 3
v -1.5 2 3
v -1.5 3 3
v -1.5 7 3
v -0.5 0 3
v -0.5 2 3
v 0.5 0 3
v 0.5 2 3
v 1.5 0 3
v 1.5 2 3
v 1.5 3 3
v 1.5 7 3
v 2.5 0 3
v 2.5 3 3
v -2.5 3 2
v -2.5 7 2
v -1.5 3 2
v -1.5 7 2
v -1.5 8 2
v 1.5 3 2
v 1.5 7 2
v 1.5 8 2
v 2.5 3 2
v 2.5 7 2
v -2.5 7 1
v -2.5 8 1
v -1.5 7 1
v -1.5 8 1
v -1.5 9 1
v 1.5 7 1
v 1.5 8 1
v 1.5 9 1
v 2.5 7 1
v 2.5 8 1
v -1.5 9 -0
v -1.5 10 -0
v 1.5 9 -0
v 1.5 10 -0
v -2.5 0 -1
v -2.5 2 -1
v -2.5 3 -1
v -2.5 8 -1
v -1.5 1 -1
v -1.5 2 -1
v -1.5 3 -1
v -1.5 8 -1
v 1.5 1 -1
v 1.5 2 -1
v 1.5 3 -1
v 1.5 8 -1
v 2.5 0 -1
v 2.5 2 -1
v 2.5 3 -1
v 2.5 8 -1
v -1.5 3 -2
v -1.5 6 -2
v 1.5 3 -2
v 1.5 6 -2
v -1.5 6 -3
v -1.5 10 -3
v 1.5 6 -3
v 1.5 10 -3
v -2.5 0 3
v -1.5 0 3
v -0.5 0 3
v 0.5 0 3
v 1.5 0 3
v 2.5 0 3
v -1.5 0 2
v -0.5 0 2
v 0.5 0 2
v 1.5 0 2
v -1.5 0 1
v -0.5 0 1
v 0.5 0 1
v 1.5 0 1
v -2.5 0 -0
v 2.5 0 -0
v -2.5 0 -1
v 2.5 0 -1
v -1.5 3 -1
v 1.5 3 -1
v -1.5 3 -2
v 1.5 3 -2
v -1.5 6 -2
v 1.5 6 -2
v -1.5 6 -3
v 1.5 6 -3
v -2.5 3 3
v -1.5 3 3
v 1.5 3 3
v 2.5 3 3
v -2.5 3 2
v -1.5 3 2
v 1.5 3 2
v 2.5 3 2
v -1.5 7 3
v 1.5 7 3
v -2.5 7 2
v -1.5 7 2
v 1.5 7 2
v 2.5 7 2
v -2.5 7 1
v -1.5 7 1
v 1.5 7 1
v 2.5 7 1
v -1.5 8 2
v 1.5 8 2
v -2.5 8 1
v -1.5 8 1
v 1.5 8 1
v 2.5 8 1
v -2.5 8 -1
v -1.5 8 -1
v 1.5 8 -1
v 2.5 8 -1
v -1.5 9 1
v 1.5 9 1
v -1.5 9 -0
v 1.5 9 -0
v -1.5 10 -0
v 1.5 10 -0
v -1.5 10 -3
v 1.5 10 -3

# faces
f 4/3/1 2/3/1 1/3/1
f 5/2/1 3/2/1 2/2/1
f 5/3/1 2/3/1 4/3/1
f 6/3/1 4/3/1 1/3/1
f 6/2/1 5/2/1 4/2/1
f 7/2/1 3/2/1 5/2/1
f 7/2/1 5/2/1 6/2/1
f 8/3/1 6/3/1 1/3/1
f 8/3/1 7/3/1 6/3/1
f 9/3/1 7/3/1 8/3/1
f 10/3/1 7/3/1 9/3/1
f 11/4/1 10/4/1 9/4/1
f 12/4/1 10/4/1 11/4/1
f 13/4/1 10/4/1 12/4/1
f 14/4/1 10/4/1 13/4/1
f 19/4/1 18/4/1 17/4/1
f 21/4/1 16/4/1 15/4/1
f 22/4/1 16/4/1 21/4/1
f 24/4/1 23/4/1 22/4/1
f 25/4/1 23/4/1 24/4/1
f 26/4/1 20/4/1 19/4/1
f 26/4/1 19/4/1 17/4/1
f 27/4/1 26/4/1 25/4/1
f 28/4/1 26/4/1 27/4/1
f 29/4/1 26/4/1 28/4/1
f 30/4/1 20/4/1 26/4/1
f 30/4/1 26/4/1 29/4/1
f 33/4/2 34/4/2 35/4/2
f 31/4/2 32/4/2 37/4/2
f 37/4/2 32/4/2 38/4/2
f 38/4/2 39/4/2 40/4/2
f 40/4/2 39/4/2 41/4/2
f 35/4/2 36/4/2 42/4/2
f 33/4/2 35/4/2 42/4/2
f 41/4/2 42/4/2 43/4/2
f 43/4/2 42/4/2 44/4/2
f 44/4/2 42/4/2 45/4/2
f 42/4/2 36/4/2 46/4/2
f 45/4/2 42/4/2 46/4/2
f 47/3/2 48/3/2 50/3/2
f 48/2/2 49/2/2 51/2/2
f 50/3/2 48/3/2 51/3/2
f 47/3/2 50/3/2 52/3/2
f 50/2/2 51/2/2 52/2/2
f 51/2/2 49/2/2 53/2/2
f 52/2/2 51/2/2 53/2/2
f 47/3/2 52/3/2 54/3/2
f 52/3/2 53/3/2 54/3/2
f 54/3/2 53/3/2 55/3/2
f 55/3/2 53/3/2 56/3/2
f 55/4/2 56/4/2 57/4/2
f 57/4/2 56/4/2 58/4/2
f 58/4/2 56/4/2 59/4/2
f 59/4/2 56/4/2 60/4/2
f 63/3/3 62/3/3 61/3/3
f 64/3/3 62/3/3 63/3/3
f 65/3/3 62/3/3 64/3/3
f 67/2/3 64/2/3 63/2/3
f 68/3/3 65/3/3 64/3/3
f 68/2/3 64/2/3 67/2/3
f 69/3/3 68/3/3 67/3/3
f 70/3/3 65/3/3 68/3/3
f 70/3/3 68/3/3 69/3/3
f 71/2/3 70/2/3 69/2/3
f 72/3/3 65/3/3 70/3/3
f 72/2/3 70/2/3 71/2/3
f 73/4/3 66/4/3 65/4/3
f 73/3/3 65/3/3 72/3/3
f 74/4/3 66/4/3 73/4/3
f 75/3/3 72/3/3 71/3/3
f 75/3/3 73/3/3 72/3/3
f 76/3/3 73/3/3 75/3/3
f 79/4/3 78/4/3 77/4/3
f 80/4/3 78/4/3 79/4/3
f 83/4/3 81/4/3 80/4/3
f 84/4/3 81/4/3 83/4/3
f 85/4/3 83/4/3 82/4/3
f 86/4/3 83/4/3 85/4/3
f 89/4/3 88/4/3 87/4/3
f 90/4/3 88/4/3 89/4/3
f 93/4/3 91/4/3 90/4/3
f 94/4/3 91/4/3 93/4/3
f 95/4/3 93/4/3 92/4/3
f 96/4/3 93/4/3 95/4/3
f 99/4/3 98/4/3 97/4/3
f 100/4/3 98/4/3 99/4/3
f 101/2/4 102/2/4 105/2/4
f 102/3/4 103/3/4 106/3/4
f 105/2/4 102/2/4 106/2/4
f 103/4/4 104/4/4 107/4/4
f 106/3/4 103/3/4 107/3/4
f 107/4/4 104/4/4 108/4/4
f 105/3/4 106/3/4 109/3/4
f 101/2/4 105/2/4 109/2/4
f 106/3/4 107/3/4 109/3/4
f 109/3/4 107/3/4 110/3/4
f 110/3/4 107/3/4 111/3/4
f 101/2/4 109/2/4 113/2/4
f 109/2/4 110/2/4 113/2/4
f 110/3/4 111/3/4 114/3/4
f 113/2/4 110/2/4 114/2/4
f 111/4/4 112/4/4 115/4/4
f 114/3/4 111/3/4 115/3/4
f 115/4/4 112/4/4 116/4/4
f 117/4/4 118/4/4 119/4/4
f 119/4/4 118/4/4 120/4/4
f 121/4/4 122/4/4 123/4/4
f 123/4/4 122/4/4 124/4/4
f 131/3/5 126/3/5 125/3/5
f 131/2/5 127/2/5 126/2/5
f 132/3/5 128/3/5 127/3/5
f 132/2/5 127/2/5 131/2/5
f 133/2/5 129/2/5 128/2/5
f 133/3/5 128/3/5 132/3/5
f 134/3/5 130/3/5 129/3/5
f 134/2/5 129/2/5 133/2/5
f 135/1/5 132/1/5 131/1/5
f 135/3/5 131/3/5 125/3/5
f 136/3/5 133/3/5 132/3/5
f 136/1/5 132/1/5 135/1/5
f 137/1/5 134/1/5 133/1/5
f 137/3/5 133/3/5 136/3/5
f 138/3/5 130/3/5 134/3/5
f 138/1/5 134/1/5 137/1/5
f 139/3/5 135/3/5 125/3/5
f 139/3/5 137/3/5 136/3/5
f 139/3/5 138/3/5 137/3/5
f 139/3/5 136/3/5 135/3/5
f 140/3/5 130/3/5 138/3/5
f 140/3/5 138/3/5 139/3/5
f 141/2/5 140/2/5 139/2/5
f 142/2/5 140/2/5 141/2/5
f 145/4/5 144/4/5 143/4/5
f 146/4/5 144/4/5 145/4/5
f 149/4/5 148/4/5 147/4/5
f 150/4/5 148/4/5 149/4/5
f 151/3/6 152/3/6 155/3/6
f 155/3/6 152/3/6 156/3/6
f 153/3/6 154/3/6 157/3/6
f 157/3/6 154/3/6 158/3/6
f 159/4/6 160/4/6 162/4/6
f 162/4/6 160/4/6 163/4/6
f 161/4/6 162/4/6 165/4/6
f 165/4/6 162/4/6 166/4/6
f 163/4/6 164/4/6 167/4/6
f 167/4/6 164/4/6 168/4/6
f 169/4/6 170/4/6 172/4/6
f 172/4/6 170/4/6 173/4/6
f 171/4/6 172/4/6 175/4/6
f 175/4/6 172/4/6 176/4/6
f 173/4/6 174/4/6 177/4/6
f 177/4/6 174/4/6 178/4/6
f 179/4/6 180/4/6 181/4/6
f 181/4/6 180/4/6 182/4/6
f 183/4/6 184/4/6 185/4/6
f 185/4/6 184/4/6 186/4/6
