# MagicaVoxel @ ephtracy

# material
mtllib body2.mtl
usemtl palette

# normals
vn -1 0 0
vn 1 0 0
vn 0 0 1
vn 0 0 -1
vn 0 -1 0
vn 0 1 0

# texcoords
vt 0.310547 0.5
vt 0.333984 0.5
vt 0.341797 0.5
vt 0.373047 0.5
vt 0.384766 0.5
vt 0.388672 0.5
vt 0.416016 0.5
vt 0.423828 0.5
vt 0.427734 0.5
vt 0.431641 0.5
vt 0.447266 0.5
vt 0.513672 0.5
vt 0.525391 0.5
vt 0.541016 0.5
vt 0.591797 0.5
vt 0.763672 0.5
vt 0.791016 0.5
vt 0.919922 0.5
vt 0.931641 0.5
vt 0.962891 0.5
vt 0.986328 0.5

# verts
v -6 10 1
v -6 10 -0
v -6 11 1
v -6 11 -0
v -5 9 1
v -5 9 -0
v -5 10 1
v -5 10 -0
v -4 1 3
v -4 1 -2
v -4 2 3
v -4 2 -2
v -4 3 2
v -4 3 -1
v -4 4 3
v -4 4 2
v -4 4 -1
v -4 4 -2
v -4 6 3
v -4 6 -2
v -4 7 3
v -4 7 -2
v -4 8 4
v -4 8 3
v -4 8 -2
v -4 8 -3
v -4 9 4
v -4 9 3
v -4 9 1
v -4 9 -0
v -4 9 -2
v -4 9 -3
v -4 10 1
v -4 10 -0
v -4 10 -2
v -4 11 4
v -4 11 1
v -4 11 -0
v -4 13 4
v -4 13 -2
v -4 13 -3
v -4 14 4
v -4 14 -3
v -3 0 3
v -3 0 -2
v -3 1 4
v -3 1 3
v -3 1 -2
v -3 1 -3
v -3 2 4
v -3 2 3
v -3 2 -2
v -3 2 -3
v -3 3 2
v -3 3 -1
v -3 4 3
v -3 4 2
v -3 4 -1
v -3 4 -2
v -3 5 4
v -3 5 3
v -3 5 -2
v -3 5 -3
v -3 6 4
v -3 6 3
v -3 6 2
v -3 6 -1
v -3 6 -2
v -3 6 -3
v -3 7 4
v -3 7 3
v -3 7 2
v -3 7 -1
v -3 7 -2
v -3 7 -3
v -3 8 4
v -3 8 3
v -3 8 -2
v -3 8 -3
v -3 14 4
v -3 14 -3
v -3 15 4
v -3 15 -3
v -2 0 4
v -2 0 3
v -2 0 -2
v -2 0 -3
v -2 1 4
v -2 1 3
v -2 1 -2
v -2 1 -3
v -2 2 4
v -2 2 3
v -2 2 -2
v -2 2 -3
v -2 3 -2
v -2 3 -3
v -2 4 -2
v -2 4 -3
v -2 5 4
v -2 5 3
v -2 5 -2
v -2 5 -3
v -2 6 4
v -2 6 3
v -2 7 4
v -2 7 3
v 0 13 -3
v 0 13 -4
v 0 14 -3
v 0 14 -4
v 1 5 -2
v 1 5 -3
v 1 6 -2
v 1 6 -3
v 2 6 -2
v 2 6 -3
v 2 7 -2
v 2 7 -3
v -2 6 -2
v -2 6 -3
v -2 7 -2
v -2 7 -3
v -1 5 -2
v -1 5 -3
v -1 6 -2
v -1 6 -3
v 2 0 4
v 2 0 3
v 2 0 -2
v 2 0 -3
v 2 1 4
v 2 1 3
v 2 1 -2
v 2 1 -3
v 2 2 4
v 2 2 3
v 2 2 -2
v 2 2 -3
v 2 3 -2
v 2 3 -3
v 2 4 -2
v 2 4 -3
v 2 5 4
v 2 5 3
v 2 5 -2
v 2 5 -3
v 2 6 4
v 2 6 3
v 2 7 4
v 2 7 3
v 3 0 3
v 3 0 -2
v 3 1 4
v 3 1 3
v 3 1 -2
v 3 1 -3
v 3 2 4
v 3 2 3
v 3 2 -2
v 3 2 -3
v 3 3 2
v 3 3 -1
v 3 4 3
v 3 4 2
v 3 4 -1
v 3 4 -2
v 3 5 4
v 3 5 3
v 3 5 -2
v 3 5 -3
v 3 6 4
v 3 6 3
v 3 6 -2
v 3 6 -3
v 3 7 4
v 3 7 3
v 3 7 -2
v 3 7 -3
v 3 8 4
v 3 8 3
v 3 8 -2
v 3 8 -3
v 3 13 -3
v 3 13 -4
v 3 14 4
v 3 14 2
v 3 14 -2
v 3 14 -3
v 3 14 -4
v 3 15 4
v 3 15 2
v 3 15 -2
v 3 15 -3
v 4 1 3
v 4 1 -2
v 4 2 3
v 4 2 -2
v 4 3 2
v 4 3 -1
v 4 4 3
v 4 4 2
v 4 4 -1
v 4 4 -2
v 4 6 3
v 4 6 -2
v 4 7 3
v 4 7 -2
v 4 8 4
v 4 8 3
v 4 8 -2
v 4 8 -3
v 4 9 4
v 4 9 3
v 4 9 1
v 4 9 -0
v 4 9 -2
v 4 9 -3
v 4 10 1
v 4 10 -0
v 4 10 -2
v 4 11 4
v 4 11 1
v 4 11 -0
v 4 13 4
v 4 13 -2
v 4 13 -3
v 4 14 4
v 4 14 -2
v 4 14 -3
v 5 9 1
v 5 9 -0
v 5 10 1
v 5 10 -0
v 6 10 1
v 6 10 -0
v 6 11 1
v 6 11 -0
v -4 8 4
v -4 9 4
v -4 11 4
v -4 13 4
v -4 14 4
v -3 1 4
v -3 2 4
v -3 5 4
v -3 6 4
v -3 7 4
v -3 8 4
v -3 9 4
v -3 13 4
v -3 14 4
v -3 15 4
v -2 0 4
v -2 1 4
v -2 2 4
v -2 5 4
v -2 6 4
v -2 7 4
v -2 10 4
v -2 11 4
v -2 12 4
v -2 13 4
v -2 14 4
v 1 14 4
v 1 15 4
v 2 0 4
v 2 1 4
v 2 2 4
v 2 5 4
v 2 6 4
v 2 7 4
v 2 10 4
v 2 11 4
v 2 12 4
v 2 13 4
v 2 14 4
v 3 1 4
v 3 2 4
v 3 5 4
v 3 6 4
v 3 7 4
v 3 8 4
v 3 9 4
v 3 13 4
v 3 14 4
v 3 15 4
v 4 8 4
v 4 9 4
v 4 11 4
v 4 13 4
v 4 14 4
v -4 1 3
v -4 2 3
v -4 4 3
v -4 6 3
v -4 7 3
v -4 8 3
v -3 0 3
v -3 1 3
v -3 2 3
v -3 4 3
v -3 5 3
v -3 6 3
v -3 7 3
v -3 8 3
v -2 0 3
v -2 1 3
v -2 2 3
v -2 5 3
v -2 6 3
v -2 7 3
v 2 0 3
v 2 1 3
v 2 2 3
v 2 5 3
v 2 6 3
v 2 7 3
v 3 0 3
v 3 1 3
v 3 2 3
v 3 4 3
v 3 5 3
v 3 6 3
v 3 7 3
v 3 8 3
v 4 1 3
v 4 2 3
v 4 4 3
v 4 6 3
v 4 7 3
v 4 8 3
v -4 3 2
v -4 4 2
v -3 3 2
v -3 4 2
v 3 3 2
v 3 4 2
v 4 3 2
v 4 4 2
v -6 10 1
v -6 11 1
v -5 9 1
v -5 10 1
v -5 11 1
v -4 9 1
v -4 10 1
v -4 11 1
v 4 9 1
v 4 10 1
v 4 11 1
v 5 9 1
v 5 10 1
v 5 11 1
v 6 10 1
v 6 11 1
v -6 10 -0
v -6 11 -0
v -5 9 -0
v -5 10 -0
v -5 11 -0
v -4 9 -0
v -4 10 -0
v -4 11 -0
v 4 9 -0
v 4 10 -0
v 4 11 -0
v 5 9 -0
v 5 10 -0
v 5 11 -0
v 6 10 -0
v 6 11 -0
v -4 3 -1
v -4 4 -1
v -3 3 -1
v -3 4 -1
v 3 3 -1
v 3 4 -1
v 4 3 -1
v 4 4 -1
v -4 1 -2
v -4 2 -2
v -4 4 -2
v -4 6 -2
v -4 7 -2
v -4 8 -2
v -3 0 -2
v -3 1 -2
v -3 2 -2
v -3 4 -2
v -3 5 -2
v -3 6 -2
v -3 7 -2
v -3 8 -2
v -2 0 -2
v -2 1 -2
v -2 2 -2
v -2 3 -2
v -2 4 -2
v -2 5 -2
v -2 6 -2
v -2 7 -2
v -1 5 -2
v -1 6 -2
v 1 5 -2
v 1 6 -2
v 2 0 -2
v 2 1 -2
v 2 2 -2
v 2 3 -2
v 2 4 -2
v 2 5 -2
v 2 6 -2
v 2 7 -2
v 3 0 -2
v 3 1 -2
v 3 2 -2
v 3 4 -2
v 3 5 -2
v 3 6 -2
v 3 7 -2
v 3 8 -2
v 4 1 -2
v 4 2 -2
v 4 4 -2
v 4 6 -2
v 4 7 -2
v 4 8 -2
v -4 8 -3
v -4 9 -3
v -4 13 -3
v -4 14 -3
v -3 1 -3
v -3 2 -3
v -3 5 -3
v -3 6 -3
v -3 7 -3
v -3 8 -3
v -3 9 -3
v -3 10 -3
v -3 11 -3
v -3 12 -3
v -3 13 -3
v -3 14 -3
v -3 15 -3
v -2 0 -3
v -2 1 -3
v -2 2 -3
v -2 3 -3
v -2 4 -3
v -2 5 -3
v -2 6 -3
v -2 7 -3
v -2 8 -3
v -2 10 -3
v -2 11 -3
v -2 12 -3
v -2 13 -3
v -2 14 -3
v -1 1 -3
v -1 2 -3
v -1 3 -3
v -1 4 -3
v -1 5 -3
v -1 6 -3
v -1 8 -3
v -1 9 -3
v -1 10 -3
v -1 11 -3
v -1 12 -3
v -1 14 -3
v -1 15 -3
v 0 9 -3
v 0 10 -3
v 0 13 -3
v 0 14 -3
v 1 1 -3
v 1 2 -3
v 1 3 -3
v 1 4 -3
v 1 5 -3
v 1 6 -3
v 1 8 -3
v 1 9 -3
v 1 10 -3
v 1 11 -3
v 1 12 -3
v 1 13 -3
v 1 14 -3
v 2 0 -3
v 2 1 -3
v 2 2 -3
v 2 3 -3
v 2 4 -3
v 2 5 -3
v 2 6 -3
v 2 7 -3
v 2 8 -3
v 2 10 -3
v 2 11 -3
v 2 12 -3
v 3 1 -3
v 3 2 -3
v 3 5 -3
v 3 6 -3
v 3 7 -3
v 3 8 -3
v 3 9 -3
v 3 10 -3
v 3 11 -3
v 3 12 -3
v 3 13 -3
v 3 14 -3
v 3 15 -3
v 4 8 -3
v 4 9 -3
v 4 13 -3
v 4 14 -3
v 0 13 -4
v 0 14 -4
v 1 13 -4
v 1 14 -4
v 3 13 -4
v 3 14 -4
v -2 0 4
v 2 0 4
v -3 0 3
v -2 0 3
v 2 0 3
v 3 0 3
v -3 0 -2
v -2 0 -2
v 2 0 -2
v 3 0 -2
v -2 0 -3
v 2 0 -3
v -3 1 4
v -2 1 4
v 2 1 4
v 3 1 4
v -4 1 3
v -3 1 3
v -2 1 3
v 2 1 3
v 3 1 3
v 4 1 3
v -4 1 -2
v -3 1 -2
v -2 1 -2
v 2 1 -2
v 3 1 -2
v 4 1 -2
v -3 1 -3
v -2 1 -3
v 2 1 -3
v 3 1 -3
v -4 3 2
v -3 3 2
v 3 3 2
v 4 3 2
v -4 3 -1
v -3 3 -1
v 3 3 -1
v 4 3 -1
v -4 4 3
v -3 4 3
v 3 4 3
v 4 4 3
v -4 4 2
v -3 4 2
v 3 4 2
v 4 4 2
v -4 4 -1
v -3 4 -1
v 3 4 -1
v 4 4 -1
v -4 4 -2
v -3 4 -2
v 3 4 -2
v 4 4 -2
v -3 5 4
v -2 5 4
v 2 5 4
v 3 5 4
v -3 5 3
v -2 5 3
v 2 5 3
v 3 5 3
v -3 5 -2
v -2 5 -2
v 2 5 -2
v 3 5 -2
v -3 5 -3
v -2 5 -3
v 2 5 -3
v 3 5 -3
v -3 7 4
v -2 7 4
v 2 7 4
v 3 7 4
v -4 7 3
v -3 7 3
v -2 7 3
v 2 7 3
v 3 7 3
v 4 7 3
v -3 7 2
v -3 7 -1
v -4 7 -2
v -3 7 -2
v -2 7 -2
v 2 7 -2
v 3 7 -2
v 4 7 -2
v -2 7 -3
v 2 7 -3
v -4 8 4
v -3 8 4
v 3 8 4
v 4 8 4
v -4 8 3
v -3 8 3
v 3 8 3
v 4 8 3
v -4 8 -2
v -3 8 -2
v 3 8 -2
v 4 8 -2
v -4 8 -3
v -3 8 -3
v 3 8 -3
v 4 8 -3
v -5 9 1
v -4 9 1
v 4 9 1
v 5 9 1
v -5 9 -0
v -4 9 -0
v 4 9 -0
v 5 9 -0
v -6 10 1
v -5 10 1
v 5 10 1
v 6 10 1
v -6 10 -0
v -5 10 -0
v 5 10 -0
v 6 10 -0
v 0 13 -3
v 1 13 -3
v 3 13 -3
v 0 13 -4
v 1 13 -4
v 3 13 -4
v -3 2 4
v -2 2 4
v 2 2 4
v 3 2 4
v -4 2 3
v -3 2 3
v -2 2 3
v 2 2 3
v 3 2 3
v 4 2 3
v -4 2 -2
v -3 2 -2
v -2 2 -2
v 2 2 -2
v 3 2 -2
v 4 2 -2
v -3 2 -3
v -2 2 -3
v 2 2 -3
v 3 2 -3
v -1 5 -2
v 1 5 -2
v -1 5 -3
v 1 5 -3
v -3 6 4
v -2 6 4
v 2 6 4
v 3 6 4
v -4 6 3
v -3 6 3
v -2 6 3
v 2 6 3
v 3 6 3
v 4 6 3
v -3 6 2
v -3 6 -1
v -4 6 -2
v -3 6 -2
v -2 6 -2
v -1 6 -2
v 1 6 -2
v 2 6 -2
v 3 6 -2
v 4 6 -2
v -2 6 -3
v -1 6 -3
v 1 6 -3
v 2 6 -3
v -6 11 1
v -5 11 1
v -4 11 1
v 4 11 1
v 5 11 1
v 6 11 1
v -6 11 -0
v -5 11 -0
v -4 11 -0
v 4 11 -0
v 5 11 -0
v 6 11 -0
v -4 14 4
v -3 14 4
v 3 14 4
v 4 14 4
v 3 14 2
v 3 14 -2
v 4 14 -2
v -4 14 -3
v -3 14 -3
v 0 14 -3
v 1 14 -3
v 3 14 -3
v 4 14 -3
v 0 14 -4
v 1 14 -4
v 3 14 -4
v -3 15 4
v 1 15 4
v 3 15 4
v 1 15 3
v 2 15 3
v 2 15 2
v 3 15 2
v -1 15 -2
v 3 15 -2
v -3 15 -3
v -1 15 -3
v 3 15 -3

# faces
f 3/7/1 2/7/1 1/7/1
f 4/7/1 2/7/1 3/7/1
f 7/7/1 6/7/1 5/7/1
f 8/7/1 6/7/1 7/7/1
f 11/1/1 10/1/1 9/1/1
f 12/1/1 10/1/1 11/1/1
f 16/12/1 14/12/1 13/12/1
f 17/12/1 14/12/1 16/12/1
f 19/12/1 16/12/1 15/12/1
f 19/12/1 18/12/1 17/12/1
f 19/12/1 17/12/1 16/12/1
f 20/12/1 18/12/1 19/12/1
f 24/6/1 22/6/1 21/6/1
f 25/6/1 22/6/1 24/6/1
f 27/6/1 24/6/1 23/6/1
f 28/7/1 25/7/1 24/7/1
f 28/6/1 24/6/1 27/6/1
f 29/7/1 25/7/1 28/7/1
f 30/7/1 25/7/1 29/7/1
f 31/6/1 26/6/1 25/6/1
f 31/7/1 25/7/1 30/7/1
f 32/6/1 26/6/1 31/6/1
f 33/7/1 28/7/1 27/7/1
f 33/7/1 29/7/1 28/7/1
f 34/7/1 32/7/1 31/7/1
f 34/7/1 31/7/1 30/7/1
f 35/7/1 32/7/1 34/7/1
f 36/7/1 33/7/1 27/7/1
f 37/7/1 33/7/1 36/7/1
f 38/4/1 35/4/1 34/4/1
f 39/4/1 37/4/1 36/4/1
f 39/4/1 38/4/1 37/4/1
f 40/7/1 32/7/1 35/7/1
f 40/4/1 38/4/1 39/4/1
f 40/4/1 35/4/1 38/4/1
f 41/7/1 32/7/1 40/7/1
f 42/3/1 40/3/1 39/3/1
f 42/3/1 41/3/1 40/3/1
f 43/3/1 41/3/1 42/3/1
f 47/21/1 45/21/1 44/21/1
f 48/21/1 45/21/1 47/21/1
f 50/1/1 47/1/1 46/1/1
f 51/1/1 47/1/1 50/1/1
f 52/1/1 49/1/1 48/1/1
f 53/1/1 49/1/1 52/1/1
f 54/12/1 52/12/1 51/12/1
f 55/12/1 52/12/1 54/12/1
f 56/12/1 54/12/1 51/12/1
f 57/12/1 54/12/1 56/12/1
f 58/12/1 52/12/1 55/12/1
f 59/12/1 52/12/1 58/12/1
f 64/12/1 61/12/1 60/12/1
f 65/12/1 61/12/1 64/12/1
f 68/12/1 63/12/1 62/12/1
f 69/12/1 63/12/1 68/12/1
f 71/15/1 66/15/1 65/15/1
f 72/14/1 67/14/1 66/14/1
f 72/15/1 66/15/1 71/15/1
f 73/15/1 69/15/1 68/15/1
f 73/14/1 67/14/1 72/14/1
f 73/15/1 68/15/1 67/15/1
f 74/15/1 69/15/1 73/15/1
f 75/15/1 69/15/1 74/15/1
f 76/7/1 71/7/1 70/7/1
f 77/7/1 71/7/1 76/7/1
f 78/6/1 75/6/1 74/6/1
f 79/6/1 75/6/1 78/6/1
f 82/3/1 81/3/1 80/3/1
f 83/3/1 81/3/1 82/3/1
f 88/21/1 85/21/1 84/21/1
f 89/21/1 85/21/1 88/21/1
f 90/21/1 87/21/1 86/21/1
f 91/21/1 87/21/1 90/21/1
f 96/12/1 95/12/1 94/12/1
f 97/12/1 95/12/1 96/12/1
f 98/13/1 97/13/1 96/13/1
f 99/13/1 97/13/1 98/13/1
f 100/12/1 93/12/1 92/12/1
f 101/12/1 93/12/1 100/12/1
f 102/12/1 99/12/1 98/12/1
f 103/12/1 99/12/1 102/12/1
f 106/15/1 105/15/1 104/15/1
f 107/15/1 105/15/1 106/15/1
f 110/3/1 109/3/1 108/3/1
f 111/3/1 109/3/1 110/3/1
f 114/15/1 113/15/1 112/15/1
f 115/15/1 113/15/1 114/15/1
f 118/15/1 117/15/1 116/15/1
f 119/15/1 117/15/1 118/15/1
f 120/15/2 121/15/2 122/15/2
f 122/15/2 121/15/2 123/15/2
f 124/15/2 125/15/2 126/15/2
f 126/15/2 125/15/2 127/15/2
f 128/21/2 129/21/2 132/21/2
f 132/21/2 129/21/2 133/21/2
f 130/21/2 131/21/2 134/21/2
f 134/21/2 131/21/2 135/21/2
f 138/12/2 139/12/2 140/12/2
f 140/12/2 139/12/2 141/12/2
f 140/13/2 141/13/2 142/13/2
f 142/13/2 141/13/2 143/13/2
f 136/12/2 137/12/2 144/12/2
f 144/12/2 137/12/2 145/12/2
f 142/12/2 143/12/2 146/12/2
f 146/12/2 143/12/2 147/12/2
f 148/15/2 149/15/2 150/15/2
f 150/15/2 149/15/2 151/15/2
f 152/21/2 153/21/2 155/21/2
f 155/21/2 153/21/2 156/21/2
f 154/1/2 155/1/2 158/1/2
f 158/1/2 155/1/2 159/1/2
f 156/1/2 157/1/2 160/1/2
f 160/1/2 157/1/2 161/1/2
f 159/12/2 160/12/2 162/12/2
f 162/12/2 160/12/2 163/12/2
f 159/12/2 162/12/2 164/12/2
f 164/12/2 162/12/2 165/12/2
f 163/12/2 160/12/2 166/12/2
f 166/12/2 160/12/2 167/12/2
f 168/12/2 169/12/2 172/12/2
f 172/12/2 169/12/2 173/12/2
f 170/12/2 171/12/2 174/12/2
f 174/12/2 171/12/2 175/12/2
f 173/15/2 174/15/2 177/15/2
f 174/15/2 175/15/2 177/15/2
f 177/15/2 175/15/2 178/15/2
f 178/15/2 175/15/2 179/15/2
f 176/7/2 177/7/2 180/7/2
f 180/7/2 177/7/2 181/7/2
f 178/6/2 179/6/2 182/6/2
f 182/6/2 179/6/2 183/6/2
f 184/9/2 185/9/2 189/9/2
f 189/9/2 185/9/2 190/9/2
f 186/8/2 187/8/2 191/8/2
f 187/3/2 188/3/2 192/3/2
f 191/8/2 187/8/2 192/8/2
f 188/9/2 189/9/2 193/9/2
f 192/3/2 188/3/2 193/3/2
f 193/9/2 189/9/2 194/9/2
f 195/1/2 196/1/2 197/1/2
f 197/1/2 196/1/2 198/1/2
f 199/12/2 200/12/2 202/12/2
f 202/12/2 200/12/2 203/12/2
f 201/12/2 202/12/2 205/12/2
f 203/12/2 204/12/2 205/12/2
f 202/12/2 203/12/2 205/12/2
f 205/12/2 204/12/2 206/12/2
f 207/6/2 208/6/2 210/6/2
f 210/6/2 208/6/2 211/6/2
f 209/6/2 210/6/2 213/6/2
f 210/7/2 211/7/2 214/7/2
f 213/6/2 210/6/2 214/6/2
f 214/7/2 211/7/2 215/7/2
f 215/7/2 211/7/2 216/7/2
f 211/6/2 212/6/2 217/6/2
f 216/7/2 211/7/2 217/7/2
f 217/6/2 212/6/2 218/6/2
f 213/7/2 214/7/2 219/7/2
f 214/7/2 215/7/2 219/7/2
f 217/7/2 218/7/2 220/7/2
f 216/7/2 217/7/2 220/7/2
f 220/7/2 218/7/2 221/7/2
f 213/7/2 219/7/2 222/7/2
f 222/7/2 219/7/2 223/7/2
f 220/4/2 221/4/2 224/4/2
f 222/4/2 223/4/2 225/4/2
f 223/4/2 224/4/2 225/4/2
f 221/7/2 218/7/2 226/7/2
f 225/4/2 224/4/2 226/4/2
f 224/4/2 221/4/2 226/4/2
f 226/7/2 218/7/2 227/7/2
f 225/8/2 226/8/2 228/8/2
f 226/9/2 227/9/2 229/9/2
f 228/8/2 226/8/2 229/8/2
f 229/9/2 227/9/2 230/9/2
f 231/7/2 232/7/2 233/7/2
f 233/7/2 232/7/2 234/7/2
f 235/7/2 236/7/2 237/7/2
f 237/7/2 236/7/2 238/7/2
f 249/6/3 240/6/3 239/6/3
f 250/7/3 241/7/3 240/7/3
f 250/6/3 240/6/3 249/6/3
f 251/4/3 242/4/3 241/4/3
f 251/3/3 243/3/3 242/3/3
f 252/3/3 243/3/3 251/3/3
f 255/1/3 245/1/3 244/1/3
f 256/1/3 245/1/3 255/1/3
f 257/12/3 247/12/3 246/12/3
f 258/12/3 247/12/3 257/12/3
f 259/7/3 249/7/3 248/7/3
f 259/7/3 250/7/3 249/7/3
f 260/7/3 241/7/3 250/7/3
f 260/7/3 250/7/3 259/7/3
f 261/4/3 251/4/3 241/4/3
f 261/7/3 241/7/3 260/7/3
f 262/4/3 251/4/3 261/4/3
f 263/10/3 252/10/3 251/10/3
f 263/4/3 251/4/3 262/4/3
f 264/3/3 253/3/3 252/3/3
f 264/10/3 252/10/3 263/10/3
f 265/3/3 263/3/3 262/3/3
f 265/3/3 253/3/3 264/3/3
f 265/3/3 264/3/3 263/3/3
f 266/3/3 253/3/3 265/3/3
f 267/21/3 255/21/3 254/21/3
f 268/1/3 256/1/3 255/1/3
f 268/21/3 255/21/3 267/21/3
f 269/12/3 258/12/3 257/12/3
f 269/1/3 256/1/3 268/1/3
f 269/12/3 257/12/3 256/12/3
f 270/12/3 258/12/3 269/12/3
f 271/15/3 259/15/3 258/15/3
f 271/12/3 258/12/3 270/12/3
f 272/7/3 260/7/3 259/7/3
f 272/15/3 259/15/3 271/15/3
f 273/4/3 261/4/3 260/4/3
f 273/7/3 260/7/3 272/7/3
f 273/4/3 262/4/3 261/4/3
f 274/4/3 262/4/3 273/4/3
f 275/3/3 265/3/3 262/3/3
f 275/4/3 262/4/3 274/4/3
f 276/3/3 265/3/3 275/3/3
f 277/8/3 266/8/3 265/8/3
f 277/3/3 265/3/3 276/3/3
f 278/1/3 269/1/3 268/1/3
f 279/1/3 269/1/3 278/1/3
f 280/12/3 271/12/3 270/12/3
f 281/12/3 271/12/3 280/12/3
f 282/7/3 273/7/3 272/7/3
f 282/7/3 274/7/3 273/7/3
f 283/7/3 274/7/3 282/7/3
f 284/7/3 274/7/3 283/7/3
f 285/10/3 277/10/3 276/10/3
f 285/4/3 276/4/3 275/4/3
f 285/4/3 275/4/3 274/4/3
f 286/8/3 266/8/3 277/8/3
f 286/10/3 277/10/3 285/10/3
f 287/8/3 266/8/3 286/8/3
f 288/6/3 284/6/3 283/6/3
f 289/7/3 274/7/3 284/7/3
f 289/6/3 284/6/3 288/6/3
f 290/4/3 285/4/3 274/4/3
f 290/7/3 274/7/3 289/7/3
f 291/8/3 286/8/3 285/8/3
f 291/4/3 285/4/3 290/4/3
f 292/8/3 286/8/3 291/8/3
f 300/1/3 294/1/3 293/1/3
f 301/1/3 294/1/3 300/1/3
f 302/12/3 296/12/3 295/12/3
f 303/12/3 296/12/3 302/12/3
f 304/12/3 296/12/3 303/12/3
f 305/6/3 298/6/3 297/6/3
f 306/6/3 298/6/3 305/6/3
f 307/21/3 300/21/3 299/21/3
f 308/21/3 300/21/3 307/21/3
f 309/12/3 302/12/3 301/12/3
f 309/12/3 303/12/3 302/12/3
f 310/12/3 303/12/3 309/12/3
f 311/15/3 305/15/3 304/15/3
f 312/15/3 305/15/3 311/15/3
f 319/21/3 314/21/3 313/21/3
f 320/21/3 314/21/3 319/21/3
f 321/12/3 316/12/3 315/12/3
f 322/12/3 316/12/3 321/12/3
f 323/12/3 316/12/3 322/12/3
f 324/15/3 318/15/3 317/15/3
f 325/15/3 318/15/3 324/15/3
f 327/1/3 321/1/3 320/1/3
f 328/1/3 321/1/3 327/1/3
f 329/12/3 323/12/3 322/12/3
f 329/12/3 324/12/3 323/12/3
f 330/12/3 324/12/3 329/12/3
f 331/6/3 326/6/3 325/6/3
f 332/6/3 326/6/3 331/6/3
f 335/12/3 334/12/3 333/12/3
f 336/12/3 334/12/3 335/12/3
f 339/12/3 338/12/3 337/12/3
f 340/12/3 338/12/3 339/12/3
f 344/7/3 342/7/3 341/7/3
f 345/7/3 342/7/3 344/7/3
f 346/7/3 344/7/3 343/7/3
f 347/11/3 345/11/3 344/11/3
f 347/7/3 344/7/3 346/7/3
f 348/11/3 345/11/3 347/11/3
f 352/7/3 350/7/3 349/7/3
f 353/11/3 351/11/3 350/11/3
f 353/7/3 350/7/3 352/7/3
f 354/11/3 351/11/3 353/11/3
f 355/7/3 354/7/3 353/7/3
f 356/7/3 354/7/3 355/7/3
f 357/7/4 358/7/4 360/7/4
f 360/7/4 358/7/4 361/7/4
f 359/7/4 360/7/4 362/7/4
f 360/11/4 361/11/4 363/11/4
f 362/7/4 360/7/4 363/7/4
f 363/11/4 361/11/4 364/11/4
f 365/7/4 366/7/4 368/7/4
f 366/11/4 367/11/4 369/11/4
f 368/7/4 366/7/4 369/7/4
f 369/11/4 367/11/4 370/11/4
f 369/7/4 370/7/4 371/7/4
f 371/7/4 370/7/4 372/7/4
f 373/12/4 374/12/4 375/12/4
f 375/12/4 374/12/4 376/12/4
f 377/12/4 378/12/4 379/12/4
f 379/12/4 378/12/4 380/12/4
f 381/1/4 382/1/4 388/1/4
f 388/1/4 382/1/4 389/1/4
f 383/12/4 384/12/4 390/12/4
f 390/12/4 384/12/4 391/12/4
f 391/12/4 384/12/4 392/12/4
f 385/6/4 386/6/4 393/6/4
f 393/6/4 386/6/4 394/6/4
f 387/21/4 388/21/4 395/21/4
f 395/21/4 388/21/4 396/21/4
f 390/12/4 391/12/4 397/12/4
f 389/12/4 390/12/4 397/12/4
f 397/12/4 391/12/4 398/12/4
f 398/12/4 391/12/4 399/12/4
f 399/12/4 391/12/4 400/12/4
f 401/7/4 402/7/4 404/7/4
f 403/7/4 404/7/4 405/7/4
f 404/7/4 402/7/4 406/7/4
f 405/7/4 404/7/4 406/7/4
f 406/7/4 402/7/4 413/7/4
f 413/7/4 402/7/4 414/7/4
f 407/21/4 408/21/4 415/21/4
f 415/21/4 408/21/4 416/21/4
f 411/12/4 412/12/4 417/12/4
f 409/12/4 410/12/4 417/12/4
f 410/12/4 411/12/4 417/12/4
f 417/12/4 412/12/4 418/12/4
f 418/12/4 412/12/4 419/12/4
f 416/1/4 417/1/4 423/1/4
f 423/1/4 417/1/4 424/1/4
f 419/12/4 420/12/4 425/12/4
f 418/12/4 419/12/4 425/12/4
f 425/12/4 420/12/4 426/12/4
f 421/6/4 422/6/4 427/6/4
f 427/6/4 422/6/4 428/6/4
f 429/6/4 430/6/4 438/6/4
f 430/7/4 431/7/4 439/7/4
f 438/6/4 430/6/4 439/6/4
f 439/7/4 431/7/4 440/7/4
f 440/7/4 431/7/4 441/7/4
f 441/7/4 431/7/4 442/7/4
f 431/3/4 432/3/4 443/3/4
f 442/7/4 431/7/4 443/7/4
f 443/3/4 432/3/4 444/3/4
f 433/1/4 434/1/4 447/1/4
f 447/1/4 434/1/4 448/1/4
f 435/12/4 436/12/4 451/12/4
f 436/15/4 437/15/4 452/15/4
f 451/12/4 436/12/4 452/12/4
f 437/6/4 438/6/4 453/6/4
f 452/15/4 437/15/4 453/15/4
f 438/7/4 439/7/4 454/7/4
f 453/6/4 438/6/4 454/6/4
f 439/7/4 440/7/4 454/7/4
f 440/18/4 441/18/4 455/18/4
f 454/7/4 440/7/4 455/7/4
f 441/20/4 442/20/4 456/20/4
f 455/18/4 441/18/4 456/18/4
f 442/7/4 443/7/4 457/7/4
f 456/20/4 442/20/4 457/20/4
f 443/6/4 444/6/4 458/6/4
f 457/7/4 443/7/4 458/7/4
f 444/3/4 445/3/4 459/3/4
f 458/6/4 444/6/4 459/6/4
f 446/21/4 447/21/4 460/21/4
f 447/19/4 448/19/4 460/19/4
f 448/12/4 449/12/4 461/12/4
f 460/19/4 448/19/4 461/19/4
f 449/13/4 450/13/4 462/13/4
f 461/12/4 449/12/4 462/12/4
f 450/12/4 451/12/4 463/12/4
f 462/13/4 450/13/4 463/13/4
f 451/15/4 452/15/4 464/15/4
f 463/12/4 451/12/4 464/12/4
f 464/15/4 452/15/4 465/15/4
f 454/7/4 455/7/4 466/7/4
f 453/7/4 454/7/4 466/7/4
f 466/7/4 455/7/4 467/7/4
f 455/16/4 456/16/4 468/16/4
f 467/7/4 455/7/4 468/7/4
f 456/17/4 457/17/4 469/17/4
f 468/16/4 456/16/4 469/16/4
f 457/7/4 458/7/4 470/7/4
f 469/17/4 457/17/4 470/17/4
f 458/7/4 459/7/4 470/7/4
f 459/3/4 445/3/4 471/3/4
f 470/7/4 459/7/4 471/7/4
f 471/3/4 445/3/4 472/3/4
f 466/2/4 467/2/4 473/2/4
f 467/5/4 468/5/4 473/5/4
f 468/7/4 469/7/4 474/7/4
f 473/5/4 468/5/4 474/5/4
f 469/7/4 470/7/4 474/7/4
f 470/7/4 471/7/4 474/7/4
f 474/7/4 471/7/4 475/7/4
f 471/9/4 472/9/4 476/9/4
f 475/7/4 471/7/4 476/7/4
f 460/18/4 461/18/4 477/18/4
f 446/21/4 460/21/4 477/21/4
f 461/13/4 462/13/4 478/13/4
f 477/18/4 461/18/4 478/18/4
f 462/12/4 463/12/4 479/12/4
f 478/13/4 462/13/4 479/13/4
f 463/15/4 464/15/4 480/15/4
f 479/12/4 463/12/4 480/12/4
f 480/15/4 464/15/4 481/15/4
f 466/2/4 473/2/4 483/2/4
f 453/7/4 466/7/4 483/7/4
f 473/6/4 474/6/4 484/6/4
f 483/2/4 473/2/4 484/2/4
f 474/7/4 475/7/4 485/7/4
f 484/6/4 474/6/4 485/6/4
f 485/7/4 475/7/4 486/7/4
f 486/7/4 475/7/4 487/7/4
f 487/7/4 475/7/4 488/7/4
f 476/9/4 472/9/4 489/9/4
f 446/21/4 477/21/4 490/21/4
f 477/19/4 478/19/4 491/19/4
f 490/21/4 477/21/4 491/21/4
f 478/12/4 479/12/4 492/12/4
f 491/19/4 478/19/4 492/19/4
f 479/13/4 480/13/4 493/13/4
f 492/12/4 479/12/4 493/12/4
f 480/12/4 481/12/4 494/12/4
f 493/13/4 480/13/4 494/13/4
f 481/15/4 482/15/4 495/15/4
f 494/12/4 481/12/4 495/12/4
f 495/15/4 482/15/4 496/15/4
f 453/7/4 483/7/4 497/7/4
f 483/7/4 484/7/4 497/7/4
f 484/7/4 485/7/4 497/7/4
f 497/7/4 485/7/4 498/7/4
f 485/16/4 486/16/4 499/16/4
f 498/7/4 485/7/4 499/7/4
f 486/17/4 487/17/4 500/17/4
f 499/16/4 486/16/4 500/16/4
f 487/7/4 488/7/4 501/7/4
f 500/17/4 487/17/4 501/17/4
f 491/1/4 492/1/4 502/1/4
f 502/1/4 492/1/4 503/1/4
f 495/12/4 496/12/4 504/12/4
f 496/15/4 497/15/4 505/15/4
f 504/12/4 496/12/4 505/12/4
f 497/6/4 498/6/4 506/6/4
f 505/15/4 497/15/4 506/15/4
f 498/7/4 499/7/4 507/7/4
f 506/6/4 498/6/4 507/6/4
f 507/7/4 499/7/4 508/7/4
f 499/18/4 500/18/4 509/18/4
f 508/7/4 499/7/4 509/7/4
f 500/20/4 501/20/4 510/20/4
f 509/18/4 500/18/4 510/18/4
f 501/7/4 488/7/4 511/7/4
f 510/20/4 501/20/4 511/20/4
f 511/7/4 488/7/4 512/7/4
f 489/9/4 472/9/4 513/9/4
f 513/9/4 472/9/4 514/9/4
f 507/6/4 508/6/4 515/6/4
f 511/7/4 512/7/4 516/7/4
f 515/6/4 508/6/4 516/6/4
f 509/7/4 510/7/4 516/7/4
f 508/7/4 509/7/4 516/7/4
f 510/7/4 511/7/4 516/7/4
f 512/9/4 513/9/4 517/9/4
f 516/7/4 512/7/4 517/7/4
f 517/9/4 513/9/4 518/9/4
f 519/3/4 520/3/4 521/3/4
f 521/3/4 520/3/4 522/3/4
f 521/9/4 522/9/4 523/9/4
f 523/9/4 522/9/4 524/9/4
f 528/21/5 526/21/5 525/21/5
f 529/21/5 526/21/5 528/21/5
f 531/21/5 528/21/5 527/21/5
f 531/21/5 530/21/5 529/21/5
f 531/21/5 529/21/5 528/21/5
f 532/21/5 530/21/5 531/21/5
f 533/21/5 530/21/5 532/21/5
f 534/21/5 530/21/5 533/21/5
f 535/21/5 533/21/5 532/21/5
f 536/21/5 533/21/5 535/21/5
f 542/1/5 538/1/5 537/1/5
f 543/1/5 538/1/5 542/1/5
f 544/1/5 540/1/5 539/1/5
f 545/1/5 540/1/5 544/1/5
f 547/1/5 542/1/5 541/1/5
f 548/1/5 542/1/5 547/1/5
f 551/1/5 546/1/5 545/1/5
f 552/1/5 546/1/5 551/1/5
f 553/1/5 549/1/5 548/1/5
f 554/1/5 549/1/5 553/1/5
f 555/1/5 551/1/5 550/1/5
f 556/1/5 551/1/5 555/1/5
f 561/12/5 558/12/5 557/12/5
f 562/12/5 558/12/5 561/12/5
f 563/12/5 560/12/5 559/12/5
f 564/12/5 560/12/5 563/12/5
f 569/12/5 566/12/5 565/12/5
f 570/12/5 566/12/5 569/12/5
f 571/12/5 568/12/5 567/12/5
f 572/12/5 568/12/5 571/12/5
f 577/12/5 574/12/5 573/12/5
f 578/12/5 574/12/5 577/12/5
f 579/12/5 576/12/5 575/12/5
f 580/12/5 576/12/5 579/12/5
f 585/12/5 582/12/5 581/12/5
f 586/12/5 582/12/5 585/12/5
f 587/12/5 584/12/5 583/12/5
f 588/12/5 584/12/5 587/12/5
f 593/12/5 590/12/5 589/12/5
f 594/12/5 590/12/5 593/12/5
f 595/12/5 592/12/5 591/12/5
f 596/12/5 592/12/5 595/12/5
f 602/7/5 598/7/5 597/7/5
f 603/7/5 598/7/5 602/7/5
f 604/7/5 600/7/5 599/7/5
f 605/7/5 600/7/5 604/7/5
f 607/6/5 602/6/5 601/6/5
f 608/6/5 607/6/5 601/6/5
f 609/6/5 608/6/5 601/6/5
f 610/6/5 608/6/5 609/6/5
f 613/6/5 606/6/5 605/6/5
f 614/6/5 606/6/5 613/6/5
f 615/7/5 612/7/5 611/7/5
f 616/7/5 612/7/5 615/7/5
f 621/6/5 618/6/5 617/6/5
f 622/6/5 618/6/5 621/6/5
f 623/6/5 620/6/5 619/6/5
f 624/6/5 620/6/5 623/6/5
f 629/6/5 626/6/5 625/6/5
f 630/6/5 626/6/5 629/6/5
f 631/6/5 628/6/5 627/6/5
f 632/6/5 628/6/5 631/6/5
f 637/7/5 634/7/5 633/7/5
f 638/7/5 634/7/5 637/7/5
f 639/7/5 636/7/5 635/7/5
f 640/7/5 636/7/5 639/7/5
f 645/7/5 642/7/5 641/7/5
f 646/7/5 642/7/5 645/7/5
f 647/7/5 644/7/5 643/7/5
f 648/7/5 644/7/5 647/7/5
f 652/3/5 650/3/5 649/3/5
f 653/9/5 651/9/5 650/9/5
f 653/3/5 650/3/5 652/3/5
f 654/9/5 651/9/5 653/9/5
f 655/1/6 656/1/6 660/1/6
f 660/1/6 656/1/6 661/1/6
f 657/1/6 658/1/6 662/1/6
f 662/1/6 658/1/6 663/1/6
f 659/1/6 660/1/6 665/1/6
f 665/1/6 660/1/6 666/1/6
f 663/1/6 664/1/6 669/1/6
f 669/1/6 664/1/6 670/1/6
f 666/1/6 667/1/6 671/1/6
f 671/1/6 667/1/6 672/1/6
f 668/1/6 669/1/6 673/1/6
f 673/1/6 669/1/6 674/1/6
f 675/15/6 676/15/6 677/15/6
f 677/15/6 676/15/6 678/15/6
f 679/12/6 680/12/6 684/12/6
f 684/12/6 680/12/6 685/12/6
f 681/12/6 682/12/6 686/12/6
f 686/12/6 682/12/6 687/12/6
f 683/12/6 684/12/6 689/12/6
f 683/12/6 689/12/6 690/12/6
f 683/12/6 690/12/6 691/12/6
f 691/12/6 690/12/6 692/12/6
f 687/12/6 688/12/6 697/12/6
f 697/12/6 688/12/6 698/12/6
f 693/15/6 694/15/6 699/15/6
f 699/15/6 694/15/6 700/15/6
f 695/15/6 696/15/6 701/15/6
f 701/15/6 696/15/6 702/15/6
f 703/7/6 704/7/6 709/7/6
f 704/11/6 705/11/6 710/11/6
f 709/7/6 704/7/6 710/7/6
f 710/11/6 705/11/6 711/11/6
f 706/11/6 707/11/6 712/11/6
f 707/7/6 708/7/6 713/7/6
f 712/11/6 707/11/6 713/11/6
f 713/7/6 708/7/6 714/7/6
f 717/8/6 718/8/6 719/8/6
f 719/8/6 718/8/6 720/8/6
f 720/8/6 718/8/6 721/8/6
f 715/3/6 716/3/6 722/3/6
f 722/3/6 716/3/6 723/3/6
f 720/9/6 721/9/6 726/9/6
f 726/9/6 721/9/6 727/9/6
f 724/3/6 725/3/6 728/3/6
f 725/9/6 726/9/6 729/9/6
f 728/3/6 725/3/6 729/3/6
f 729/9/6 726/9/6 730/9/6
f 731/3/6 732/3/6 734/3/6
f 732/8/6 733/8/6 734/8/6
f 734/8/6 733/8/6 735/8/6
f 734/3/6 735/3/6 736/3/6
f 735/8/6 733/8/6 736/8/6
f 736/8/6 733/8/6 737/8/6
f 731/3/6 734/3/6 738/3/6
f 734/3/6 736/3/6 738/3/6
f 736/3/6 737/3/6 738/3/6
f 738/3/6 737/3/6 739/3/6
f 731/3/6 738/3/6 740/3/6
f 738/9/6 739/9/6 741/9/6
f 740/3/6 738/3/6 741/3/6
f 741/9/6 739/9/6 742/9/6
