# MagicaVoxel @ ephtracy

# material
mtllib dagger.mtl
usemtl palette

# normals
vn -1 0 0
vn 1 0 0
vn 0 0 1
vn 0 0 -1
vn 0 -1 0
vn 0 1 0

# texcoords
vt 0.224609 0.5
vt 0.310547 0.5
vt 0.919922 0.5
vt 0.935547 0.5
vt 0.951172 0.5
vt 0.962891 0.5
vt 0.966797 0.5

# verts
v -1.5 0 7
v -1.5 0 6
v -1.5 1 8
v -1.5 1 7
v -1.5 2 15
v -1.5 2 14
v -1.5 2 7
v -1.5 2 6
v -1.5 3 14
v -1.5 3 13
v -1.5 3 12
v -1.5 3 11
v -1.5 3 10
v -1.5 3 9
v -1.5 3 8
v -1.5 4 14
v -1.5 4 13
v -1.5 4 12
v -1.5 4 11
v -1.5 4 10
v -1.5 4 9
v -1.5 4 8
v -1.5 5 15
v -1.5 5 14
v -1.5 5 7
v -1.5 5 6
v -1.5 6 8
v -1.5 6 7
v -1.5 7 7
v -1.5 7 6
v -0.5 2 14
v -0.5 2 13
v -0.5 2 12
v -0.5 2 11
v -0.5 2 10
v -0.5 2 9
v -0.5 2 8
v -0.5 2 7
v -0.5 2 6
v -0.5 2 -6
v -0.5 3 16
v -0.5 3 15
v -0.5 3 14
v -0.5 3 13
v -0.5 3 12
v -0.5 3 11
v -0.5 3 10
v -0.5 3 9
v -0.5 3 8
v -0.5 3 7
v -0.5 3 -2
v -0.5 3 -3
v -0.5 3 -4
v -0.5 3 -6
v -0.5 3 -7
v -0.5 4 16
v -0.5 4 15
v -0.5 4 14
v -0.5 4 13
v -0.5 4 12
v -0.5 4 11
v -0.5 4 10
v -0.5 4 9
v -0.5 4 8
v -0.5 4 7
v -0.5 4 -2
v -0.5 4 -3
v -0.5 4 -4
v -0.5 4 -7
v -0.5 5 14
v -0.5 5 13
v -0.5 5 12
v -0.5 5 11
v -0.5 5 10
v -0.5 5 9
v -0.5 5 8
v -0.5 5 7
v -0.5 5 6
v -0.5 5 -4
v 0.5 2 14
v 0.5 2 13
v 0.5 2 12
v 0.5 2 11
v 0.5 2 10
v 0.5 2 9
v 0.5 2 8
v 0.5 2 7
v 0.5 2 6
v 0.5 2 -6
v 0.5 3 16
v 0.5 3 15
v 0.5 3 14
v 0.5 3 13
v 0.5 3 12
v 0.5 3 11
v 0.5 3 10
v 0.5 3 9
v 0.5 3 8
v 0.5 3 7
v 0.5 3 -2
v 0.5 3 -3
v 0.5 3 -4
v 0.5 3 -6
v 0.5 3 -7
v 0.5 4 16
v 0.5 4 15
v 0.5 4 14
v 0.5 4 13
v 0.5 4 12
v 0.5 4 11
v 0.5 4 10
v 0.5 4 9
v 0.5 4 8
v 0.5 4 7
v 0.5 4 -2
v 0.5 4 -3
v 0.5 4 -4
v 0.5 4 -7
v 0.5 5 14
v 0.5 5 13
v 0.5 5 12
v 0.5 5 11
v 0.5 5 10
v 0.5 5 9
v 0.5 5 8
v 0.5 5 7
v 0.5 5 6
v 0.5 5 -4
v 1.5 0 7
v 1.5 0 6
v 1.5 1 8
v 1.5 1 7
v 1.5 2 15
v 1.5 2 14
v 1.5 2 7
v 1.5 2 6
v 1.5 3 14
v 1.5 3 13
v 1.5 3 12
v 1.5 3 11
v 1.5 3 10
v 1.5 3 9
v 1.5 3 8
v 1.5 4 14
v 1.5 4 13
v 1.5 4 12
v 1.5 4 11
v 1.5 4 10
v 1.5 4 9
v 1.5 4 8
v 1.5 5 15
v 1.5 5 14
v 1.5 5 7
v 1.5 5 6
v 1.5 6 8
v 1.5 6 7
v 1.5 7 7
v 1.5 7 6
v -0.5 3 16
v -0.5 4 16
v 0.5 3 16
v 0.5 4 16
v -1.5 2 15
v -1.5 5 15
v -0.5 3 15
v -0.5 4 15
v 0.5 3 15
v 0.5 4 15
v 1.5 2 15
v 1.5 5 15
v -1.5 1 8
v -1.5 3 8
v -1.5 4 8
v -1.5 6 8
v -0.5 2 8
v -0.5 3 8
v -0.5 4 8
v -0.5 5 8
v 0.5 2 8
v 0.5 3 8
v 0.5 4 8
v 0.5 5 8
v 1.5 1 8
v 1.5 3 8
v 1.5 4 8
v 1.5 6 8
v -1.5 0 7
v -1.5 1 7
v -1.5 6 7
v -1.5 7 7
v 1.5 0 7
v 1.5 1 7
v 1.5 6 7
v 1.5 7 7
v -1.5 2 14
v -1.5 3 14
v -1.5 4 14
v -1.5 5 14
v -0.5 2 14
v -0.5 3 14
v -0.5 4 14
v -0.5 5 14
v 0.5 2 14
v 0.5 3 14
v 0.5 4 14
v 0.5 5 14
v 1.5 2 14
v 1.5 3 14
v 1.5 4 14
v 1.5 5 14
v -1.5 2 7
v -1.5 5 7
v -0.5 2 7
v -0.5 3 7
v -0.5 4 7
v -0.5 5 7
v 0.5 2 7
v 0.5 3 7
v 0.5 4 7
v 0.5 5 7
v 1.5 2 7
v 1.5 5 7
v -1.5 0 6
v -1.5 2 6
v -1.5 5 6
v -1.5 7 6
v -0.5 2 6
v -0.5 5 6
v 0.5 2 6
v 0.5 5 6
v 1.5 0 6
v 1.5 2 6
v 1.5 5 6
v 1.5 7 6
v -0.5 4 -4
v -0.5 5 -4
v 0.5 4 -4
v 0.5 5 -4
v -0.5 2 -6
v -0.5 3 -6
v 0.5 2 -6
v 0.5 3 -6
v -0.5 3 -7
v -0.5 4 -7
v 0.5 3 -7
v 0.5 4 -7
v -1.5 0 7
v 1.5 0 7
v -1.5 0 6
v 1.5 0 6
v -1.5 1 8
v 1.5 1 8
v -1.5 1 7
v 1.5 1 7
v -1.5 2 15
v 1.5 2 15
v -1.5 2 14
v -0.5 2 14
v 0.5 2 14
v 1.5 2 14
v -0.5 2 13
v 0.5 2 13
v -0.5 2 12
v 0.5 2 12
v -0.5 2 11
v 0.5 2 11
v -0.5 2 10
v 0.5 2 10
v -0.5 2 9
v 0.5 2 9
v -0.5 2 8
v 0.5 2 8
v -0.5 2 6
v 0.5 2 6
v -0.5 2 -6
v 0.5 2 -6
v -0.5 3 16
v 0.5 3 16
v -0.5 3 15
v 0.5 3 15
v -1.5 3 14
v -0.5 3 14
v 0.5 3 14
v 1.5 3 14
v -1.5 3 13
v -0.5 3 13
v 0.5 3 13
v 1.5 3 13
v -1.5 3 12
v -0.5 3 12
v 0.5 3 12
v 1.5 3 12
v -1.5 3 11
v -0.5 3 11
v 0.5 3 11
v 1.5 3 11
v -1.5 3 10
v -0.5 3 10
v 0.5 3 10
v 1.5 3 10
v -1.5 3 9
v -0.5 3 9
v 0.5 3 9
v 1.5 3 9
v -1.5 3 8
v -0.5 3 8
v 0.5 3 8
v 1.5 3 8
v -0.5 3 -6
v 0.5 3 -6
v -0.5 3 -7
v 0.5 3 -7
v -1.5 5 7
v -0.5 5 7
v 0.5 5 7
v 1.5 5 7
v -1.5 5 6
v -0.5 5 6
v 0.5 5 6
v 1.5 5 6
v -1.5 2 7
v -0.5 2 7
v 0.5 2 7
v 1.5 2 7
v -1.5 2 6
v -0.5 2 6
v 0.5 2 6
v 1.5 2 6
v -0.5 4 16
v 0.5 4 16
v -0.5 4 15
v 0.5 4 15
v -1.5 4 14
v -0.5 4 14
v 0.5 4 14
v 1.5 4 14
v -1.5 4 13
v -0.5 4 13
v 0.5 4 13
v 1.5 4 13
v -1.5 4 12
v -0.5 4 12
v 0.5 4 12
v 1.5 4 12
v -1.5 4 11
v -0.5 4 11
v 0.5 4 11
v 1.5 4 11
v -1.5 4 10
v -0.5 4 10
v 0.5 4 10
v 1.5 4 10
v -1.5 4 9
v -0.5 4 9
v 0.5 4 9
v 1.5 4 9
v -1.5 4 8
v -0.5 4 8
v 0.5 4 8
v 1.5 4 8
v -0.5 4 -4
v 0.5 4 -4
v -0.5 4 -7
v 0.5 4 -7
v -1.5 5 15
v 1.5 5 15
v -1.5 5 14
v -0.5 5 14
v 0.5 5 14
v 1.5 5 14
v -0.5 5 13
v 0.5 5 13
v -0.5 5 12
v 0.5 5 12
v -0.5 5 11
v 0.5 5 11
v -0.5 5 10
v 0.5 5 10
v -0.5 5 9
v 0.5 5 9
v -0.5 5 8
v 0.5 5 8
v -0.5 5 6
v 0.5 5 6
v -0.5 5 -4
v 0.5 5 -4
v -1.5 6 8
v 1.5 6 8
v -1.5 6 7
v 1.5 6 7
v -1.5 7 7
v 1.5 7 7
v -1.5 7 6
v 1.5 7 6

# faces
f 4/4/1 2/4/1 1/4/1
f 7/4/1 2/4/1 4/4/1
f 7/4/1 4/4/1 3/4/1
f 8/4/1 2/4/1 7/4/1
f 9/5/1 6/5/1 5/5/1
f 15/4/1 7/4/1 3/4/1
f 16/5/1 9/5/1 5/5/1
f 16/2/1 10/2/1 9/2/1
f 17/1/1 11/1/1 10/1/1
f 17/2/1 10/2/1 16/2/1
f 18/2/1 12/2/1 11/2/1
f 18/1/1 11/1/1 17/1/1
f 19/1/1 13/1/1 12/1/1
f 19/2/1 12/2/1 18/2/1
f 20/2/1 14/2/1 13/2/1
f 20/1/1 13/1/1 19/1/1
f 21/1/1 15/1/1 14/1/1
f 21/2/1 14/2/1 20/2/1
f 22/4/1 7/4/1 15/4/1
f 22/1/1 15/1/1 21/1/1
f 23/5/1 16/5/1 5/5/1
f 24/5/1 16/5/1 23/5/1
f 25/4/1 7/4/1 22/4/1
f 27/4/1 26/4/1 25/4/1
f 27/4/1 25/4/1 22/4/1
f 28/4/1 26/4/1 27/4/1
f 29/4/1 26/4/1 28/4/1
f 30/4/1 26/4/1 29/4/1
f 43/2/1 32/2/1 31/2/1
f 44/1/1 33/1/1 32/1/1
f 44/2/1 32/2/1 43/2/1
f 45/2/1 34/2/1 33/2/1
f 45/1/1 33/1/1 44/1/1
f 46/1/1 35/1/1 34/1/1
f 46/2/1 34/2/1 45/2/1
f 47/2/1 36/2/1 35/2/1
f 47/1/1 35/1/1 46/1/1
f 48/1/1 37/1/1 36/1/1
f 48/2/1 36/2/1 47/2/1
f 49/1/1 37/1/1 48/1/1
f 50/6/1 39/6/1 38/6/1
f 50/6/1 40/6/1 39/6/1
f 51/6/1 40/6/1 50/6/1
f 52/6/1 40/6/1 51/6/1
f 53/6/1 40/6/1 52/6/1
f 54/6/1 40/6/1 53/6/1
f 56/5/1 42/5/1 41/5/1
f 57/5/1 42/5/1 56/5/1
f 65/7/1 51/7/1 50/7/1
f 66/3/1 52/3/1 51/3/1
f 66/7/1 51/7/1 65/7/1
f 67/7/1 53/7/1 52/7/1
f 67/3/1 52/3/1 66/3/1
f 68/3/1 55/3/1 54/3/1
f 68/7/1 53/7/1 67/7/1
f 68/3/1 54/3/1 53/3/1
f 69/3/1 55/3/1 68/3/1
f 70/2/1 59/2/1 58/2/1
f 71/1/1 60/1/1 59/1/1
f 71/2/1 59/2/1 70/2/1
f 72/2/1 61/2/1 60/2/1
f 72/1/1 60/1/1 71/1/1
f 73/1/1 62/1/1 61/1/1
f 73/2/1 61/2/1 72/2/1
f 74/2/1 63/2/1 62/2/1
f 74/1/1 62/1/1 73/1/1
f 75/1/1 64/1/1 63/1/1
f 75/2/1 63/2/1 74/2/1
f 76/1/1 64/1/1 75/1/1
f 77/6/1 67/6/1 66/6/1
f 77/6/1 66/6/1 65/6/1
f 77/6/1 68/6/1 67/6/1
f 78/6/1 68/6/1 77/6/1
f 79/6/1 68/6/1 78/6/1
f 80/2/2 81/2/2 92/2/2
f 81/1/2 82/1/2 93/1/2
f 92/2/2 81/2/2 93/2/2
f 82/2/2 83/2/2 94/2/2
f 93/1/2 82/1/2 94/1/2
f 83/1/2 84/1/2 95/1/2
f 94/2/2 83/2/2 95/2/2
f 84/2/2 85/2/2 96/2/2
f 95/1/2 84/1/2 96/1/2
f 85/1/2 86/1/2 97/1/2
f 96/2/2 85/2/2 97/2/2
f 97/1/2 86/1/2 98/1/2
f 87/6/2 88/6/2 99/6/2
f 88/6/2 89/6/2 99/6/2
f 99/6/2 89/6/2 100/6/2
f 100/6/2 89/6/2 101/6/2
f 101/6/2 89/6/2 102/6/2
f 102/6/2 89/6/2 103/6/2
f 90/5/2 91/5/2 105/5/2
f 105/5/2 91/5/2 106/5/2
f 99/7/2 100/7/2 114/7/2
f 100/3/2 101/3/2 115/3/2
f 114/7/2 100/7/2 115/7/2
f 101/7/2 102/7/2 116/7/2
f 115/3/2 101/3/2 116/3/2
f 103/3/2 104/3/2 117/3/2
f 116/7/2 102/7/2 117/7/2
f 102/3/2 103/3/2 117/3/2
f 117/3/2 104/3/2 118/3/2
f 107/2/2 108/2/2 119/2/2
f 108/1/2 109/1/2 120/1/2
f 119/2/2 108/2/2 120/2/2
f 109/2/2 110/2/2 121/2/2
f 120/1/2 109/1/2 121/1/2
f 110/1/2 111/1/2 122/1/2
f 121/2/2 110/2/2 122/2/2
f 111/2/2 112/2/2 123/2/2
f 122/1/2 111/1/2 123/1/2
f 112/1/2 113/1/2 124/1/2
f 123/2/2 112/2/2 124/2/2
f 124/1/2 113/1/2 125/1/2
f 115/6/2 116/6/2 126/6/2
f 114/6/2 115/6/2 126/6/2
f 116/6/2 117/6/2 126/6/2
f 126/6/2 117/6/2 127/6/2
f 127/6/2 117/6/2 128/6/2
f 129/4/2 130/4/2 132/4/2
f 132/4/2 130/4/2 135/4/2
f 131/4/2 132/4/2 135/4/2
f 135/4/2 130/4/2 136/4/2
f 133/5/2 134/5/2 137/5/2
f 131/4/2 135/4/2 143/4/2
f 133/5/2 137/5/2 144/5/2
f 137/2/2 138/2/2 144/2/2
f 138/1/2 139/1/2 145/1/2
f 144/2/2 138/2/2 145/2/2
f 139/2/2 140/2/2 146/2/2
f 145/1/2 139/1/2 146/1/2
f 140/1/2 141/1/2 147/1/2
f 146/2/2 140/2/2 147/2/2
f 141/2/2 142/2/2 148/2/2
f 147/1/2 141/1/2 148/1/2
f 142/1/2 143/1/2 149/1/2
f 148/2/2 142/2/2 149/2/2
f 143/4/2 135/4/2 150/4/2
f 149/1/2 143/1/2 150/1/2
f 133/5/2 144/5/2 151/5/2
f 151/5/2 144/5/2 152/5/2
f 150/4/2 135/4/2 153/4/2
f 153/4/2 154/4/2 155/4/2
f 150/4/2 153/4/2 155/4/2
f 155/4/2 154/4/2 156/4/2
f 156/4/2 154/4/2 157/4/2
f 157/4/2 154/4/2 158/4/2
f 161/5/3 160/5/3 159/5/3
f 162/5/3 160/5/3 161/5/3
f 165/5/3 164/5/3 163/5/3
f 166/5/3 164/5/3 165/5/3
f 167/5/3 165/5/3 163/5/3
f 168/5/3 164/5/3 166/5/3
f 169/5/3 167/5/3 163/5/3
f 169/5/3 168/5/3 167/5/3
f 170/5/3 164/5/3 168/5/3
f 170/5/3 168/5/3 169/5/3
f 175/4/3 172/4/3 171/4/3
f 176/4/3 172/4/3 175/4/3
f 177/4/3 174/4/3 173/4/3
f 178/4/3 174/4/3 177/4/3
f 179/4/3 175/4/3 171/4/3
f 182/4/3 174/4/3 178/4/3
f 183/4/3 180/4/3 179/4/3
f 183/4/3 179/4/3 171/4/3
f 184/4/3 180/4/3 183/4/3
f 185/4/3 182/4/3 181/4/3
f 186/4/3 174/4/3 182/4/3
f 186/4/3 182/4/3 185/4/3
f 191/4/3 188/4/3 187/4/3
f 192/4/3 188/4/3 191/4/3
f 193/4/3 190/4/3 189/4/3
f 194/4/3 190/4/3 193/4/3
f 195/5/4 196/5/4 199/5/4
f 199/5/4 196/5/4 200/5/4
f 197/5/4 198/5/4 201/5/4
f 201/5/4 198/5/4 202/5/4
f 203/5/4 204/5/4 207/5/4
f 207/5/4 204/5/4 208/5/4
f 205/5/4 206/5/4 209/5/4
f 209/5/4 206/5/4 210/5/4
f 211/4/4 212/4/4 213/4/4
f 213/4/4 212/4/4 214/4/4
f 214/4/4 212/4/4 215/4/4
f 215/4/4 212/4/4 216/4/4
f 217/4/4 218/4/4 221/4/4
f 219/4/4 220/4/4 221/4/4
f 218/4/4 219/4/4 221/4/4
f 221/4/4 220/4/4 222/4/4
f 223/4/4 224/4/4 227/4/4
f 225/4/4 226/4/4 228/4/4
f 223/4/4 227/4/4 229/4/4
f 228/4/4 226/4/4 230/4/4
f 223/4/4 229/4/4 231/4/4
f 231/4/4 229/4/4 232/4/4
f 230/4/4 226/4/4 233/4/4
f 233/4/4 226/4/4 234/4/4
f 235/6/4 236/6/4 237/6/4
f 237/6/4 236/6/4 238/6/4
f 239/6/4 240/6/4 241/6/4
f 241/6/4 240/6/4 242/6/4
f 243/3/4 244/3/4 245/3/4
f 245/3/4 244/3/4 246/3/4
f 249/4/5 248/4/5 247/4/5
f 250/4/5 248/4/5 249/4/5
f 253/4/5 252/4/5 251/4/5
f 254/4/5 252/4/5 253/4/5
f 257/5/5 256/5/5 255/5/5
f 258/5/5 256/5/5 257/5/5
f 259/5/5 256/5/5 258/5/5
f 260/5/5 256/5/5 259/5/5
f 261/2/5 259/2/5 258/2/5
f 262/2/5 259/2/5 261/2/5
f 263/1/5 262/1/5 261/1/5
f 264/1/5 262/1/5 263/1/5
f 265/2/5 264/2/5 263/2/5
f 266/2/5 264/2/5 265/2/5
f 267/1/5 266/1/5 265/1/5
f 268/1/5 266/1/5 267/1/5
f 269/2/5 268/2/5 267/2/5
f 270/2/5 268/2/5 269/2/5
f 271/1/5 270/1/5 269/1/5
f 272/1/5 270/1/5 271/1/5
f 275/6/5 274/6/5 273/6/5
f 276/6/5 274/6/5 275/6/5
f 279/5/5 278/5/5 277/5/5
f 280/5/5 278/5/5 279/5/5
f 285/2/5 282/2/5 281/2/5
f 286/2/5 282/2/5 285/2/5
f 287/2/5 284/2/5 283/2/5
f 288/2/5 284/2/5 287/2/5
f 289/1/5 286/1/5 285/1/5
f 290/1/5 286/1/5 289/1/5
f 291/1/5 288/1/5 287/1/5
f 292/1/5 288/1/5 291/1/5
f 293/2/5 290/2/5 289/2/5
f 294/2/5 290/2/5 293/2/5
f 295/2/5 292/2/5 291/2/5
f 296/2/5 292/2/5 295/2/5
f 297/1/5 294/1/5 293/1/5
f 298/1/5 294/1/5 297/1/5
f 299/1/5 296/1/5 295/1/5
f 300/1/5 296/1/5 299/1/5
f 301/2/5 298/2/5 297/2/5
f 302/2/5 298/2/5 301/2/5
f 303/2/5 300/2/5 299/2/5
f 304/2/5 300/2/5 303/2/5
f 305/1/5 302/1/5 301/1/5
f 306/1/5 302/1/5 305/1/5
f 307/1/5 304/1/5 303/1/5
f 308/1/5 304/1/5 307/1/5
f 311/3/5 310/3/5 309/3/5
f 312/3/5 310/3/5 311/3/5
f 317/4/5 314/4/5 313/4/5
f 318/4/5 314/4/5 317/4/5
f 319/4/5 316/4/5 315/4/5
f 320/4/5 316/4/5 319/4/5
f 321/4/6 322/4/6 325/4/6
f 325/4/6 322/4/6 326/4/6
f 323/4/6 324/4/6 327/4/6
f 327/4/6 324/4/6 328/4/6
f 329/5/6 330/5/6 331/5/6
f 331/5/6 330/5/6 332/5/6
f 333/2/6 334/2/6 337/2/6
f 337/2/6 334/2/6 338/2/6
f 335/2/6 336/2/6 339/2/6
f 339/2/6 336/2/6 340/2/6
f 337/1/6 338/1/6 341/1/6
f 341/1/6 338/1/6 342/1/6
f 339/1/6 340/1/6 343/1/6
f 343/1/6 340/1/6 344/1/6
f 341/2/6 342/2/6 345/2/6
f 345/2/6 342/2/6 346/2/6
f 343/2/6 344/2/6 347/2/6
f 347/2/6 344/2/6 348/2/6
f 345/1/6 346/1/6 349/1/6
f 349/1/6 346/1/6 350/1/6
f 347/1/6 348/1/6 351/1/6
f 351/1/6 348/1/6 352/1/6
f 349/2/6 350/2/6 353/2/6
f 353/2/6 350/2/6 354/2/6
f 351/2/6 352/2/6 355/2/6
f 355/2/6 352/2/6 356/2/6
f 353/1/6 354/1/6 357/1/6
f 357/1/6 354/1/6 358/1/6
f 355/1/6 356/1/6 359/1/6
f 359/1/6 356/1/6 360/1/6
f 361/3/6 362/3/6 363/3/6
f 363/3/6 362/3/6 364/3/6
f 365/5/6 366/5/6 367/5/6
f 367/5/6 366/5/6 368/5/6
f 368/5/6 366/5/6 369/5/6
f 369/5/6 366/5/6 370/5/6
f 368/2/6 369/2/6 371/2/6
f 371/2/6 369/2/6 372/2/6
f 371/1/6 372/1/6 373/1/6
f 373/1/6 372/1/6 374/1/6
f 373/2/6 374/2/6 375/2/6
f 375/2/6 374/2/6 376/2/6
f 375/1/6 376/1/6 377/1/6
f 377/1/6 376/1/6 378/1/6
f 377/2/6 378/2/6 379/2/6
f 379/2/6 378/2/6 380/2/6
f 379/1/6 380/1/6 381/1/6
f 381/1/6 380/1/6 382/1/6
f 383/6/6 384/6/6 385/6/6
f 385/6/6 384/6/6 386/6/6
f 387/4/6 388/4/6 389/4/6
f 389/4/6 388/4/6 390/4/6
f 391/4/6 392/4/6 393/4/6
f 393/4/6 392/4/6 394/4/6
