# MagicaVoxel @ ephtracy

# material
mtllib fireball.mtl
usemtl palette

# normals
vn -1 0 0
vn 1 0 0
vn 0 0 1
vn 0 0 -1
vn 0 -1 0
vn 0 1 0

# texcoords
vt 0.0175781 0.5
vt 0.0644531 0.5
vt 0.849609 0.5

# verts
v -2.5 1 3
v -2.5 1 1
v -2.5 2 1
v -2.5 2 -0
v -2.5 3 3
v -2.5 3 2
v -2.5 3 1
v -2.5 3 -0
v -2.5 4 3
v -2.5 4 2
v -2.5 4 1
v -1.5 0 3
v -1.5 0 2
v -1.5 0 1
v -1.5 1 4
v -1.5 1 3
v -1.5 1 2
v -1.5 1 1
v -1.5 1 -0
v -1.5 2 1
v -1.5 2 -0
v -1.5 2 -2
v -1.5 3 3
v -1.5 3 1
v -1.5 3 -0
v -1.5 3 -2
v -1.5 4 4
v -1.5 4 3
v -1.5 4 2
v -1.5 4 1
v -1.5 4 -0
v -1.5 5 3
v -1.5 5 1
v -0.5 0 1
v -0.5 0 -0
v -0.5 1 1
v -0.5 1 -0
v -0.5 1 -2
v -0.5 2 -0
v -0.5 2 -2
v -0.5 2 -4
v -0.5 3 -0
v -0.5 3 -2
v -0.5 3 -4
v -0.5 4 1
v -0.5 4 -0
v -0.5 4 -2
v -0.5 5 1
v -0.5 5 -0
v 0.5 0 1
v 0.5 0 -0
v 0.5 1 1
v 0.5 1 -0
v 0.5 1 -2
v 0.5 2 -0
v 0.5 2 -2
v 0.5 2 -4
v 0.5 3 -0
v 0.5 3 -2
v 0.5 3 -4
v 0.5 4 1
v 0.5 4 -0
v 0.5 4 -2
v 0.5 5 1
v 0.5 5 -0
v 1.5 0 3
v 1.5 0 1
v 1.5 1 4
v 1.5 1 3
v 1.5 1 1
v 1.5 1 -0
v 1.5 2 3
v 1.5 2 1
v 1.5 2 -0
v 1.5 2 -2
v 1.5 3 1
v 1.5 3 -0
v 1.5 3 -2
v 1.5 4 4
v 1.5 4 3
v 1.5 4 2
v 1.5 4 1
v 1.5 4 -0
v 1.5 5 3
v 1.5 5 1
v 2.5 1 3
v 2.5 1 1
v 2.5 2 3
v 2.5 2 2
v 2.5 2 1
v 2.5 2 -0
v 2.5 3 1
v 2.5 3 -0
v 2.5 4 3
v 2.5 4 2
v 2.5 4 1
v -1.5 1 4
v -1.5 4 4
v -0.5 2 4
v -0.5 3 4
v 0.5 2 4
v 0.5 3 4
v 1.5 1 4
v 1.5 4 4
v -2.5 1 3
v -2.5 3 3
v -2.5 4 3
v -1.5 0 3
v -1.5 1 3
v -1.5 3 3
v -1.5 4 3
v -1.5 5 3
v -0.5 4 3
v -0.5 5 3
v 0.5 0 3
v 0.5 1 3
v 0.5 4 3
v 0.5 5 3
v 1.5 0 3
v 1.5 1 3
v 1.5 2 3
v 1.5 4 3
v 1.5 5 3
v 2.5 1 3
v 2.5 2 3
v 2.5 4 3
v -2.5 1 1
v -2.5 2 1
v -2.5 3 1
v -2.5 4 1
v -1.5 0 1
v -1.5 1 1
v -1.5 2 1
v -1.5 3 1
v -1.5 4 1
v -1.5 5 1
v -0.5 0 1
v -0.5 1 1
v -0.5 4 1
v -0.5 5 1
v 0.5 0 1
v 0.5 1 1
v 0.5 4 1
v 0.5 5 1
v 1.5 0 1
v 1.5 1 1
v 1.5 2 1
v 1.5 3 1
v 1.5 4 1
v 1.5 5 1
v 2.5 1 1
v 2.5 2 1
v 2.5 3 1
v 2.5 4 1
v -2.5 2 -0
v -2.5 3 -0
v -1.5 1 -0
v -1.5 2 -0
v -1.5 3 -0
v -1.5 4 -0
v -0.5 0 -0
v -0.5 1 -0
v -0.5 2 -0
v -0.5 3 -0
v -0.5 4 -0
v -0.5 5 -0
v 0.5 0 -0
v 0.5 1 -0
v 0.5 2 -0
v 0.5 3 -0
v 0.5 4 -0
v 0.5 5 -0
v 1.5 1 -0
v 1.5 2 -0
v 1.5 3 -0
v 1.5 4 -0
v 2.5 2 -0
v 2.5 3 -0
v -1.5 2 -2
v -1.5 3 -2
v -0.5 1 -2
v -0.5 2 -2
v -0.5 3 -2
v -0.5 4 -2
v 0.5 1 -2
v 0.5 2 -2
v 0.5 3 -2
v 0.5 4 -2
v 1.5 2 -2
v 1.5 3 -2
v -0.5 2 -4
v -0.5 3 -4
v 0.5 2 -4
v 0.5 3 -4
v -1.5 0 3
v 0.5 0 3
v 1.5 0 3
v -1.5 0 2
v 0.5 0 2
v -1.5 0 1
v -0.5 0 1
v 0.5 0 1
v 1.5 0 1
v -0.5 0 -0
v 0.5 0 -0
v -1.5 1 4
v 1.5 1 4
v -2.5 1 3
v -1.5 1 3
v 0.5 1 3
v 1.5 1 3
v 2.5 1 3
v -1.5 1 2
v -2.5 1 1
v -1.5 1 1
v -0.5 1 1
v 0.5 1 1
v 1.5 1 1
v 2.5 1 1
v -1.5 1 -0
v -0.5 1 -0
v 0.5 1 -0
v 1.5 1 -0
v -0.5 1 -2
v 0.5 1 -2
v -2.5 2 1
v -1.5 2 1
v 1.5 2 1
v 2.5 2 1
v -2.5 2 -0
v -1.5 2 -0
v -0.5 2 -0
v 0.5 2 -0
v 1.5 2 -0
v 2.5 2 -0
v -1.5 2 -2
v -0.5 2 -2
v 0.5 2 -2
v 1.5 2 -2
v -0.5 2 -4
v 0.5 2 -4
v -2.5 3 1
v -1.5 3 1
v 1.5 3 1
v 2.5 3 1
v -2.5 3 -0
v -1.5 3 -0
v -0.5 3 -0
v 0.5 3 -0
v 1.5 3 -0
v 2.5 3 -0
v -1.5 3 -2
v -0.5 3 -2
v 0.5 3 -2
v 1.5 3 -2
v -0.5 3 -4
v 0.5 3 -4
v -1.5 4 4
v 1.5 4 4
v -2.5 4 3
v -1.5 4 3
v -0.5 4 3
v 0.5 4 3
v 1.5 4 3
v 2.5 4 3
v -2.5 4 2
v -1.5 4 2
v 1.5 4 2
v 2.5 4 2
v -2.5 4 1
v -1.5 4 1
v -0.5 4 1
v 0.5 4 1
v 1.5 4 1
v 2.5 4 1
v -1.5 4 -0
v -0.5 4 -0
v 0.5 4 -0
v 1.5 4 -0
v -0.5 4 -2
v 0.5 4 -2
v -1.5 5 3
v -0.5 5 3
v 0.5 5 3
v 1.5 5 3
v -0.5 5 2
v 0.5 5 2
v -1.5 5 1
v -0.5 5 1
v 0.5 5 1
v 1.5 5 1
v -0.5 5 -0
v 0.5 5 -0

# faces
f 3/3/1 2/3/1 1/3/1
f 5/3/1 3/3/1 1/3/1
f 5/3/1 4/3/1 3/3/1
f 6/3/1 4/3/1 5/3/1
f 7/3/1 4/3/1 6/3/1
f 8/3/1 4/3/1 7/3/1
f 9/2/1 6/2/1 5/2/1
f 10/3/1 7/3/1 6/3/1
f 10/2/1 6/2/1 9/2/1
f 11/3/1 7/3/1 10/3/1
f 16/2/1 13/2/1 12/2/1
f 17/3/1 14/3/1 13/3/1
f 17/2/1 13/2/1 16/2/1
f 18/3/1 14/3/1 17/3/1
f 20/3/1 19/3/1 18/3/1
f 21/3/1 19/3/1 20/3/1
f 23/2/1 16/2/1 15/2/1
f 25/3/1 22/3/1 21/3/1
f 26/3/1 22/3/1 25/3/1
f 27/2/1 23/2/1 15/2/1
f 28/2/1 23/2/1 27/2/1
f 30/3/1 25/3/1 24/3/1
f 31/3/1 25/3/1 30/3/1
f 32/3/1 29/3/1 28/3/1
f 32/3/1 30/3/1 29/3/1
f 33/3/1 30/3/1 32/3/1
f 36/3/1 35/3/1 34/3/1
f 37/3/1 35/3/1 36/3/1
f 39/3/1 38/3/1 37/3/1
f 40/3/1 38/3/1 39/3/1
f 43/3/1 41/3/1 40/3/1
f 44/3/1 41/3/1 43/3/1
f 46/3/1 43/3/1 42/3/1
f 47/3/1 43/3/1 46/3/1
f 48/3/1 46/3/1 45/3/1
f 49/3/1 46/3/1 48/3/1
f 50/3/2 51/3/2 52/3/2
f 52/3/2 51/3/2 53/3/2
f 53/3/2 54/3/2 55/3/2
f 55/3/2 54/3/2 56/3/2
f 56/3/2 57/3/2 59/3/2
f 59/3/2 57/3/2 60/3/2
f 58/3/2 59/3/2 62/3/2
f 62/3/2 59/3/2 63/3/2
f 61/3/2 62/3/2 64/3/2
f 64/3/2 62/3/2 65/3/2
f 66/3/2 67/3/2 69/3/2
f 69/3/2 67/3/2 70/3/2
f 68/2/2 69/2/2 72/2/2
f 70/3/2 71/3/2 73/3/2
f 73/3/2 71/3/2 74/3/2
f 74/3/2 75/3/2 77/3/2
f 77/3/2 75/3/2 78/3/2
f 68/2/2 72/2/2 79/2/2
f 79/2/2 72/2/2 80/2/2
f 76/3/2 77/3/2 82/3/2
f 82/3/2 77/3/2 83/3/2
f 80/3/2 81/3/2 84/3/2
f 81/3/2 82/3/2 84/3/2
f 84/3/2 82/3/2 85/3/2
f 86/3/2 87/3/2 88/3/2
f 88/3/2 87/3/2 89/3/2
f 89/3/2 87/3/2 90/3/2
f 89/3/2 90/3/2 92/3/2
f 90/3/2 91/3/2 92/3/2
f 92/3/2 91/3/2 93/3/2
f 88/2/2 89/2/2 94/2/2
f 89/3/2 92/3/2 95/3/2
f 94/2/2 89/2/2 95/2/2
f 95/3/2 92/3/2 96/3/2
f 99/2/3 98/2/3 97/2/3
f 100/2/3 98/2/3 99/2/3
f 101/2/3 99/2/3 97/2/3
f 101/1/3 100/1/3 99/1/3
f 102/2/3 98/2/3 100/2/3
f 102/1/3 100/1/3 101/1/3
f 103/2/3 101/2/3 97/2/3
f 103/2/3 102/2/3 101/2/3
f 104/2/3 98/2/3 102/2/3
f 104/2/3 102/2/3 103/2/3
f 109/3/3 106/3/3 105/3/3
f 110/2/3 107/2/3 106/2/3
f 110/3/3 106/3/3 109/3/3
f 111/2/3 107/2/3 110/2/3
f 113/3/3 112/3/3 111/3/3
f 114/3/3 112/3/3 113/3/3
f 115/2/3 109/2/3 108/2/3
f 116/2/3 109/2/3 115/2/3
f 117/2/3 114/2/3 113/2/3
f 118/2/3 114/2/3 117/2/3
f 119/3/3 116/3/3 115/3/3
f 120/3/3 116/3/3 119/3/3
f 122/3/3 118/3/3 117/3/3
f 123/3/3 118/3/3 122/3/3
f 124/3/3 121/3/3 120/3/3
f 125/2/3 122/2/3 121/2/3
f 125/3/3 121/3/3 124/3/3
f 126/2/3 122/2/3 125/2/3
f 127/3/4 128/3/4 132/3/4
f 132/3/4 128/3/4 133/3/4
f 129/3/4 130/3/4 134/3/4
f 134/3/4 130/3/4 135/3/4
f 131/3/4 132/3/4 137/3/4
f 137/3/4 132/3/4 138/3/4
f 135/3/4 136/3/4 139/3/4
f 139/3/4 136/3/4 140/3/4
f 141/3/4 142/3/4 145/3/4
f 145/3/4 142/3/4 146/3/4
f 143/3/4 144/3/4 149/3/4
f 149/3/4 144/3/4 150/3/4
f 146/3/4 147/3/4 151/3/4
f 151/3/4 147/3/4 152/3/4
f 148/3/4 149/3/4 153/3/4
f 153/3/4 149/3/4 154/3/4
f 155/3/4 156/3/4 158/3/4
f 158/3/4 156/3/4 159/3/4
f 157/3/4 158/3/4 162/3/4
f 162/3/4 158/3/4 163/3/4
f 159/3/4 160/3/4 164/3/4
f 164/3/4 160/3/4 165/3/4
f 161/3/4 162/3/4 167/3/4
f 167/3/4 162/3/4 168/3/4
f 165/3/4 166/3/4 171/3/4
f 171/3/4 166/3/4 172/3/4
f 168/3/4 169/3/4 173/3/4
f 173/3/4 169/3/4 174/3/4
f 170/3/4 171/3/4 175/3/4
f 175/3/4 171/3/4 176/3/4
f 174/3/4 175/3/4 177/3/4
f 177/3/4 175/3/4 178/3/4
f 179/3/4 180/3/4 182/3/4
f 182/3/4 180/3/4 183/3/4
f 181/3/4 182/3/4 185/3/4
f 185/3/4 182/3/4 186/3/4
f 183/3/4 184/3/4 187/3/4
f 187/3/4 184/3/4 188/3/4
f 186/3/4 187/3/4 189/3/4
f 189/3/4 187/3/4 190/3/4
f 191/3/4 192/3/4 193/3/4
f 193/3/4 192/3/4 194/3/4
f 198/2/5 196/2/5 195/2/5
f 199/3/5 197/3/5 196/3/5
f 199/2/5 196/2/5 198/2/5
f 200/3/5 199/3/5 198/3/5
f 201/3/5 199/3/5 200/3/5
f 202/3/5 197/3/5 199/3/5
f 202/3/5 199/3/5 201/3/5
f 203/3/5 197/3/5 202/3/5
f 204/3/5 202/3/5 201/3/5
f 205/3/5 202/3/5 204/3/5
f 209/2/5 207/2/5 206/2/5
f 210/2/5 207/2/5 209/2/5
f 211/2/5 207/2/5 210/2/5
f 213/3/5 209/3/5 208/3/5
f 214/3/5 213/3/5 208/3/5
f 215/3/5 213/3/5 214/3/5
f 218/3/5 212/3/5 211/3/5
f 219/3/5 212/3/5 218/3/5
f 220/3/5 216/3/5 215/3/5
f 221/3/5 216/3/5 220/3/5
f 222/3/5 218/3/5 217/3/5
f 223/3/5 218/3/5 222/3/5
f 224/3/5 222/3/5 221/3/5
f 225/3/5 222/3/5 224/3/5
f 230/3/5 227/3/5 226/3/5
f 231/3/5 227/3/5 230/3/5
f 234/3/5 229/3/5 228/3/5
f 235/3/5 229/3/5 234/3/5
f 236/3/5 232/3/5 231/3/5
f 237/3/5 232/3/5 236/3/5
f 238/3/5 234/3/5 233/3/5
f 239/3/5 234/3/5 238/3/5
f 240/3/5 238/3/5 237/3/5
f 241/3/5 238/3/5 240/3/5
f 242/3/6 243/3/6 246/3/6
f 246/3/6 243/3/6 247/3/6
f 244/3/6 245/3/6 250/3/6
f 250/3/6 245/3/6 251/3/6
f 247/3/6 248/3/6 252/3/6
f 252/3/6 248/3/6 253/3/6
f 249/3/6 250/3/6 254/3/6
f 254/3/6 250/3/6 255/3/6
f 253/3/6 254/3/6 256/3/6
f 256/3/6 254/3/6 257/3/6
f 258/2/6 259/2/6 261/2/6
f 261/2/6 259/2/6 262/2/6
f 262/2/6 259/2/6 263/2/6
f 263/2/6 259/2/6 264/2/6
f 260/2/6 261/2/6 266/2/6
f 266/2/6 261/2/6 267/2/6
f 264/2/6 265/2/6 268/2/6
f 268/2/6 265/2/6 269/2/6
f 266/3/6 267/3/6 270/3/6
f 270/3/6 267/3/6 271/3/6
f 268/3/6 269/3/6 274/3/6
f 274/3/6 269/3/6 275/3/6
f 271/3/6 272/3/6 276/3/6
f 276/3/6 272/3/6 277/3/6
f 273/3/6 274/3/6 278/3/6
f 278/3/6 274/3/6 279/3/6
f 277/3/6 278/3/6 280/3/6
f 280/3/6 278/3/6 281/3/6
f 282/3/6 283/3/6 286/3/6
f 283/2/6 284/2/6 286/2/6
f 284/3/6 285/3/6 287/3/6
f 286/2/6 284/2/6 287/2/6
f 282/3/6 286/3/6 288/3/6
f 286/3/6 287/3/6 288/3/6
f 288/3/6 287/3/6 289/3/6
f 287/3/6 285/3/6 290/3/6
f 289/3/6 287/3/6 290/3/6
f 290/3/6 285/3/6 291/3/6
f 289/3/6 290/3/6 292/3/6
f 292/3/6 290/3/6 293/3/6
