# MagicaVoxel @ ephtracy

# material
mtllib foot.mtl
usemtl palette

# normals
vn -1 0 0
vn 1 0 0
vn 0 0 1
vn 0 0 -1
vn 0 -1 0
vn 0 1 0

# texcoords
vt 0.119141 0.5
vt 0.310547 0.5
vt 0.341797 0.5
vt 0.951172 0.5

# verts
v -2 0 3.5
v -2 0 -2.5
v -2 1 3.5
v -2 1 -1.5
v -2 1 -2.5
v -2 2 3.5
v -2 2 -1.5
v -2 2 -2.5
v -2 3 3.5
v -2 3 -1.5
v -1 0 -2.5
v -1 0 -3.5
v -1 1 -2.5
v -1 1 -3.5
v -1 2 -1.5
v -1 2 -2.5
v -1 2 -3.5
v -1 3 -1.5
v -1 3 -2.5
v 1 0 -2.5
v 1 0 -3.5
v 1 1 -2.5
v 1 1 -3.5
v 1 2 -1.5
v 1 2 -2.5
v 1 2 -3.5
v 1 3 -1.5
v 1 3 -2.5
v 2 0 3.5
v 2 0 -2.5
v 2 1 3.5
v 2 1 -1.5
v 2 1 -2.5
v 2 2 3.5
v 2 2 -1.5
v 2 2 -2.5
v 2 3 3.5
v 2 3 -1.5
v -2 0 3.5
v -2 1 3.5
v -2 2 3.5
v -2 3 3.5
v 2 0 3.5
v 2 1 3.5
v 2 2 3.5
v 2 3 3.5
v -2 2 -1.5
v -2 3 -1.5
v -1 2 -1.5
v -1 3 -1.5
v 1 2 -1.5
v 1 3 -1.5
v 2 2 -1.5
v 2 3 -1.5
v -2 0 -2.5
v -2 1 -2.5
v -2 2 -2.5
v -1 0 -2.5
v -1 1 -2.5
v -1 2 -2.5
v -1 3 -2.5
v 1 0 -2.5
v 1 1 -2.5
v 1 2 -2.5
v 1 3 -2.5
v 2 0 -2.5
v 2 1 -2.5
v 2 2 -2.5
v -1 0 -3.5
v -1 1 -3.5
v -1 2 -3.5
v 1 0 -3.5
v 1 1 -3.5
v 1 2 -3.5
v -2 0 3.5
v 2 0 3.5
v -2 0 -2.5
v -1 0 -2.5
v 1 0 -2.5
v 2 0 -2.5
v -1 0 -3.5
v 1 0 -3.5
v -2 2 -1.5
v -1 2 -1.5
v 1 2 -1.5
v 2 2 -1.5
v -2 2 -2.5
v -1 2 -2.5
v 1 2 -2.5
v 2 2 -2.5
v -1 2 -3.5
v 1 2 -3.5
v -2 3 3.5
v 2 3 3.5
v -2 3 -1.5
v -1 3 -1.5
v 1 3 -1.5
v 2 3 -1.5
v -1 3 -2.5
v 1 3 -2.5

# faces
f 3/4/1 2/4/1 1/4/1
f 4/4/1 2/4/1 3/4/1
f 5/4/1 2/4/1 4/4/1
f 6/2/1 4/2/1 3/2/1
f 7/3/1 5/3/1 4/3/1
f 7/2/1 4/2/1 6/2/1
f 8/3/1 5/3/1 7/3/1
f 9/3/1 7/3/1 6/3/1
f 10/3/1 7/3/1 9/3/1
f 13/4/1 12/4/1 11/4/1
f 14/4/1 12/4/1 13/4/1
f 16/3/1 14/3/1 13/3/1
f 17/3/1 14/3/1 16/3/1
f 18/3/1 16/3/1 15/3/1
f 19/3/1 16/3/1 18/3/1
f 20/4/2 21/4/2 22/4/2
f 22/4/2 21/4/2 23/4/2
f 22/3/2 23/3/2 25/3/2
f 25/3/2 23/3/2 26/3/2
f 24/3/2 25/3/2 27/3/2
f 27/3/2 25/3/2 28/3/2
f 29/4/2 30/4/2 31/4/2
f 31/4/2 30/4/2 32/4/2
f 32/4/2 30/4/2 33/4/2
f 31/2/2 32/2/2 34/2/2
f 32/3/2 33/3/2 35/3/2
f 34/2/2 32/2/2 35/2/2
f 35/3/2 33/3/2 36/3/2
f 34/3/2 35/3/2 37/3/2
f 37/3/2 35/3/2 38/3/2
f 43/4/3 40/4/3 39/4/3
f 44/2/3 41/2/3 40/2/3
f 44/4/3 40/4/3 43/4/3
f 45/3/3 42/3/3 41/3/3
f 45/2/3 41/2/3 44/2/3
f 46/3/3 42/3/3 45/3/3
f 47/3/4 48/3/4 49/3/4
f 49/3/4 48/3/4 50/3/4
f 51/3/4 52/3/4 53/3/4
f 53/3/4 52/3/4 54/3/4
f 55/4/4 56/4/4 58/4/4
f 56/3/4 57/3/4 59/3/4
f 58/4/4 56/4/4 59/4/4
f 59/3/4 57/3/4 60/3/4
f 60/3/4 61/3/4 64/3/4
f 64/3/4 61/3/4 65/3/4
f 62/4/4 63/4/4 66/4/4
f 63/3/4 64/3/4 67/3/4
f 66/4/4 63/4/4 67/4/4
f 67/3/4 64/3/4 68/3/4
f 69/4/4 70/4/4 72/4/4
f 70/3/4 71/3/4 73/3/4
f 72/4/4 70/4/4 73/4/4
f 73/3/4 71/3/4 74/3/4
f 77/4/5 76/4/5 75/4/5
f 78/4/5 76/4/5 77/4/5
f 79/4/5 76/4/5 78/4/5
f 80/4/5 76/4/5 79/4/5
f 81/4/5 79/4/5 78/4/5
f 82/4/5 79/4/5 81/4/5
f 83/3/6 84/3/6 87/3/6
f 87/3/6 84/3/6 88/3/6
f 85/3/6 86/3/6 89/3/6
f 89/3/6 86/3/6 90/3/6
f 88/3/6 89/3/6 91/3/6
f 91/3/6 89/3/6 92/3/6
f 93/3/6 94/3/6 95/3/6
f 95/3/6 94/3/6 96/3/6
f 96/3/6 94/3/6 97/3/6
f 97/3/6 94/3/6 98/3/6
f 96/3/6 97/3/6 99/3/6
f 99/3/6 97/3/6 100/3/6
