# MagicaVoxel @ ephtracy

# material
mtllib grassStone.mtl
usemtl palette

# normals
vn -1 0 0
vn 1 0 0
vn 0 0 1
vn 0 0 -1
vn 0 -1 0
vn 0 1 0

# texcoords
vt 0.505859 0.5
vt 0.525391 0.5
vt 0.564453 0.5
vt 0.568359 0.5
vt 0.931641 0.5
vt 0.943359 0.5
vt 0.951172 0.5
vt 0.986328 0.5

# verts
v -8 0 8
v -8 0 -8
v -8 15 8
v -8 15 -8
v -8 16 8
v -8 16 -8
v 3 15 3
v 3 15 -3
v 3 16 3
v 3 16 -3
v 4 15 8
v 4 15 3
v 4 15 -3
v 4 15 -8
v 4 16 8
v 4 16 3
v 4 16 -3
v 4 16 -8
v 2 15 4
v 2 15 -4
v 2 16 4
v 2 16 -4
v 3 15 8
v 3 15 4
v 3 15 -4
v 3 15 -8
v 3 16 8
v 3 16 4
v 3 16 -4
v 3 16 -8
v 8 0 8
v 8 0 -8
v 8 15 8
v 8 15 -3
v 8 15 -4
v 8 15 -8
v 8 16 8
v 8 16 -3
v 8 16 -4
v 8 16 -8
v -8 0 8
v -8 15 8
v -8 16 8
v 3 14 8
v 3 15 8
v 3 16 8
v 4 14 8
v 4 15 8
v 4 16 8
v 8 0 8
v 8 15 8
v 8 16 8
v 3 15 3
v 3 16 3
v 4 15 3
v 4 16 3
v 2 15 -4
v 2 16 -4
v 3 15 -4
v 3 16 -4
v 2 15 4
v 2 16 4
v 3 15 4
v 3 16 4
v 3 15 -3
v 3 16 -3
v 4 15 -3
v 4 16 -3
v -8 0 -8
v -8 15 -8
v -8 16 -8
v 3 14 -8
v 3 15 -8
v 3 16 -8
v 4 14 -8
v 4 15 -8
v 4 16 -8
v 8 0 -8
v 8 15 -8
v 8 16 -8
v -8 0 8
v 8 0 8
v -8 0 -8
v 8 0 -8
v 3 15 8
v 4 15 8
v 2 15 4
v 3 15 4
v 3 15 3
v 4 15 3
v 3 15 -3
v 4 15 -3
v 2 15 -4
v 3 15 -4
v 3 15 -8
v 4 15 -8
v -8 16 8
v 3 16 8
v 4 16 8
v 8 16 8
v -5 16 6
v -2 16 6
v 5 16 6
v 7 16 6
v -5 16 5
v -2 16 5
v 5 16 5
v 7 16 5
v -1 16 4
v 1 16 4
v 2 16 4
v 3 16 4
v -1 16 3
v 1 16 3
v 3 16 3
v 4 16 3
v -6 16 1
v -2 16 1
v -6 16 -1
v -2 16 -1
v 3 16 -3
v 4 16 -3
v 5 16 -3
v 8 16 -3
v -2 16 -4
v 1 16 -4
v 2 16 -4
v 3 16 -4
v 5 16 -4
v 8 16 -4
v -6 16 -5
v -3 16 -5
v -2 16 -5
v 1 16 -5
v -6 16 -6
v -3 16 -6
v -8 16 -8
v 3 16 -8
v 4 16 -8
v 8 16 -8

# faces
f 3/5/1 2/5/1 1/5/1
f 4/5/1 2/5/1 3/5/1
f 5/8/1 4/8/1 3/8/1
f 6/8/1 4/8/1 5/8/1
f 9/3/1 8/3/1 7/3/1
f 10/3/1 8/3/1 9/3/1
f 15/4/1 12/4/1 11/4/1
f 16/4/1 12/4/1 15/4/1
f 17/4/1 14/4/1 13/4/1
f 18/4/1 14/4/1 17/4/1
f 19/8/2 20/8/2 21/8/2
f 21/8/2 20/8/2 22/8/2
f 23/8/2 24/8/2 27/8/2
f 27/8/2 24/8/2 28/8/2
f 25/8/2 26/8/2 29/8/2
f 29/8/2 26/8/2 30/8/2
f 31/5/2 32/5/2 33/5/2
f 33/5/2 32/5/2 34/5/2
f 34/5/2 32/5/2 35/5/2
f 35/5/2 32/5/2 36/5/2
f 33/4/2 34/4/2 37/4/2
f 34/2/2 35/2/2 38/2/2
f 37/4/2 34/4/2 38/4/2
f 35/4/2 36/4/2 39/4/2
f 38/2/2 35/2/2 39/2/2
f 39/4/2 36/4/2 40/4/2
f 44/5/3 42/5/3 41/5/3
f 45/8/3 43/8/3 42/8/3
f 45/5/3 42/5/3 44/5/3
f 46/8/3 43/8/3 45/8/3
f 47/5/3 44/5/3 41/5/3
f 47/8/3 45/8/3 44/8/3
f 48/8/3 45/8/3 47/8/3
f 50/5/3 47/5/3 41/5/3
f 50/5/3 48/5/3 47/5/3
f 51/4/3 49/4/3 48/4/3
f 51/5/3 48/5/3 50/5/3
f 52/4/3 49/4/3 51/4/3
f 55/3/3 54/3/3 53/3/3
f 56/3/3 54/3/3 55/3/3
f 59/8/3 58/8/3 57/8/3
f 60/8/3 58/8/3 59/8/3
f 61/8/4 62/8/4 63/8/4
f 63/8/4 62/8/4 64/8/4
f 65/3/4 66/3/4 67/3/4
f 67/3/4 66/3/4 68/3/4
f 69/5/4 70/5/4 72/5/4
f 70/8/4 71/8/4 73/8/4
f 72/5/4 70/5/4 73/5/4
f 73/8/4 71/8/4 74/8/4
f 69/5/4 72/5/4 75/5/4
f 72/8/4 73/8/4 75/8/4
f 75/8/4 73/8/4 76/8/4
f 69/5/4 75/5/4 78/5/4
f 75/5/4 76/5/4 78/5/4
f 76/4/4 77/4/4 79/4/4
f 78/5/4 76/5/4 79/5/4
f 79/4/4 77/4/4 80/4/4
f 83/5/5 82/5/5 81/5/5
f 84/5/5 82/5/5 83/5/5
f 85/8/6 86/8/6 88/8/6
f 88/8/6 86/8/6 89/8/6
f 87/8/6 88/8/6 89/8/6
f 89/8/6 86/8/6 90/8/6
f 87/8/6 89/8/6 91/8/6
f 87/8/6 91/8/6 93/8/6
f 91/8/6 92/8/6 93/8/6
f 93/8/6 92/8/6 94/8/6
f 94/8/6 92/8/6 95/8/6
f 95/8/6 92/8/6 96/8/6
f 97/8/6 98/8/6 101/8/6
f 101/8/6 98/8/6 102/8/6
f 99/4/6 100/4/6 103/4/6
f 103/4/6 100/4/6 104/4/6
f 97/8/6 101/8/6 105/8/6
f 101/7/6 102/7/6 105/7/6
f 102/8/6 98/8/6 106/8/6
f 105/7/6 102/7/6 106/7/6
f 103/1/6 104/1/6 107/1/6
f 99/4/6 103/4/6 107/4/6
f 104/4/6 100/4/6 108/4/6
f 107/1/6 104/1/6 108/1/6
f 106/8/6 98/8/6 109/8/6
f 105/8/6 106/8/6 109/8/6
f 109/8/6 98/8/6 110/8/6
f 110/8/6 98/8/6 111/8/6
f 111/8/6 98/8/6 112/8/6
f 105/8/6 109/8/6 113/8/6
f 109/6/6 110/6/6 113/6/6
f 110/8/6 111/8/6 114/8/6
f 113/6/6 110/6/6 114/6/6
f 99/4/6 107/4/6 116/4/6
f 107/4/6 108/4/6 116/4/6
f 97/8/6 105/8/6 117/8/6
f 113/8/6 114/8/6 117/8/6
f 105/8/6 113/8/6 117/8/6
f 117/8/6 114/8/6 118/8/6
f 97/8/6 117/8/6 119/8/6
f 117/7/6 118/7/6 119/7/6
f 118/8/6 114/8/6 120/8/6
f 119/7/6 118/7/6 120/7/6
f 115/3/6 116/3/6 121/3/6
f 116/4/6 108/4/6 122/4/6
f 121/3/6 116/3/6 122/3/6
f 122/4/6 108/4/6 123/4/6
f 108/4/6 100/4/6 124/4/6
f 123/4/6 108/4/6 124/4/6
f 120/8/6 114/8/6 125/8/6
f 119/8/6 120/8/6 125/8/6
f 114/8/6 111/8/6 126/8/6
f 125/8/6 114/8/6 126/8/6
f 126/8/6 111/8/6 127/8/6
f 122/4/6 123/4/6 129/4/6
f 123/2/6 124/2/6 129/2/6
f 129/2/6 124/2/6 130/2/6
f 119/8/6 125/8/6 131/8/6
f 97/8/6 119/8/6 131/8/6
f 131/8/6 125/8/6 132/8/6
f 125/6/6 126/6/6 133/6/6
f 132/8/6 125/8/6 133/8/6
f 127/8/6 128/8/6 134/8/6
f 133/6/6 126/6/6 134/6/6
f 126/8/6 127/8/6 134/8/6
f 97/8/6 131/8/6 135/8/6
f 131/6/6 132/6/6 135/6/6
f 132/8/6 133/8/6 136/8/6
f 135/6/6 132/6/6 136/6/6
f 133/8/6 134/8/6 136/8/6
f 97/8/6 135/8/6 137/8/6
f 135/8/6 136/8/6 137/8/6
f 136/8/6 134/8/6 138/8/6
f 137/8/6 136/8/6 138/8/6
f 134/8/6 128/8/6 138/8/6
f 129/4/6 130/4/6 139/4/6
f 122/4/6 129/4/6 139/4/6
f 139/4/6 130/4/6 140/4/6
