# MagicaVoxel @ ephtracy

# material
mtllib shield.mtl
usemtl palette

# normals
vn -1 0 0
vn 1 0 0
vn 0 0 1
vn 0 0 -1
vn 0 -1 0
vn 0 1 0

# texcoords
vt 0.146484 0.5
vt 0.279297 0.5
vt 0.341797 0.5
vt 0.931641 0.5
vt 0.935547 0.5

# verts
v -2 2 0.5
v -2 2 -0.5
v -2 3 1.5
v -2 3 0.5
v -2 3 -0.5
v -2 3 -1.5
v -2 4 2.5
v -2 4 1.5
v -2 4 0.5
v -2 4 -0.5
v -2 4 -1.5
v -2 4 -2.5
v -2 6 3.5
v -2 6 2.5
v -2 6 -2.5
v -2 6 -3.5
v -2 8 3.5
v -2 8 0.5
v -2 8 -0.5
v -2 8 -3.5
v -2 9 3.5
v -2 9 0.5
v -2 9 -0.5
v -2 9 -3.5
v -2 11 3.5
v -2 11 0.5
v -2 11 -0.5
v -2 11 -3.5
v -2 12 0.5
v -2 12 -0.5
v -1 0 0.5
v -1 0 -0.5
v -1 1 1.5
v -1 1 0.5
v -1 1 -0.5
v -1 1 -1.5
v -1 2 2.5
v -1 2 1.5
v -1 2 0.5
v -1 2 -0.5
v -1 2 -1.5
v -1 2 -2.5
v -1 3 3.5
v -1 3 2.5
v -1 3 1.5
v -1 3 0.5
v -1 3 -0.5
v -1 3 -1.5
v -1 3 -2.5
v -1 3 -3.5
v -1 4 2.5
v -1 4 1.5
v -1 4 -1.5
v -1 4 -2.5
v -1 5 4.5
v -1 5 3.5
v -1 5 -3.5
v -1 5 -4.5
v -1 6 3.5
v -1 6 2.5
v -1 6 -2.5
v -1 6 -3.5
v -1 8 3.5
v -1 8 -3.5
v -1 9 3.5
v -1 9 -3.5
v -1 11 4.5
v -1 11 3.5
v -1 11 0.5
v -1 11 -0.5
v -1 11 -3.5
v -1 11 -4.5
v -1 12 3.5
v -1 12 0.5
v -1 12 -0.5
v -1 12 -3.5
v -1 13 0.5
v -1 13 -0.5
v 1 7 0.5
v 1 7 -0.5
v 1 9 0.5
v 1 9 -0.5
v 0 0 0.5
v 0 0 -0.5
v 0 1 1.5
v 0 1 0.5
v 0 1 -0.5
v 0 1 -1.5
v 0 2 2.5
v 0 2 1.5
v 0 2 0.5
v 0 2 -0.5
v 0 2 -1.5
v 0 2 -2.5
v 0 3 3.5
v 0 3 2.5
v 0 3 1.5
v 0 3 0.5
v 0 3 -0.5
v 0 3 -1.5
v 0 3 -2.5
v 0 3 -3.5
v 0 4 2.5
v 0 4 1.5
v 0 4 -1.5
v 0 4 -2.5
v 0 5 4.5
v 0 5 3.5
v 0 5 2.5
v 0 5 -2.5
v 0 5 -3.5
v 0 5 -4.5
v 0 6 3.5
v 0 6 2.5
v 0 6 0.5
v 0 6 -0.5
v 0 6 -2.5
v 0 6 -3.5
v 0 7 3.5
v 0 7 0.5
v 0 7 -0.5
v 0 7 -3.5
v 0 8 3.5
v 0 8 -3.5
v 0 9 3.5
v 0 9 0.5
v 0 9 -0.5
v 0 9 -3.5
v 0 10 3.5
v 0 10 0.5
v 0 10 -0.5
v 0 10 -3.5
v 0 11 4.5
v 0 11 3.5
v 0 11 0.5
v 0 11 -0.5
v 0 11 -3.5
v 0 11 -4.5
v 0 12 3.5
v 0 12 0.5
v 0 12 -0.5
v 0 12 -3.5
v 0 13 0.5
v 0 13 -0.5
v 1 6 0.5
v 1 6 -0.5
v 1 7 0.5
v 1 7 -0.5
v 1 9 0.5
v 1 9 -0.5
v 1 10 0.5
v 1 10 -0.5
v 2 7 0.5
v 2 7 -0.5
v 2 9 0.5
v 2 9 -0.5
v -1 5 4.5
v -1 11 4.5
v 0 5 4.5
v 0 11 4.5
v -2 6 3.5
v -2 8 3.5
v -2 9 3.5
v -2 11 3.5
v -1 3 3.5
v -1 5 3.5
v -1 6 3.5
v -1 8 3.5
v -1 9 3.5
v -1 11 3.5
v -1 12 3.5
v 0 3 3.5
v 0 5 3.5
v 0 11 3.5
v 0 12 3.5
v -2 4 2.5
v -2 6 2.5
v -1 2 2.5
v -1 3 2.5
v -1 4 2.5
v -1 6 2.5
v 0 2 2.5
v 0 3 2.5
v -2 3 1.5
v -2 4 1.5
v -1 1 1.5
v -1 2 1.5
v -1 3 1.5
v -1 4 1.5
v 0 1 1.5
v 0 2 1.5
v -2 2 0.5
v -2 3 0.5
v -2 11 0.5
v -2 12 0.5
v -1 0 0.5
v -1 1 0.5
v -1 2 0.5
v -1 3 0.5
v -1 11 0.5
v -1 12 0.5
v -1 13 0.5
v 0 0 0.5
v 0 1 0.5
v 0 6 0.5
v 0 7 0.5
v 0 9 0.5
v 0 10 0.5
v 0 12 0.5
v 0 13 0.5
v 1 6 0.5
v 1 7 0.5
v 1 9 0.5
v 1 10 0.5
v 2 7 0.5
v 2 9 0.5
v -2 2 -0.5
v -2 3 -0.5
v -2 11 -0.5
v -2 12 -0.5
v -1 0 -0.5
v -1 1 -0.5
v -1 2 -0.5
v -1 3 -0.5
v -1 11 -0.5
v -1 12 -0.5
v -1 13 -0.5
v 0 0 -0.5
v 0 1 -0.5
v 0 6 -0.5
v 0 7 -0.5
v 0 9 -0.5
v 0 10 -0.5
v 0 12 -0.5
v 0 13 -0.5
v 1 6 -0.5
v 1 7 -0.5
v 1 9 -0.5
v 1 10 -0.5
v 2 7 -0.5
v 2 9 -0.5
v -2 3 -1.5
v -2 4 -1.5
v -1 1 -1.5
v -1 2 -1.5
v -1 3 -1.5
v -1 4 -1.5
v 0 1 -1.5
v 0 2 -1.5
v -2 4 -2.5
v -2 6 -2.5
v -1 2 -2.5
v -1 3 -2.5
v -1 4 -2.5
v -1 6 -2.5
v 0 2 -2.5
v 0 3 -2.5
v -2 6 -3.5
v -2 8 -3.5
v -2 9 -3.5
v -2 11 -3.5
v -1 3 -3.5
v -1 5 -3.5
v -1 6 -3.5
v -1 8 -3.5
v -1 9 -3.5
v -1 11 -3.5
v -1 12 -3.5
v 0 3 -3.5
v 0 5 -3.5
v 0 11 -3.5
v 0 12 -3.5
v -1 5 -4.5
v -1 11 -4.5
v 0 5 -4.5
v 0 11 -4.5
v -1 0 0.5
v 0 0 0.5
v -1 0 -0.5
v 0 0 -0.5
v -1 1 1.5
v 0 1 1.5
v -1 1 0.5
v 0 1 0.5
v -1 1 -0.5
v 0 1 -0.5
v -1 1 -1.5
v 0 1 -1.5
v -1 2 2.5
v 0 2 2.5
v -1 2 1.5
v 0 2 1.5
v -2 2 0.5
v -1 2 0.5
v -2 2 -0.5
v -1 2 -0.5
v -1 2 -1.5
v 0 2 -1.5
v -1 2 -2.5
v 0 2 -2.5
v -1 3 3.5
v 0 3 3.5
v -1 3 2.5
v 0 3 2.5
v -2 3 1.5
v -1 3 1.5
v -2 3 0.5
v -1 3 0.5
v -2 3 -0.5
v -1 3 -0.5
v -2 3 -1.5
v -1 3 -1.5
v -1 3 -2.5
v 0 3 -2.5
v -1 3 -3.5
v 0 3 -3.5
v -2 4 2.5
v -1 4 2.5
v -2 4 1.5
v -1 4 1.5
v -2 4 -1.5
v -1 4 -1.5
v -2 4 -2.5
v -1 4 -2.5
v -1 5 4.5
v 0 5 4.5
v -1 5 3.5
v 0 5 3.5
v -1 5 -3.5
v 0 5 -3.5
v -1 5 -4.5
v 0 5 -4.5
v -2 6 3.5
v -1 6 3.5
v -2 6 2.5
v -1 6 2.5
v 0 6 0.5
v 1 6 0.5
v 0 6 -0.5
v 1 6 -0.5
v -2 6 -2.5
v -1 6 -2.5
v -2 6 -3.5
v -1 6 -3.5
v 1 7 0.5
v 2 7 0.5
v 1 7 -0.5
v 2 7 -0.5
v 0 9 0.5
v 1 9 0.5
v 0 9 -0.5
v 1 9 -0.5
v 0 7 0.5
v 1 7 0.5
v 0 7 -0.5
v 1 7 -0.5
v 1 9 0.5
v 2 9 0.5
v 1 9 -0.5
v 2 9 -0.5
v 0 10 0.5
v 1 10 0.5
v 0 10 -0.5
v 1 10 -0.5
v -1 11 4.5
v 0 11 4.5
v -2 11 3.5
v -1 11 3.5
v 0 11 3.5
v -2 11 0.5
v -1 11 0.5
v -2 11 -0.5
v -1 11 -0.5
v -2 11 -3.5
v -1 11 -3.5
v 0 11 -3.5
v -1 11 -4.5
v 0 11 -4.5
v -1 12 3.5
v 0 12 3.5
v -2 12 0.5
v -1 12 0.5
v 0 12 0.5
v -2 12 -0.5
v -1 12 -0.5
v 0 12 -0.5
v -1 12 -3.5
v 0 12 -3.5
v -1 13 0.5
v 0 13 0.5
v -1 13 -0.5
v 0 13 -0.5

# faces
f 4/1/1 2/1/1 1/1/1
f 5/1/1 2/1/1 4/1/1
f 8/2/1 4/2/1 3/2/1
f 9/1/1 5/1/1 4/1/1
f 9/2/1 4/2/1 8/2/1
f 10/2/1 6/2/1 5/2/1
f 10/1/1 5/1/1 9/1/1
f 11/2/1 6/2/1 10/2/1
f 14/1/1 9/1/1 8/1/1
f 14/1/1 8/1/1 7/1/1
f 15/1/1 12/1/1 11/1/1
f 15/1/1 11/1/1 10/1/1
f 17/1/1 14/1/1 13/1/1
f 18/1/1 9/1/1 14/1/1
f 18/1/1 14/1/1 17/1/1
f 18/2/1 10/2/1 9/2/1
f 19/1/1 16/1/1 15/1/1
f 19/2/1 10/2/1 18/2/1
f 19/1/1 15/1/1 10/1/1
f 20/1/1 16/1/1 19/1/1
f 21/2/1 18/2/1 17/2/1
f 21/2/1 19/2/1 18/2/1
f 21/2/1 20/2/1 19/2/1
f 22/2/1 20/2/1 21/2/1
f 23/2/1 20/2/1 22/2/1
f 24/2/1 20/2/1 23/2/1
f 25/1/1 22/1/1 21/1/1
f 26/2/1 23/2/1 22/2/1
f 26/1/1 22/1/1 25/1/1
f 27/1/1 24/1/1 23/1/1
f 27/2/1 23/2/1 26/2/1
f 28/1/1 24/1/1 27/1/1
f 29/1/1 27/1/1 26/1/1
f 30/1/1 27/1/1 29/1/1
f 34/4/1 32/4/1 31/4/1
f 35/4/1 32/4/1 34/4/1
f 38/4/1 34/4/1 33/4/1
f 38/4/1 36/4/1 35/4/1
f 38/4/1 35/4/1 34/4/1
f 39/4/1 36/4/1 38/4/1
f 40/4/1 36/4/1 39/4/1
f 41/4/1 36/4/1 40/4/1
f 44/4/1 38/4/1 37/4/1
f 44/4/1 39/4/1 38/4/1
f 45/4/1 39/4/1 44/4/1
f 46/4/1 39/4/1 45/4/1
f 47/4/1 41/4/1 40/4/1
f 47/4/1 42/4/1 41/4/1
f 48/4/1 42/4/1 47/4/1
f 49/4/1 42/4/1 48/4/1
f 51/4/1 45/4/1 44/4/1
f 51/4/1 44/4/1 43/4/1
f 52/4/1 45/4/1 51/4/1
f 53/4/1 50/4/1 49/4/1
f 53/4/1 49/4/1 48/4/1
f 54/4/1 50/4/1 53/4/1
f 56/4/1 51/4/1 43/4/1
f 57/4/1 50/4/1 54/4/1
f 59/4/1 56/4/1 55/4/1
f 59/4/1 51/4/1 56/4/1
f 60/4/1 51/4/1 59/4/1
f 61/4/1 58/4/1 57/4/1
f 61/4/1 57/4/1 54/4/1
f 62/4/1 58/4/1 61/4/1
f 63/4/1 59/4/1 55/4/1
f 64/4/1 58/4/1 62/4/1
f 65/4/1 63/4/1 55/4/1
f 66/4/1 58/4/1 64/4/1
f 67/4/1 65/4/1 55/4/1
f 68/4/1 65/4/1 67/4/1
f 71/4/1 58/4/1 66/4/1
f 72/4/1 58/4/1 71/4/1
f 73/4/1 69/4/1 68/4/1
f 74/4/1 69/4/1 73/4/1
f 75/4/1 71/4/1 70/4/1
f 76/4/1 71/4/1 75/4/1
f 77/4/1 75/4/1 74/4/1
f 78/4/1 75/4/1 77/4/1
f 81/5/1 80/5/1 79/5/1
f 82/5/1 80/5/1 81/5/1
f 83/4/2 84/4/2 86/4/2
f 86/4/2 84/4/2 87/4/2
f 85/4/2 86/4/2 90/4/2
f 87/4/2 88/4/2 90/4/2
f 86/4/2 87/4/2 90/4/2
f 90/4/2 88/4/2 91/4/2
f 91/4/2 88/4/2 92/4/2
f 92/4/2 88/4/2 93/4/2
f 89/4/2 90/4/2 96/4/2
f 90/4/2 91/4/2 96/4/2
f 96/4/2 91/4/2 97/4/2
f 91/3/2 92/3/2 98/3/2
f 97/4/2 91/4/2 98/4/2
f 93/4/2 94/4/2 99/4/2
f 98/3/2 92/3/2 99/3/2
f 92/4/2 93/4/2 99/4/2
f 99/4/2 94/4/2 100/4/2
f 100/4/2 94/4/2 101/4/2
f 95/4/2 96/4/2 103/4/2
f 96/4/2 97/4/2 103/4/2
f 97/2/2 98/2/2 104/2/2
f 103/4/2 97/4/2 104/4/2
f 98/2/2 99/2/2 104/2/2
f 99/2/2 100/2/2 104/2/2
f 101/4/2 102/4/2 105/4/2
f 104/2/2 100/2/2 105/2/2
f 100/4/2 101/4/2 105/4/2
f 105/4/2 102/4/2 106/4/2
f 95/4/2 103/4/2 108/4/2
f 103/3/2 104/3/2 109/3/2
f 104/3/2 105/3/2 109/3/2
f 108/4/2 103/4/2 109/4/2
f 105/3/2 106/3/2 109/3/2
f 106/4/2 102/4/2 110/4/2
f 109/3/2 106/3/2 110/3/2
f 110/4/2 102/4/2 111/4/2
f 108/4/2 109/4/2 113/4/2
f 107/4/2 108/4/2 113/4/2
f 109/2/2 110/2/2 114/2/2
f 113/4/2 109/4/2 114/4/2
f 114/2/2 110/2/2 115/2/2
f 115/2/2 110/2/2 116/2/2
f 111/4/2 112/4/2 117/4/2
f 116/2/2 110/2/2 117/2/2
f 110/4/2 111/4/2 117/4/2
f 117/4/2 112/4/2 118/4/2
f 114/3/2 115/3/2 119/3/2
f 107/4/2 113/4/2 119/4/2
f 113/3/2 114/3/2 119/3/2
f 119/3/2 115/3/2 120/3/2
f 117/3/2 118/3/2 121/3/2
f 116/3/2 117/3/2 121/3/2
f 118/4/2 112/4/2 122/4/2
f 121/3/2 118/3/2 122/3/2
f 120/2/2 121/2/2 123/2/2
f 119/2/2 120/2/2 123/2/2
f 121/2/2 122/2/2 123/2/2
f 107/4/2 119/4/2 123/4/2
f 122/4/2 112/4/2 124/4/2
f 123/2/2 122/2/2 124/2/2
f 107/4/2 123/4/2 125/4/2
f 123/3/2 124/3/2 125/3/2
f 125/3/2 124/3/2 126/3/2
f 126/3/2 124/3/2 127/3/2
f 124/4/2 112/4/2 128/4/2
f 127/3/2 124/3/2 128/3/2
f 107/4/2 125/4/2 129/4/2
f 125/2/2 126/2/2 129/2/2
f 129/2/2 126/2/2 130/2/2
f 127/2/2 128/2/2 131/2/2
f 128/4/2 112/4/2 132/4/2
f 131/2/2 128/2/2 132/2/2
f 107/4/2 129/4/2 133/4/2
f 130/3/2 131/3/2 134/3/2
f 133/4/2 129/4/2 134/4/2
f 129/3/2 130/3/2 134/3/2
f 131/3/2 132/3/2 134/3/2
f 134/3/2 132/3/2 135/3/2
f 135/3/2 132/3/2 136/3/2
f 132/4/2 112/4/2 137/4/2
f 136/3/2 132/3/2 137/3/2
f 137/4/2 112/4/2 138/4/2
f 134/4/2 135/4/2 139/4/2
f 135/2/2 136/2/2 140/2/2
f 139/4/2 135/4/2 140/4/2
f 136/4/2 137/4/2 141/4/2
f 140/2/2 136/2/2 141/2/2
f 141/4/2 137/4/2 142/4/2
f 140/4/2 141/4/2 143/4/2
f 143/4/2 141/4/2 144/4/2
f 145/5/2 146/5/2 147/5/2
f 147/5/2 146/5/2 148/5/2
f 149/5/2 150/5/2 151/5/2
f 151/5/2 150/5/2 152/5/2
f 153/5/2 154/5/2 155/5/2
f 155/5/2 154/5/2 156/5/2
f 159/4/3 158/4/3 157/4/3
f 160/4/3 158/4/3 159/4/3
f 167/1/3 162/1/3 161/1/3
f 168/2/3 163/2/3 162/2/3
f 168/1/3 162/1/3 167/1/3
f 169/1/3 164/1/3 163/1/3
f 169/2/3 163/2/3 168/2/3
f 170/1/3 164/1/3 169/1/3
f 172/4/3 166/4/3 165/4/3
f 173/4/3 166/4/3 172/4/3
f 174/4/3 171/4/3 170/4/3
f 175/4/3 171/4/3 174/4/3
f 180/1/3 177/1/3 176/1/3
f 181/1/3 177/1/3 180/1/3
f 182/4/3 179/4/3 178/4/3
f 183/4/3 179/4/3 182/4/3
f 188/2/3 185/2/3 184/2/3
f 189/2/3 185/2/3 188/2/3
f 190/4/3 187/4/3 186/4/3
f 191/4/3 187/4/3 190/4/3
f 198/1/3 193/1/3 192/1/3
f 199/1/3 193/1/3 198/1/3
f 200/1/3 195/1/3 194/1/3
f 201/1/3 195/1/3 200/1/3
f 203/4/3 197/4/3 196/4/3
f 204/4/3 197/4/3 203/4/3
f 209/4/3 202/4/3 201/4/3
f 210/4/3 202/4/3 209/4/3
f 211/5/3 206/5/3 205/5/3
f 212/5/3 206/5/3 211/5/3
f 213/5/3 208/5/3 207/5/3
f 214/5/3 208/5/3 213/5/3
f 215/5/3 213/5/3 212/5/3
f 216/5/3 213/5/3 215/5/3
f 217/1/4 218/1/4 223/1/4
f 223/1/4 218/1/4 224/1/4
f 219/1/4 220/1/4 225/1/4
f 225/1/4 220/1/4 226/1/4
f 221/4/4 222/4/4 228/4/4
f 228/4/4 222/4/4 229/4/4
f 226/4/4 227/4/4 234/4/4
f 234/4/4 227/4/4 235/4/4
f 230/5/4 231/5/4 236/5/4
f 236/5/4 231/5/4 237/5/4
f 232/5/4 233/5/4 238/5/4
f 238/5/4 233/5/4 239/5/4
f 237/5/4 238/5/4 240/5/4
f 240/5/4 238/5/4 241/5/4
f 242/2/4 243/2/4 246/2/4
f 246/2/4 243/2/4 247/2/4
f 244/4/4 245/4/4 248/4/4
f 248/4/4 245/4/4 249/4/4
f 250/1/4 251/1/4 254/1/4
f 254/1/4 251/1/4 255/1/4
f 252/4/4 253/4/4 256/4/4
f 256/4/4 253/4/4 257/4/4
f 258/1/4 259/1/4 264/1/4
f 259/2/4 260/2/4 265/2/4
f 264/1/4 259/1/4 265/1/4
f 260/1/4 261/1/4 266/1/4
f 265/2/4 260/2/4 266/2/4
f 266/1/4 261/1/4 267/1/4
f 262/4/4 263/4/4 269/4/4
f 269/4/4 263/4/4 270/4/4
f 267/4/4 268/4/4 271/4/4
f 271/4/4 268/4/4 272/4/4
f 273/4/4 274/4/4 275/4/4
f 275/4/4 274/4/4 276/4/4
f 279/4/5 278/4/5 277/4/5
f 280/4/5 278/4/5 279/4/5
f 283/4/5 282/4/5 281/4/5
f 284/4/5 282/4/5 283/4/5
f 287/4/5 286/4/5 285/4/5
f 288/4/5 286/4/5 287/4/5
f 291/4/5 290/4/5 289/4/5
f 292/4/5 290/4/5 291/4/5
f 295/1/5 294/1/5 293/1/5
f 296/1/5 294/1/5 295/1/5
f 299/4/5 298/4/5 297/4/5
f 300/4/5 298/4/5 299/4/5
f 303/4/5 302/4/5 301/4/5
f 304/4/5 302/4/5 303/4/5
f 307/2/5 306/2/5 305/2/5
f 308/2/5 306/2/5 307/2/5
f 311/2/5 310/2/5 309/2/5
f 312/2/5 310/2/5 311/2/5
f 315/4/5 314/4/5 313/4/5
f 316/4/5 314/4/5 315/4/5
f 319/1/5 318/1/5 317/1/5
f 320/1/5 318/1/5 319/1/5
f 323/1/5 322/1/5 321/1/5
f 324/1/5 322/1/5 323/1/5
f 327/4/5 326/4/5 325/4/5
f 328/4/5 326/4/5 327/4/5
f 331/4/5 330/4/5 329/4/5
f 332/4/5 330/4/5 331/4/5
f 335/1/5 334/1/5 333/1/5
f 336/1/5 334/1/5 335/1/5
f 339/5/5 338/5/5 337/5/5
f 340/5/5 338/5/5 339/5/5
f 343/1/5 342/1/5 341/1/5
f 344/1/5 342/1/5 343/1/5
f 347/5/5 346/5/5 345/5/5
f 348/5/5 346/5/5 347/5/5
f 351/5/5 350/5/5 349/5/5
f 352/5/5 350/5/5 351/5/5
f 353/5/6 354/5/6 355/5/6
f 355/5/6 354/5/6 356/5/6
f 357/5/6 358/5/6 359/5/6
f 359/5/6 358/5/6 360/5/6
f 361/5/6 362/5/6 363/5/6
f 363/5/6 362/5/6 364/5/6
f 365/4/6 366/4/6 368/4/6
f 368/4/6 366/4/6 369/4/6
f 367/1/6 368/1/6 370/1/6
f 370/1/6 368/1/6 371/1/6
f 372/1/6 373/1/6 374/1/6
f 374/1/6 373/1/6 375/1/6
f 375/4/6 376/4/6 377/4/6
f 377/4/6 376/4/6 378/4/6
f 379/4/6 380/4/6 382/4/6
f 382/4/6 380/4/6 383/4/6
f 381/1/6 382/1/6 384/1/6
f 384/1/6 382/1/6 385/1/6
f 385/4/6 386/4/6 387/4/6
f 387/4/6 386/4/6 388/4/6
f 389/4/6 390/4/6 391/4/6
f 391/4/6 390/4/6 392/4/6
