# MagicaVoxel @ ephtracy

# material
mtllib SkeletonFoot.mtl
usemtl palette

# normals
vn -1 0 0
vn 1 0 0
vn 0 0 1
vn 0 0 -1
vn 0 -1 0
vn 0 1 0

# texcoords
vt 0.951172 0.5
vt 0.962891 0.5
vt 0.966797 0.5
vt 0.982422 0.5

# verts
v -2 0 3.5
v -2 0 -2.5
v -2 1 3.5
v -2 1 -0.5
v -2 1 -2.5
v -2 2 3.5
v -2 2 -0.5
v -2 2 -1.5
v -2 2 -2.5
v -2 3 3.5
v -2 3 -1.5
v -1 0 -2.5
v -1 0 -3.5
v -1 1 -2.5
v -1 1 -3.5
v -1 2 -1.5
v -1 2 -2.5
v -1 2 -3.5
v -1 3 -1.5
v -1 3 -2.5
v 1 0 -2.5
v 1 0 -3.5
v 1 1 -2.5
v 1 1 -3.5
v 1 2 -1.5
v 1 2 -2.5
v 1 2 -3.5
v 1 3 -1.5
v 1 3 -2.5
v 2 0 3.5
v 2 0 -2.5
v 2 1 3.5
v 2 1 -0.5
v 2 1 -2.5
v 2 2 3.5
v 2 2 -0.5
v 2 2 -1.5
v 2 2 -2.5
v 2 3 3.5
v 2 3 -1.5
v -2 0 3.5
v -2 1 3.5
v -2 2 3.5
v -2 3 3.5
v 2 0 3.5
v 2 1 3.5
v 2 2 3.5
v 2 3 3.5
v -2 2 -1.5
v -2 3 -1.5
v -1 2 -1.5
v -1 3 -1.5
v 1 2 -1.5
v 1 3 -1.5
v 2 2 -1.5
v 2 3 -1.5
v -2 0 -2.5
v -2 1 -2.5
v -2 2 -2.5
v -1 0 -2.5
v -1 1 -2.5
v -1 2 -2.5
v -1 3 -2.5
v 1 0 -2.5
v 1 1 -2.5
v 1 2 -2.5
v 1 3 -2.5
v 2 0 -2.5
v 2 1 -2.5
v 2 2 -2.5
v -1 0 -3.5
v -1 1 -3.5
v -1 2 -3.5
v 1 0 -3.5
v 1 1 -3.5
v 1 2 -3.5
v -2 0 3.5
v 2 0 3.5
v -2 0 -2.5
v -1 0 -2.5
v 1 0 -2.5
v 2 0 -2.5
v -1 0 -3.5
v 1 0 -3.5
v -2 2 -1.5
v -1 2 -1.5
v 1 2 -1.5
v 2 2 -1.5
v -2 2 -2.5
v -1 2 -2.5
v 1 2 -2.5
v 2 2 -2.5
v -1 2 -3.5
v 1 2 -3.5
v -2 3 3.5
v 2 3 3.5
v -2 3 -1.5
v -1 3 -1.5
v 1 3 -1.5
v 2 3 -1.5
v -1 3 -2.5
v 1 3 -2.5

# faces
f 3/1/1 2/1/1 1/1/1
f 4/1/1 2/1/1 3/1/1
f 5/1/1 2/1/1 4/1/1
f 6/4/1 4/4/1 3/4/1
f 7/3/1 5/3/1 4/3/1
f 7/4/1 4/4/1 6/4/1
f 8/3/1 5/3/1 7/3/1
f 9/3/1 5/3/1 8/3/1
f 10/2/1 7/2/1 6/2/1
f 10/2/1 8/2/1 7/2/1
f 11/2/1 8/2/1 10/2/1
f 14/1/1 13/1/1 12/1/1
f 15/1/1 13/1/1 14/1/1
f 17/3/1 15/3/1 14/3/1
f 18/3/1 15/3/1 17/3/1
f 19/2/1 17/2/1 16/2/1
f 20/2/1 17/2/1 19/2/1
f 21/1/2 22/1/2 23/1/2
f 23/1/2 22/1/2 24/1/2
f 23/3/2 24/3/2 26/3/2
f 26/3/2 24/3/2 27/3/2
f 25/2/2 26/2/2 28/2/2
f 28/2/2 26/2/2 29/2/2
f 30/1/2 31/1/2 32/1/2
f 32/1/2 31/1/2 33/1/2
f 33/1/2 31/1/2 34/1/2
f 32/4/2 33/4/2 35/4/2
f 33/3/2 34/3/2 36/3/2
f 35/4/2 33/4/2 36/4/2
f 36/3/2 34/3/2 37/3/2
f 37/3/2 34/3/2 38/3/2
f 35/2/2 36/2/2 39/2/2
f 36/2/2 37/2/2 39/2/2
f 39/2/2 37/2/2 40/2/2
f 45/1/3 42/1/3 41/1/3
f 46/4/3 43/4/3 42/4/3
f 46/1/3 42/1/3 45/1/3
f 47/2/3 44/2/3 43/2/3
f 47/4/3 43/4/3 46/4/3
f 48/2/3 44/2/3 47/2/3
f 49/2/4 50/2/4 51/2/4
f 51/2/4 50/2/4 52/2/4
f 53/2/4 54/2/4 55/2/4
f 55/2/4 54/2/4 56/2/4
f 57/1/4 58/1/4 60/1/4
f 58/3/4 59/3/4 61/3/4
f 60/1/4 58/1/4 61/1/4
f 61/3/4 59/3/4 62/3/4
f 62/2/4 63/2/4 66/2/4
f 66/2/4 63/2/4 67/2/4
f 64/1/4 65/1/4 68/1/4
f 65/3/4 66/3/4 69/3/4
f 68/1/4 65/1/4 69/1/4
f 69/3/4 66/3/4 70/3/4
f 71/1/4 72/1/4 74/1/4
f 72/3/4 73/3/4 75/3/4
f 74/1/4 72/1/4 75/1/4
f 75/3/4 73/3/4 76/3/4
f 79/1/5 78/1/5 77/1/5
f 80/1/5 78/1/5 79/1/5
f 81/1/5 78/1/5 80/1/5
f 82/1/5 78/1/5 81/1/5
f 83/1/5 81/1/5 80/1/5
f 84/1/5 81/1/5 83/1/5
f 85/3/6 86/3/6 89/3/6
f 89/3/6 86/3/6 90/3/6
f 87/3/6 88/3/6 91/3/6
f 91/3/6 88/3/6 92/3/6
f 90/3/6 91/3/6 93/3/6
f 93/3/6 91/3/6 94/3/6
f 95/2/6 96/2/6 97/2/6
f 97/2/6 96/2/6 98/2/6
f 98/2/6 96/2/6 99/2/6
f 99/2/6 96/2/6 100/2/6
f 98/2/6 99/2/6 101/2/6
f 101/2/6 99/2/6 102/2/6
