# MagicaVoxel @ ephtracy

# material
mtllib skeletonArm2.mtl
usemtl palette

# normals
vn -1 0 0
vn 1 0 0
vn 0 0 1
vn 0 0 -1
vn 0 -1 0
vn 0 1 0

# texcoords
vt 0.357422 0.5
vt 0.962891 0.5
vt 0.982422 0.5

# verts
v -1.5 0 2.5
v -1.5 0 -2.5
v -1.5 1 1.5
v -1.5 1 0.5
v -1.5 1 -0.5
v -1.5 1 -1.5
v -1.5 3 1.5
v -1.5 3 0.5
v -1.5 3 -0.5
v -1.5 3 -1.5
v -1.5 4 2.5
v -1.5 4 -2.5
v -0.5 4 1.5
v -0.5 4 -1.5
v -0.5 7 1.5
v -0.5 7 -1.5
v 0.5 4 1.5
v 0.5 4 -1.5
v 0.5 7 1.5
v 0.5 7 -1.5
v 1.5 0 2.5
v 1.5 0 -2.5
v 1.5 2 2.5
v 1.5 2 -2.5
v 1.5 3 2.5
v 1.5 3 -2.5
v 1.5 4 2.5
v 1.5 4 -2.5
v -1.5 0 2.5
v -1.5 4 2.5
v -0.5 1 2.5
v -0.5 3 2.5
v 0.5 1 2.5
v 0.5 2 2.5
v 1.5 0 2.5
v 1.5 2 2.5
v 1.5 3 2.5
v 1.5 4 2.5
v -0.5 4 1.5
v -0.5 7 1.5
v 0.5 4 1.5
v 0.5 7 1.5
v -0.5 4 -1.5
v -0.5 7 -1.5
v 0.5 4 -1.5
v 0.5 7 -1.5
v -1.5 0 -2.5
v -1.5 4 -2.5
v -0.5 1 -2.5
v -0.5 3 -2.5
v 0.5 1 -2.5
v 0.5 2 -2.5
v 1.5 0 -2.5
v 1.5 2 -2.5
v 1.5 3 -2.5
v 1.5 4 -2.5
v -1.5 0 2.5
v 1.5 0 2.5
v -1.5 0 -2.5
v 1.5 0 -2.5
v -1.5 4 2.5
v 1.5 4 2.5
v -0.5 4 1.5
v 0.5 4 1.5
v -0.5 4 -1.5
v 0.5 4 -1.5
v -1.5 4 -2.5
v 1.5 4 -2.5
v -0.5 7 1.5
v 0.5 7 1.5
v -0.5 7 -1.5
v 0.5 7 -1.5

# faces
f 3/2/1 2/2/1 1/2/1
f 4/2/1 2/2/1 3/2/1
f 5/2/1 2/2/1 4/2/1
f 6/2/1 2/2/1 5/2/1
f 7/2/1 3/2/1 1/2/1
f 7/3/1 4/3/1 3/3/1
f 8/2/1 5/2/1 4/2/1
f 8/3/1 4/3/1 7/3/1
f 9/3/1 6/3/1 5/3/1
f 9/2/1 5/2/1 8/2/1
f 10/2/1 2/2/1 6/2/1
f 10/3/1 6/3/1 9/3/1
f 11/2/1 9/2/1 8/2/1
f 11/2/1 8/2/1 7/2/1
f 11/2/1 10/2/1 9/2/1
f 11/2/1 7/2/1 1/2/1
f 12/2/1 2/2/1 10/2/1
f 12/2/1 10/2/1 11/2/1
f 15/2/1 14/2/1 13/2/1
f 16/2/1 14/2/1 15/2/1
f 17/2/2 18/2/2 19/2/2
f 19/2/2 18/2/2 20/2/2
f 21/2/2 22/2/2 23/2/2
f 23/2/2 22/2/2 24/2/2
f 23/3/2 24/3/2 25/3/2
f 25/3/2 24/3/2 26/3/2
f 25/2/2 26/2/2 27/2/2
f 27/2/2 26/2/2 28/2/2
f 31/2/3 30/2/3 29/2/3
f 32/2/3 30/2/3 31/2/3
f 33/2/3 31/2/3 29/2/3
f 33/3/3 32/3/3 31/3/3
f 34/3/3 32/3/3 33/3/3
f 35/2/3 33/2/3 29/2/3
f 35/2/3 34/2/3 33/2/3
f 36/3/3 32/3/3 34/3/3
f 36/2/3 34/2/3 35/2/3
f 37/2/3 30/2/3 32/2/3
f 37/3/3 32/3/3 36/3/3
f 38/2/3 30/2/3 37/2/3
f 41/2/3 40/2/3 39/2/3
f 42/2/3 40/2/3 41/2/3
f 43/2/4 44/2/4 45/2/4
f 45/2/4 44/2/4 46/2/4
f 47/2/4 48/2/4 49/2/4
f 49/2/4 48/2/4 50/2/4
f 47/2/4 49/2/4 51/2/4
f 49/3/4 50/3/4 51/3/4
f 51/3/4 50/3/4 52/3/4
f 47/2/4 51/2/4 53/2/4
f 51/2/4 52/2/4 53/2/4
f 52/3/4 50/3/4 54/3/4
f 53/2/4 52/2/4 54/2/4
f 50/2/4 48/2/4 55/2/4
f 54/3/4 50/3/4 55/3/4
f 55/2/4 48/2/4 56/2/4
f 59/2/5 58/2/5 57/2/5
f 60/2/5 58/2/5 59/2/5
f 61/2/6 62/2/6 63/2/6
f 63/2/6 62/2/6 64/2/6
f 61/2/6 63/2/6 65/2/6
f 64/2/6 62/2/6 66/2/6
f 61/2/6 65/2/6 67/2/6
f 65/2/6 66/2/6 67/2/6
f 66/2/6 62/2/6 68/2/6
f 67/2/6 66/2/6 68/2/6
f 69/2/6 70/2/6 71/2/6
f 71/2/6 70/2/6 72/2/6
