# MagicaVoxel @ ephtracy

# material
mtllib SkeletonBody.mtl
usemtl palette

# normals
vn -1 0 0
vn 1 0 0
vn 0 0 1
vn 0 0 -1
vn 0 -1 0
vn 0 1 0

# texcoords
vt 0.962891 0.5
vt 0.966797 0.5
vt 0.986328 0.5

# verts
v -4 1 3
v -4 1 2
v -4 1 -1
v -4 1 -2
v -4 2 3
v -4 2 2
v -4 2 -1
v -4 2 -2
v -4 4 3
v -4 4 2
v -4 4 -0
v -4 4 -1
v -4 5 -0
v -4 5 -1
v -4 5 -2
v -4 6 3
v -4 6 2
v -4 6 -1
v -4 6 -2
v -4 7 3
v -4 7 -2
v -4 8 4
v -4 8 3
v -4 8 -2
v -4 8 -3
v -4 9 -2
v -4 9 -3
v -4 14 4
v -4 14 3
v -4 14 -3
v -3 0 3
v -3 0 2
v -3 0 -1
v -3 0 -2
v -3 1 4
v -3 1 3
v -3 1 2
v -3 1 -1
v -3 1 -2
v -3 1 -3
v -3 2 4
v -3 2 3
v -3 2 2
v -3 2 -1
v -3 2 -2
v -3 2 -3
v -3 3 1
v -3 3 -0
v -3 3 -1
v -3 3 -2
v -3 4 3
v -3 4 2
v -3 4 1
v -3 4 -0
v -3 4 -1
v -3 4 -2
v -3 5 -1
v -3 5 -2
v -3 6 3
v -3 6 2
v -3 6 -1
v -3 6 -2
v -3 7 4
v -3 7 3
v -3 7 2
v -3 7 -1
v -3 7 -2
v -3 7 -3
v -3 8 4
v -3 8 3
v -3 8 -2
v -3 8 -3
v -3 14 4
v -3 14 3
v -3 14 -3
v -3 15 4
v -3 15 -3
v -2 0 4
v -2 0 3
v -2 0 -2
v -2 0 -3
v -2 1 4
v -2 1 3
v -2 1 -2
v -2 1 -3
v -2 2 4
v -2 2 3
v -2 2 -2
v -2 2 -3
v -2 3 4
v -2 3 3
v -2 3 -2
v -2 3 -3
v -2 4 4
v -2 4 3
v -2 5 4
v -2 5 3
v -2 6 4
v -2 6 3
v -2 7 4
v -2 7 3
v -1 3 4
v -1 3 3
v -1 4 4
v -1 4 3
v -1 5 4
v -1 5 3
v -1 6 4
v -1 6 3
v 1 1 -0
v 1 1 -2
v 1 2 -0
v 1 2 -2
v 1 2 -3
v 1 3 -2
v 1 3 -3
v 1 4 -1
v 1 4 -2
v 1 5 -1
v 1 5 -2
v 2 1 -2
v 2 1 -3
v 2 2 -0
v 2 2 -1
v 2 2 -2
v 2 2 -3
v 2 3 1
v 2 3 -0
v 2 3 -1
v 2 3 -2
v 2 4 1
v 2 4 -0
v 2 6 1
v 2 6 -0
v 3 4 -0
v 3 4 -1
v 3 5 -0
v 3 5 -1
v 3 5 -2
v 3 6 -0
v 3 6 -1
v 3 6 -2
v -3 4 -0
v -3 4 -1
v -3 5 -0
v -3 5 -1
v -3 5 -2
v -3 6 -0
v -3 6 -1
v -3 6 -2
v -2 1 -2
v -2 1 -3
v -2 2 -0
v -2 2 -1
v -2 2 -2
v -2 2 -3
v -2 3 1
v -2 3 -0
v -2 3 -1
v -2 3 -2
v -2 4 1
v -2 4 -0
v -2 6 1
v -2 6 -0
v -1 1 -0
v -1 1 -2
v -1 2 -0
v -1 2 -2
v -1 2 -3
v -1 3 -2
v -1 3 -3
v -1 4 -1
v -1 4 -2
v -1 5 -1
v -1 5 -2
v 1 3 4
v 1 3 3
v 1 4 4
v 1 4 3
v 1 5 4
v 1 5 3
v 1 6 4
v 1 6 3
v 2 0 4
v 2 0 3
v 2 0 -2
v 2 0 -3
v 2 1 4
v 2 1 3
v 2 1 -2
v 2 1 -3
v 2 2 4
v 2 2 3
v 2 2 -2
v 2 2 -3
v 2 3 4
v 2 3 3
v 2 3 -2
v 2 3 -3
v 2 4 4
v 2 4 3
v 2 5 4
v 2 5 3
v 2 6 4
v 2 6 3
v 2 7 4
v 2 7 3
v 3 0 3
v 3 0 2
v 3 0 -1
v 3 0 -2
v 3 1 4
v 3 1 3
v 3 1 2
v 3 1 -1
v 3 1 -2
v 3 1 -3
v 3 2 4
v 3 2 3
v 3 2 2
v 3 2 -1
v 3 2 -2
v 3 2 -3
v 3 3 1
v 3 3 -0
v 3 3 -1
v 3 3 -2
v 3 4 3
v 3 4 2
v 3 4 1
v 3 4 -0
v 3 4 -1
v 3 4 -2
v 3 5 -1
v 3 5 -2
v 3 6 3
v 3 6 2
v 3 6 -1
v 3 6 -2
v 3 7 4
v 3 7 3
v 3 7 2
v 3 7 -1
v 3 7 -2
v 3 7 -3
v 3 8 4
v 3 8 3
v 3 8 -2
v 3 8 -3
v 3 14 4
v 3 14 3
v 3 14 -3
v 3 15 4
v 3 15 -3
v 4 1 3
v 4 1 2
v 4 1 -1
v 4 1 -2
v 4 2 3
v 4 2 2
v 4 2 -1
v 4 2 -2
v 4 4 3
v 4 4 2
v 4 4 -0
v 4 4 -1
v 4 5 -0
v 4 5 -1
v 4 5 -2
v 4 6 3
v 4 6 2
v 4 6 -1
v 4 6 -2
v 4 7 3
v 4 7 -2
v 4 8 4
v 4 8 3
v 4 8 -2
v 4 8 -3
v 4 9 -2
v 4 9 -3
v 4 14 4
v 4 14 3
v 4 14 -3
v -4 8 4
v -4 14 4
v -3 1 4
v -3 2 4
v -3 7 4
v -3 8 4
v -3 14 4
v -3 15 4
v -2 0 4
v -2 1 4
v -2 2 4
v -2 3 4
v -2 4 4
v -2 5 4
v -2 6 4
v -2 7 4
v -2 8 4
v -1 0 4
v -1 1 4
v -1 2 4
v -1 3 4
v -1 4 4
v -1 5 4
v -1 6 4
v -1 7 4
v 1 0 4
v 1 1 4
v 1 2 4
v 1 3 4
v 1 4 4
v 1 5 4
v 1 6 4
v 1 7 4
v 2 0 4
v 2 1 4
v 2 2 4
v 2 3 4
v 2 4 4
v 2 5 4
v 2 6 4
v 2 7 4
v 2 8 4
v 3 1 4
v 3 2 4
v 3 7 4
v 3 8 4
v 3 14 4
v 3 15 4
v 4 8 4
v 4 14 4
v -4 1 3
v -4 2 3
v -4 4 3
v -4 6 3
v -4 7 3
v -4 8 3
v -3 0 3
v -3 1 3
v -3 2 3
v -3 4 3
v -3 6 3
v -3 7 3
v -3 8 3
v -2 0 3
v -2 1 3
v -2 2 3
v -2 3 3
v -2 4 3
v -2 5 3
v -2 6 3
v -2 7 3
v -1 3 3
v -1 4 3
v -1 5 3
v -1 6 3
v 1 3 3
v 1 4 3
v 1 5 3
v 1 6 3
v 2 0 3
v 2 1 3
v 2 2 3
v 2 3 3
v 2 4 3
v 2 5 3
v 2 6 3
v 2 7 3
v 3 0 3
v 3 1 3
v 3 2 3
v 3 4 3
v 3 6 3
v 3 7 3
v 3 8 3
v 4 1 3
v 4 2 3
v 4 4 3
v 4 6 3
v 4 7 3
v 4 8 3
v -3 4 -1
v -3 5 -1
v -1 4 -1
v -1 5 -1
v 1 4 -1
v 1 5 -1
v 3 4 -1
v 3 5 -1
v -2 2 -2
v -2 3 -2
v -1 2 -2
v -1 3 -2
v 1 2 -2
v 1 3 -2
v 2 2 -2
v 2 3 -2
v -2 3 1
v -2 4 1
v -2 6 1
v 2 3 1
v 2 4 1
v 2 6 1
v -3 3 -0
v -3 4 -0
v -3 5 -0
v -3 6 -0
v -2 2 -0
v -2 3 -0
v -2 4 -0
v -2 6 -0
v -1 1 -0
v -1 2 -0
v 1 1 -0
v 1 2 -0
v 2 2 -0
v 2 3 -0
v 2 4 -0
v 2 6 -0
v 3 3 -0
v 3 4 -0
v 3 5 -0
v 3 6 -0
v -4 4 -1
v -4 5 -1
v -3 4 -1
v -3 5 -1
v 3 4 -1
v 3 5 -1
v 4 4 -1
v 4 5 -1
v -4 1 -2
v -4 2 -2
v -4 5 -2
v -4 6 -2
v -4 7 -2
v -4 8 -2
v -3 0 -2
v -3 1 -2
v -3 2 -2
v -3 3 -2
v -3 4 -2
v -3 5 -2
v -3 6 -2
v -3 7 -2
v -3 8 -2
v -2 0 -2
v -2 1 -2
v -2 2 -2
v -2 3 -2
v -2 6 -2
v -2 7 -2
v -1 1 -2
v -1 2 -2
v -1 4 -2
v -1 5 -2
v 1 1 -2
v 1 2 -2
v 1 4 -2
v 1 5 -2
v 2 0 -2
v 2 1 -2
v 2 2 -2
v 2 3 -2
v 2 6 -2
v 2 7 -2
v 3 0 -2
v 3 1 -2
v 3 2 -2
v 3 3 -2
v 3 4 -2
v 3 5 -2
v 3 6 -2
v 3 7 -2
v 3 8 -2
v 4 1 -2
v 4 2 -2
v 4 5 -2
v 4 6 -2
v 4 7 -2
v 4 8 -2
v -4 8 -3
v -4 9 -3
v -4 14 -3
v -3 1 -3
v -3 2 -3
v -3 7 -3
v -3 8 -3
v -3 9 -3
v -3 12 -3
v -3 14 -3
v -3 15 -3
v -2 0 -3
v -2 1 -3
v -2 2 -3
v -2 3 -3
v -1 2 -3
v -1 3 -3
v -1 8 -3
v -1 9 -3
v -1 10 -3
v -1 11 -3
v -1 12 -3
v -1 14 -3
v 1 2 -3
v 1 3 -3
v 1 8 -3
v 1 9 -3
v 1 10 -3
v 1 11 -3
v 1 12 -3
v 1 14 -3
v 2 0 -3
v 2 1 -3
v 2 2 -3
v 2 3 -3
v 3 1 -3
v 3 2 -3
v 3 7 -3
v 3 8 -3
v 3 9 -3
v 3 12 -3
v 3 14 -3
v 3 15 -3
v 4 8 -3
v 4 9 -3
v 4 14 -3
v -2 0 4
v -1 0 4
v 1 0 4
v 2 0 4
v -3 0 3
v -2 0 3
v -1 0 3
v 1 0 3
v 2 0 3
v 3 0 3
v -3 0 2
v -2 0 2
v 2 0 2
v 3 0 2
v -3 0 -1
v -2 0 -1
v 2 0 -1
v 3 0 -1
v -3 0 -2
v -2 0 -2
v 2 0 -2
v 3 0 -2
v -2 0 -3
v 2 0 -3
v -3 1 4
v -2 1 4
v 2 1 4
v 3 1 4
v -4 1 3
v -3 1 3
v -2 1 3
v 2 1 3
v 3 1 3
v 4 1 3
v -4 1 2
v -3 1 2
v 3 1 2
v 4 1 2
v -4 1 -1
v -3 1 -1
v 3 1 -1
v 4 1 -1
v -4 1 -2
v -3 1 -2
v -2 1 -2
v 2 1 -2
v 3 1 -2
v 4 1 -2
v -3 1 -3
v -2 1 -3
v 2 1 -3
v 3 1 -3
v -2 2 -2
v -1 2 -2
v 1 2 -2
v 2 2 -2
v -2 2 -3
v -1 2 -3
v 1 2 -3
v 2 2 -3
v -2 4 4
v -1 4 4
v 1 4 4
v 2 4 4
v -4 4 3
v -3 4 3
v -2 4 3
v -1 4 3
v 1 4 3
v 2 4 3
v 3 4 3
v 4 4 3
v -4 4 2
v -3 4 2
v 3 4 2
v 4 4 2
v -3 4 1
v 3 4 1
v -4 4 -0
v -3 4 -0
v 3 4 -0
v 4 4 -0
v -4 4 -1
v -3 4 -1
v -1 4 -1
v 1 4 -1
v 3 4 -1
v 4 4 -1
v -3 4 -2
v -1 4 -2
v 1 4 -2
v 3 4 -2
v -4 5 -1
v -3 5 -1
v 3 5 -1
v 4 5 -1
v -4 5 -2
v -3 5 -2
v 3 5 -2
v 4 5 -2
v -2 6 4
v -1 6 4
v 1 6 4
v 2 6 4
v -2 6 3
v -1 6 3
v 1 6 3
v 2 6 3
v -2 6 1
v 2 6 1
v -3 6 -0
v -2 6 -0
v 2 6 -0
v 3 6 -0
v -3 6 -1
v -2 6 -1
v 2 6 -1
v 3 6 -1
v -3 6 -2
v -2 6 -2
v 2 6 -2
v 3 6 -2
v -3 7 4
v -2 7 4
v 2 7 4
v 3 7 4
v -4 7 3
v -3 7 3
v -2 7 3
v 2 7 3
v 3 7 3
v 4 7 3
v -3 7 2
v 3 7 2
v -3 7 -1
v 3 7 -1
v -4 7 -2
v -3 7 -2
v -2 7 -2
v 2 7 -2
v 3 7 -2
v 4 7 -2
v -3 7 -3
v 3 7 -3
v -4 8 4
v -3 8 4
v 3 8 4
v 4 8 4
v -4 8 3
v -3 8 3
v 3 8 3
v 4 8 3
v -4 8 -2
v -3 8 -2
v 3 8 -2
v 4 8 -2
v -4 8 -3
v -3 8 -3
v 3 8 -3
v 4 8 -3
v -1 1 -0
v 1 1 -0
v -2 1 -2
v -1 1 -2
v 1 1 -2
v 2 1 -2
v -2 1 -3
v 2 1 -3
v -3 2 4
v -2 2 4
v 2 2 4
v 3 2 4
v -4 2 3
v -3 2 3
v -2 2 3
v 2 2 3
v 3 2 3
v 4 2 3
v -4 2 2
v -3 2 2
v 3 2 2
v 4 2 2
v -2 2 -0
v -1 2 -0
v 1 2 -0
v 2 2 -0
v -4 2 -1
v -3 2 -1
v -2 2 -1
v 2 2 -1
v 3 2 -1
v 4 2 -1
v -4 2 -2
v -3 2 -2
v -2 2 -2
v -1 2 -2
v 1 2 -2
v 2 2 -2
v 3 2 -2
v 4 2 -2
v -3 2 -3
v -2 2 -3
v 2 2 -3
v 3 2 -3
v -2 3 4
v -1 3 4
v 1 3 4
v 2 3 4
v -2 3 3
v -1 3 3
v 1 3 3
v 2 3 3
v -2 3 1
v 2 3 1
v -3 3 -0
v -2 3 -0
v 2 3 -0
v 3 3 -0
v -3 3 -1
v -2 3 -1
v 2 3 -1
v 3 3 -1
v -3 3 -2
v -2 3 -2
v -1 3 -2
v 1 3 -2
v 2 3 -2
v 3 3 -2
v -2 3 -3
v -1 3 -3
v 1 3 -3
v 2 3 -3
v -2 5 4
v -1 5 4
v 1 5 4
v 2 5 4
v -2 5 3
v -1 5 3
v 1 5 3
v 2 5 3
v -3 5 -1
v -1 5 -1
v 1 5 -1
v 3 5 -1
v -3 5 -2
v -1 5 -2
v 1 5 -2
v 3 5 -2
v -4 6 3
v -3 6 3
v 3 6 3
v 4 6 3
v -4 6 2
v -3 6 2
v 3 6 2
v 4 6 2
v -4 6 -1
v -3 6 -1
v 3 6 -1
v 4 6 -1
v -4 6 -2
v -3 6 -2
v 3 6 -2
v 4 6 -2
v -4 14 4
v -3 14 4
v 3 14 4
v 4 14 4
v -4 14 3
v -3 14 3
v 3 14 3
v 4 14 3
v -4 14 -3
v -3 14 -3
v 3 14 -3
v 4 14 -3
v -3 15 4
v 3 15 4
v -3 15 -3
v 3 15 -3

# faces
f 5/2/1 2/2/1 1/2/1
f 6/1/1 3/1/1 2/1/1
f 6/2/1 2/2/1 5/2/1
f 7/2/1 4/2/1 3/2/1
f 7/1/1 3/1/1 6/1/1
f 8/2/1 4/2/1 7/2/1
f 13/1/1 11/1/1 10/1/1
f 13/2/1 12/2/1 11/2/1
f 14/2/1 12/2/1 13/2/1
f 16/2/1 10/2/1 9/2/1
f 17/1/1 13/1/1 10/1/1
f 17/2/1 10/2/1 16/2/1
f 17/1/1 14/1/1 13/1/1
f 18/2/1 15/2/1 14/2/1
f 18/1/1 14/1/1 17/1/1
f 19/2/1 15/2/1 18/2/1
f 23/2/1 21/2/1 20/2/1
f 24/2/1 21/2/1 23/2/1
f 26/1/1 24/1/1 23/1/1
f 26/2/1 25/2/1 24/2/1
f 27/2/1 25/2/1 26/2/1
f 28/2/1 23/2/1 22/2/1
f 29/1/1 26/1/1 23/1/1
f 29/2/1 23/2/1 28/2/1
f 29/1/1 27/1/1 26/1/1
f 30/1/1 27/1/1 29/1/1
f 36/2/1 32/2/1 31/2/1
f 37/1/1 33/1/1 32/1/1
f 37/2/1 32/2/1 36/2/1
f 38/2/1 34/2/1 33/2/1
f 38/1/1 33/1/1 37/1/1
f 39/2/1 34/2/1 38/2/1
f 41/2/1 36/2/1 35/2/1
f 42/2/1 36/2/1 41/2/1
f 45/1/1 40/1/1 39/1/1
f 46/1/1 40/1/1 45/1/1
f 47/1/1 44/1/1 43/1/1
f 48/1/1 44/1/1 47/1/1
f 49/2/1 45/2/1 44/2/1
f 49/1/1 44/1/1 48/1/1
f 50/2/1 45/2/1 49/2/1
f 51/2/1 43/2/1 42/2/1
f 52/1/1 47/1/1 43/1/1
f 52/2/1 43/2/1 51/2/1
f 53/2/1 48/2/1 47/2/1
f 53/1/1 47/1/1 52/1/1
f 54/2/1 48/2/1 53/2/1
f 57/1/1 56/1/1 55/1/1
f 58/1/1 56/1/1 57/1/1
f 64/2/1 60/2/1 59/2/1
f 65/1/1 61/1/1 60/1/1
f 65/2/1 60/2/1 64/2/1
f 66/2/1 62/2/1 61/2/1
f 66/1/1 61/1/1 65/1/1
f 67/2/1 62/2/1 66/2/1
f 69/2/1 64/2/1 63/2/1
f 70/2/1 64/2/1 69/2/1
f 71/1/1 68/1/1 67/1/1
f 72/1/1 68/1/1 71/1/1
f 76/1/1 74/1/1 73/1/1
f 76/1/1 75/1/1 74/1/1
f 77/1/1 75/1/1 76/1/1
f 82/2/1 79/2/1 78/2/1
f 83/2/1 79/2/1 82/2/1
f 84/1/1 81/1/1 80/1/1
f 85/1/1 81/1/1 84/1/1
f 90/2/1 87/2/1 86/2/1
f 91/2/1 87/2/1 90/2/1
f 92/1/1 89/1/1 88/1/1
f 93/1/1 89/1/1 92/1/1
f 96/2/1 95/2/1 94/2/1
f 97/2/1 95/2/1 96/2/1
f 100/2/1 99/2/1 98/2/1
f 101/2/1 99/2/1 100/2/1
f 104/2/1 103/2/1 102/2/1
f 105/2/1 103/2/1 104/2/1
f 108/2/1 107/2/1 106/2/1
f 109/2/1 107/2/1 108/2/1
f 112/1/1 111/1/1 110/1/1
f 113/1/1 111/1/1 112/1/1
f 115/1/1 114/1/1 113/1/1
f 116/1/1 114/1/1 115/1/1
f 119/1/1 118/1/1 117/1/1
f 120/1/1 118/1/1 119/1/1
f 125/1/1 122/1/1 121/1/1
f 126/1/1 122/1/1 125/1/1
f 128/1/1 124/1/1 123/1/1
f 129/2/1 125/2/1 124/2/1
f 129/1/1 124/1/1 128/1/1
f 130/2/1 125/2/1 129/2/1
f 131/2/1 128/2/1 127/2/1
f 132/2/1 128/2/1 131/2/1
f 133/1/1 132/1/1 131/1/1
f 134/1/1 132/1/1 133/1/1
f 137/2/1 136/2/1 135/2/1
f 138/2/1 136/2/1 137/2/1
f 140/1/1 138/1/1 137/1/1
f 141/2/1 139/2/1 138/2/1
f 141/1/1 138/1/1 140/1/1
f 142/2/1 139/2/1 141/2/1
f 143/2/2 144/2/2 145/2/2
f 145/2/2 144/2/2 146/2/2
f 145/1/2 146/1/2 148/1/2
f 146/2/2 147/2/2 149/2/2
f 148/1/2 146/1/2 149/1/2
f 149/2/2 147/2/2 150/2/2
f 151/1/2 152/1/2 155/1/2
f 155/1/2 152/1/2 156/1/2
f 153/1/2 154/1/2 158/1/2
f 154/2/2 155/2/2 159/2/2
f 158/1/2 154/1/2 159/1/2
f 159/2/2 155/2/2 160/2/2
f 157/2/2 158/2/2 161/2/2
f 161/2/2 158/2/2 162/2/2
f 161/1/2 162/1/2 163/1/2
f 163/1/2 162/1/2 164/1/2
f 165/1/2 166/1/2 167/1/2
f 167/1/2 166/1/2 168/1/2
f 168/1/2 169/1/2 170/1/2
f 170/1/2 169/1/2 171/1/2
f 172/1/2 173/1/2 174/1/2
f 174/1/2 173/1/2 175/1/2
f 176/2/2 177/2/2 178/2/2
f 178/2/2 177/2/2 179/2/2
f 180/2/2 181/2/2 182/2/2
f 182/2/2 181/2/2 183/2/2
f 184/2/2 185/2/2 188/2/2
f 188/2/2 185/2/2 189/2/2
f 186/1/2 187/1/2 190/1/2
f 190/1/2 187/1/2 191/1/2
f 192/2/2 193/2/2 196/2/2
f 196/2/2 193/2/2 197/2/2
f 194/1/2 195/1/2 198/1/2
f 198/1/2 195/1/2 199/1/2
f 200/2/2 201/2/2 202/2/2
f 202/2/2 201/2/2 203/2/2
f 204/2/2 205/2/2 206/2/2
f 206/2/2 205/2/2 207/2/2
f 208/2/2 209/2/2 213/2/2
f 209/1/2 210/1/2 214/1/2
f 213/2/2 209/2/2 214/2/2
f 210/2/2 211/2/2 215/2/2
f 214/1/2 210/1/2 215/1/2
f 215/2/2 211/2/2 216/2/2
f 212/2/2 213/2/2 218/2/2
f 218/2/2 213/2/2 219/2/2
f 216/1/2 217/1/2 222/1/2
f 222/1/2 217/1/2 223/1/2
f 220/1/2 221/1/2 224/1/2
f 224/1/2 221/1/2 225/1/2
f 221/2/2 222/2/2 226/2/2
f 225/1/2 221/1/2 226/1/2
f 226/2/2 222/2/2 227/2/2
f 219/2/2 220/2/2 228/2/2
f 220/1/2 224/1/2 229/1/2
f 228/2/2 220/2/2 229/2/2
f 224/2/2 225/2/2 230/2/2
f 229/1/2 224/1/2 230/1/2
f 230/2/2 225/2/2 231/2/2
f 232/1/2 233/1/2 234/1/2
f 234/1/2 233/1/2 235/1/2
f 236/2/2 237/2/2 241/2/2
f 237/1/2 238/1/2 242/1/2
f 241/2/2 237/2/2 242/2/2
f 238/2/2 239/2/2 243/2/2
f 242/1/2 238/1/2 243/1/2
f 243/2/2 239/2/2 244/2/2
f 240/2/2 241/2/2 246/2/2
f 246/2/2 241/2/2 247/2/2
f 244/1/2 245/1/2 248/1/2
f 248/1/2 245/1/2 249/1/2
f 250/1/2 251/1/2 253/1/2
f 251/1/2 252/1/2 253/1/2
f 253/1/2 252/1/2 254/1/2
f 255/2/2 256/2/2 259/2/2
f 256/1/2 257/1/2 260/1/2
f 259/2/2 256/2/2 260/2/2
f 257/2/2 258/2/2 261/2/2
f 260/1/2 257/1/2 261/1/2
f 261/2/2 258/2/2 262/2/2
f 264/1/2 265/1/2 267/1/2
f 265/2/2 266/2/2 267/2/2
f 267/2/2 266/2/2 268/2/2
f 263/2/2 264/2/2 270/2/2
f 264/1/2 267/1/2 271/1/2
f 270/2/2 264/2/2 271/2/2
f 267/1/2 268/1/2 271/1/2
f 268/2/2 269/2/2 272/2/2
f 271/1/2 268/1/2 272/1/2
f 272/2/2 269/2/2 273/2/2
f 274/2/2 275/2/2 277/2/2
f 277/2/2 275/2/2 278/2/2
f 277/1/2 278/1/2 280/1/2
f 278/2/2 279/2/2 280/2/2
f 280/2/2 279/2/2 281/2/2
f 276/2/2 277/2/2 282/2/2
f 277/1/2 280/1/2 283/1/2
f 282/2/2 277/2/2 283/2/2
f 280/1/2 281/1/2 283/1/2
f 283/1/2 281/1/2 284/1/2
f 290/2/3 286/2/3 285/2/3
f 291/2/3 286/2/3 290/2/3
f 294/2/3 288/2/3 287/2/3
f 295/2/3 288/2/3 294/2/3
f 300/2/3 290/2/3 289/2/3
f 301/1/3 292/1/3 291/1/3
f 301/1/3 291/1/3 290/1/3
f 301/2/3 290/2/3 300/2/3
f 302/2/3 294/2/3 293/2/3
f 303/1/3 295/1/3 294/1/3
f 303/2/3 294/2/3 302/2/3
f 304/2/3 296/2/3 295/2/3
f 304/1/3 295/1/3 303/1/3
f 305/2/3 296/2/3 304/2/3
f 306/2/3 298/2/3 297/2/3
f 307/2/3 298/2/3 306/2/3
f 308/2/3 300/2/3 299/2/3
f 309/1/3 301/1/3 300/1/3
f 309/2/3 300/2/3 308/2/3
f 310/1/3 305/1/3 304/1/3
f 310/1/3 303/1/3 302/1/3
f 310/1/3 304/1/3 303/1/3
f 311/1/3 305/1/3 310/1/3
f 312/1/3 305/1/3 311/1/3
f 313/2/3 306/2/3 305/2/3
f 313/1/3 305/1/3 312/1/3
f 314/1/3 307/1/3 306/1/3
f 314/2/3 306/2/3 313/2/3
f 315/2/3 308/2/3 307/2/3
f 315/1/3 307/1/3 314/1/3
f 316/1/3 309/1/3 308/1/3
f 316/2/3 308/2/3 315/2/3
f 317/1/3 301/1/3 309/1/3
f 317/1/3 309/1/3 316/1/3
f 318/2/3 311/2/3 310/2/3
f 319/1/3 312/1/3 311/1/3
f 319/2/3 311/2/3 318/2/3
f 320/2/3 313/2/3 312/2/3
f 320/1/3 312/1/3 319/1/3
f 321/2/3 313/2/3 320/2/3
f 322/2/3 315/2/3 314/2/3
f 323/2/3 315/2/3 322/2/3
f 324/2/3 317/2/3 316/2/3
f 325/1/3 301/1/3 317/1/3
f 325/2/3 317/2/3 324/2/3
f 326/1/3 292/1/3 301/1/3
f 326/1/3 301/1/3 325/1/3
f 327/2/3 320/2/3 319/2/3
f 328/2/3 320/2/3 327/2/3
f 329/2/3 326/2/3 325/2/3
f 330/1/3 292/1/3 326/1/3
f 330/2/3 326/2/3 329/2/3
f 331/1/3 292/1/3 330/1/3
f 332/1/3 292/1/3 331/1/3
f 333/2/3 331/2/3 330/2/3
f 334/2/3 331/2/3 333/2/3
f 342/2/3 336/2/3 335/2/3
f 343/2/3 336/2/3 342/2/3
f 344/2/3 338/2/3 337/2/3
f 345/2/3 338/2/3 344/2/3
f 346/2/3 340/2/3 339/2/3
f 347/2/3 340/2/3 346/2/3
f 348/2/3 342/2/3 341/2/3
f 349/2/3 342/2/3 348/2/3
f 350/2/3 344/2/3 343/2/3
f 351/2/3 344/2/3 350/2/3
f 352/1/3 345/1/3 344/1/3
f 352/2/3 344/2/3 351/2/3
f 353/1/3 345/1/3 352/1/3
f 354/2/3 346/2/3 345/2/3
f 354/1/3 345/1/3 353/1/3
f 355/2/3 346/2/3 354/2/3
f 356/1/3 352/1/3 351/1/3
f 357/1/3 352/1/3 356/1/3
f 358/1/3 354/1/3 353/1/3
f 359/1/3 354/1/3 358/1/3
f 367/1/3 361/1/3 360/1/3
f 368/1/3 361/1/3 367/1/3
f 369/1/3 363/1/3 362/1/3
f 370/1/3 363/1/3 369/1/3
f 372/2/3 365/2/3 364/2/3
f 373/2/3 365/2/3 372/2/3
f 374/2/3 368/2/3 367/2/3
f 374/2/3 367/2/3 366/2/3
f 375/1/3 370/1/3 369/1/3
f 375/1/3 369/1/3 368/1/3
f 375/2/3 368/2/3 374/2/3
f 376/2/3 371/2/3 370/2/3
f 376/1/3 370/1/3 375/1/3
f 377/2/3 371/2/3 376/2/3
f 379/2/3 374/2/3 373/2/3
f 380/2/3 374/2/3 379/2/3
f 381/2/3 376/2/3 375/2/3
f 382/2/3 376/2/3 381/2/3
f 383/2/3 378/2/3 377/2/3
f 384/2/3 378/2/3 383/2/3
f 387/1/3 386/1/3 385/1/3
f 388/1/3 386/1/3 387/1/3
f 391/1/3 390/1/3 389/1/3
f 392/1/3 390/1/3 391/1/3
f 395/1/3 394/1/3 393/1/3
f 396/1/3 394/1/3 395/1/3
f 399/1/3 398/1/3 397/1/3
f 400/1/3 398/1/3 399/1/3
f 401/1/4 402/1/4 404/1/4
f 402/1/4 403/1/4 404/1/4
f 404/1/4 403/1/4 405/1/4
f 405/1/4 403/1/4 406/1/4
f 407/2/4 408/2/4 412/2/4
f 409/1/4 410/1/4 413/1/4
f 408/1/4 409/1/4 413/1/4
f 412/2/4 408/2/4 413/2/4
f 413/1/4 410/1/4 414/1/4
f 411/1/4 412/1/4 416/1/4
f 415/1/4 416/1/4 417/1/4
f 416/1/4 412/1/4 418/1/4
f 417/1/4 416/1/4 418/1/4
f 418/1/4 412/1/4 419/1/4
f 419/1/4 412/1/4 420/1/4
f 420/2/4 421/2/4 423/2/4
f 421/1/4 422/1/4 424/1/4
f 423/2/4 421/2/4 424/2/4
f 424/1/4 422/1/4 425/1/4
f 425/1/4 422/1/4 426/1/4
f 427/2/4 428/2/4 429/2/4
f 429/2/4 428/2/4 430/2/4
f 431/2/4 432/2/4 433/2/4
f 433/2/4 432/2/4 434/2/4
f 435/2/4 436/2/4 442/2/4
f 442/2/4 436/2/4 443/2/4
f 437/2/4 438/2/4 446/2/4
f 446/2/4 438/2/4 447/2/4
f 439/2/4 440/2/4 448/2/4
f 448/2/4 440/2/4 449/2/4
f 441/2/4 442/2/4 450/2/4
f 450/2/4 442/2/4 451/2/4
f 443/2/4 444/2/4 452/2/4
f 452/2/4 444/2/4 453/2/4
f 447/2/4 448/2/4 454/2/4
f 454/2/4 448/2/4 455/2/4
f 451/1/4 452/1/4 456/1/4
f 456/1/4 452/1/4 457/1/4
f 445/1/4 446/1/4 458/1/4
f 458/1/4 446/1/4 459/1/4
f 460/1/4 461/1/4 465/1/4
f 465/1/4 461/1/4 466/1/4
f 454/1/4 455/1/4 468/1/4
f 468/1/4 455/1/4 469/1/4
f 464/2/4 465/2/4 470/2/4
f 470/2/4 465/2/4 471/2/4
f 466/2/4 467/2/4 472/2/4
f 472/2/4 467/2/4 473/2/4
f 462/1/4 463/1/4 474/1/4
f 474/1/4 463/1/4 475/1/4
f 468/2/4 469/2/4 476/2/4
f 476/2/4 469/2/4 477/2/4
f 471/2/4 472/2/4 479/2/4
f 479/2/4 472/2/4 480/2/4
f 475/2/4 476/2/4 481/2/4
f 481/2/4 476/2/4 482/2/4
f 477/2/4 478/2/4 483/2/4
f 483/2/4 478/2/4 484/2/4
f 485/2/4 486/2/4 491/2/4
f 486/1/4 487/1/4 492/1/4
f 491/2/4 486/2/4 492/2/4
f 492/1/4 487/1/4 493/1/4
f 493/1/4 487/1/4 494/1/4
f 488/1/4 489/1/4 497/1/4
f 497/1/4 489/1/4 498/1/4
f 498/1/4 499/1/4 500/1/4
f 500/1/4 499/1/4 501/1/4
f 490/1/4 491/1/4 502/1/4
f 491/1/4 492/1/4 502/1/4
f 492/1/4 493/1/4 502/1/4
f 502/1/4 493/1/4 503/1/4
f 503/1/4 493/1/4 504/1/4
f 504/1/4 493/1/4 505/1/4
f 493/3/4 494/3/4 506/3/4
f 505/1/4 493/1/4 506/1/4
f 494/1/4 495/1/4 507/1/4
f 506/3/4 494/3/4 507/3/4
f 490/1/4 502/1/4 510/1/4
f 502/3/4 503/3/4 510/3/4
f 503/1/4 504/1/4 511/1/4
f 510/3/4 503/3/4 511/3/4
f 504/2/4 505/2/4 512/2/4
f 511/1/4 504/1/4 512/1/4
f 505/1/4 506/1/4 513/1/4
f 512/2/4 505/2/4 513/2/4
f 506/1/4 507/1/4 513/1/4
f 513/1/4 507/1/4 514/1/4
f 507/1/4 495/1/4 515/1/4
f 514/1/4 507/1/4 515/1/4
f 496/1/4 497/1/4 516/1/4
f 516/1/4 497/1/4 517/1/4
f 508/1/4 509/1/4 518/1/4
f 518/1/4 509/1/4 519/1/4
f 517/1/4 518/1/4 520/1/4
f 520/1/4 518/1/4 521/1/4
f 511/1/4 512/1/4 522/1/4
f 513/1/4 514/1/4 522/1/4
f 510/1/4 511/1/4 522/1/4
f 490/1/4 510/1/4 522/1/4
f 512/1/4 513/1/4 522/1/4
f 522/1/4 514/1/4 523/1/4
f 523/1/4 514/1/4 524/1/4
f 514/3/4 515/3/4 525/3/4
f 524/1/4 514/1/4 525/1/4
f 515/1/4 495/1/4 526/1/4
f 525/3/4 515/3/4 526/3/4
f 526/1/4 495/1/4 527/1/4
f 523/2/4 524/2/4 528/2/4
f 524/1/4 525/1/4 529/1/4
f 528/2/4 524/2/4 529/2/4
f 525/1/4 526/1/4 529/1/4
f 529/1/4 526/1/4 530/1/4
f 536/2/5 532/2/5 531/2/5
f 537/1/5 533/1/5 532/1/5
f 537/2/5 532/2/5 536/2/5
f 538/2/5 534/2/5 533/2/5
f 538/1/5 533/1/5 537/1/5
f 539/2/5 534/2/5 538/2/5
f 541/2/5 536/2/5 535/2/5
f 542/1/5 537/1/5 536/1/5
f 542/2/5 536/2/5 541/2/5
f 542/1/5 538/1/5 537/1/5
f 542/1/5 539/1/5 538/1/5
f 543/2/5 540/2/5 539/2/5
f 543/1/5 539/1/5 542/1/5
f 544/2/5 540/2/5 543/2/5
f 545/1/5 542/1/5 541/1/5
f 545/1/5 543/1/5 542/1/5
f 545/1/5 544/1/5 543/1/5
f 546/1/5 544/1/5 545/1/5
f 547/1/5 544/1/5 546/1/5
f 548/1/5 544/1/5 547/1/5
f 549/2/5 546/2/5 545/2/5
f 550/1/5 547/1/5 546/1/5
f 550/2/5 546/2/5 549/2/5
f 551/2/5 548/2/5 547/2/5
f 551/1/5 547/1/5 550/1/5
f 552/2/5 548/2/5 551/2/5
f 553/1/5 551/1/5 550/1/5
f 554/1/5 551/1/5 553/1/5
f 560/2/5 556/2/5 555/2/5
f 561/2/5 556/2/5 560/2/5
f 562/2/5 558/2/5 557/2/5
f 563/2/5 558/2/5 562/2/5
f 565/2/5 560/2/5 559/2/5
f 566/2/5 560/2/5 565/2/5
f 567/2/5 564/2/5 563/2/5
f 568/2/5 564/2/5 567/2/5
f 569/1/5 566/1/5 565/1/5
f 570/1/5 566/1/5 569/1/5
f 571/1/5 568/1/5 567/1/5
f 572/1/5 568/1/5 571/1/5
f 573/2/5 570/2/5 569/2/5
f 574/2/5 570/2/5 573/2/5
f 577/2/5 572/2/5 571/2/5
f 578/2/5 572/2/5 577/2/5
f 579/1/5 575/1/5 574/1/5
f 580/1/5 575/1/5 579/1/5
f 581/1/5 577/1/5 576/1/5
f 582/1/5 577/1/5 581/1/5
f 587/1/5 584/1/5 583/1/5
f 588/1/5 584/1/5 587/1/5
f 589/1/5 586/1/5 585/1/5
f 590/1/5 586/1/5 589/1/5
f 597/2/5 592/2/5 591/2/5
f 598/2/5 592/2/5 597/2/5
f 599/2/5 594/2/5 593/2/5
f 600/2/5 594/2/5 599/2/5
f 603/2/5 596/2/5 595/2/5
f 604/2/5 596/2/5 603/2/5
f 605/2/5 602/2/5 601/2/5
f 606/2/5 602/2/5 605/2/5
f 607/1/5 604/1/5 603/1/5
f 608/1/5 606/1/5 605/1/5
f 609/1/5 607/1/5 603/1/5
f 610/1/5 607/1/5 609/1/5
f 611/1/5 606/1/5 608/1/5
f 612/1/5 606/1/5 611/1/5
f 613/2/5 610/2/5 609/2/5
f 614/2/5 610/2/5 613/2/5
f 617/2/5 612/2/5 611/2/5
f 618/2/5 612/2/5 617/2/5
f 619/1/5 615/1/5 614/1/5
f 620/1/5 615/1/5 619/1/5
f 621/1/5 617/1/5 616/1/5
f 622/1/5 617/1/5 621/1/5
f 627/2/5 624/2/5 623/2/5
f 628/2/5 624/2/5 627/2/5
f 629/2/5 626/2/5 625/2/5
f 630/2/5 626/2/5 629/2/5
f 635/2/5 632/2/5 631/2/5
f 636/2/5 632/2/5 635/2/5
f 637/2/5 634/2/5 633/2/5
f 638/2/5 634/2/5 637/2/5
f 642/1/5 640/1/5 639/1/5
f 643/1/5 640/1/5 642/1/5
f 645/1/5 643/1/5 642/1/5
f 645/1/5 644/1/5 643/1/5
f 645/1/5 642/1/5 641/1/5
f 646/1/5 644/1/5 645/1/5
f 647/1/5 644/1/5 646/1/5
f 648/1/5 644/1/5 647/1/5
f 649/2/5 646/2/5 645/2/5
f 650/1/5 647/1/5 646/1/5
f 650/2/5 646/2/5 649/2/5
f 651/2/5 648/2/5 647/2/5
f 651/1/5 647/1/5 650/1/5
f 652/2/5 648/2/5 651/2/5
f 658/2/5 654/2/5 653/2/5
f 659/2/5 654/2/5 658/2/5
f 660/2/5 656/2/5 655/2/5
f 661/2/5 656/2/5 660/2/5
f 663/2/5 658/2/5 657/2/5
f 664/2/5 662/2/5 661/2/5
f 665/2/5 663/2/5 657/2/5
f 666/2/5 662/2/5 664/2/5
f 667/2/5 665/2/5 657/2/5
f 668/2/5 665/2/5 667/2/5
f 671/2/5 662/2/5 666/2/5
f 672/2/5 662/2/5 671/2/5
f 673/1/5 670/1/5 669/1/5
f 673/1/5 671/1/5 670/1/5
f 673/1/5 669/1/5 668/1/5
f 674/1/5 671/1/5 673/1/5
f 679/2/5 676/2/5 675/2/5
f 680/2/5 676/2/5 679/2/5
f 681/2/5 678/2/5 677/2/5
f 682/2/5 678/2/5 681/2/5
f 687/2/5 684/2/5 683/2/5
f 688/2/5 684/2/5 687/2/5
f 689/2/5 686/2/5 685/2/5
f 690/2/5 686/2/5 689/2/5
f 691/1/6 692/1/6 694/1/6
f 694/1/6 692/1/6 695/1/6
f 693/1/6 694/1/6 697/1/6
f 695/1/6 696/1/6 697/1/6
f 694/1/6 695/1/6 697/1/6
f 697/1/6 696/1/6 698/1/6
f 699/2/6 700/2/6 704/2/6
f 704/2/6 700/2/6 705/2/6
f 701/2/6 702/2/6 706/2/6
f 706/2/6 702/2/6 707/2/6
f 703/2/6 704/2/6 709/2/6
f 709/2/6 704/2/6 710/2/6
f 707/2/6 708/2/6 711/2/6
f 711/2/6 708/2/6 712/2/6
f 709/1/6 710/1/6 717/1/6
f 717/1/6 710/1/6 718/1/6
f 713/1/6 714/1/6 719/1/6
f 715/1/6 716/1/6 720/1/6
f 711/1/6 712/1/6 721/1/6
f 721/1/6 712/1/6 722/1/6
f 717/2/6 718/2/6 723/2/6
f 723/2/6 718/2/6 724/2/6
f 719/1/6 714/1/6 725/1/6
f 725/1/6 714/1/6 726/1/6
f 715/1/6 720/1/6 727/1/6
f 727/1/6 720/1/6 728/1/6
f 721/2/6 722/2/6 729/2/6
f 729/2/6 722/2/6 730/2/6
f 724/1/6 725/1/6 731/1/6
f 731/1/6 725/1/6 732/1/6
f 728/1/6 729/1/6 733/1/6
f 733/1/6 729/1/6 734/1/6
f 735/2/6 736/2/6 739/2/6
f 739/2/6 736/2/6 740/2/6
f 737/2/6 738/2/6 741/2/6
f 741/2/6 738/2/6 742/2/6
f 743/1/6 744/1/6 746/1/6
f 746/1/6 744/1/6 747/1/6
f 745/1/6 746/1/6 749/1/6
f 749/1/6 746/1/6 750/1/6
f 747/1/6 748/1/6 751/1/6
f 751/1/6 748/1/6 752/1/6
f 749/2/6 750/2/6 753/2/6
f 753/2/6 750/2/6 754/2/6
f 751/2/6 752/2/6 757/2/6
f 757/2/6 752/2/6 758/2/6
f 754/1/6 755/1/6 759/1/6
f 759/1/6 755/1/6 760/1/6
f 756/1/6 757/1/6 761/1/6
f 761/1/6 757/1/6 762/1/6
f 763/2/6 764/2/6 767/2/6
f 767/2/6 764/2/6 768/2/6
f 765/2/6 766/2/6 769/2/6
f 769/2/6 766/2/6 770/2/6
f 771/1/6 772/1/6 775/1/6
f 775/1/6 772/1/6 776/1/6
f 773/1/6 774/1/6 777/1/6
f 777/1/6 774/1/6 778/1/6
f 779/2/6 780/2/6 783/2/6
f 783/2/6 780/2/6 784/2/6
f 781/2/6 782/2/6 785/2/6
f 785/2/6 782/2/6 786/2/6
f 783/1/6 784/1/6 787/1/6
f 787/1/6 784/1/6 788/1/6
f 785/1/6 786/1/6 789/1/6
f 789/1/6 786/1/6 790/1/6
f 787/2/6 788/2/6 791/2/6
f 791/2/6 788/2/6 792/2/6
f 789/2/6 790/2/6 793/2/6
f 793/2/6 790/2/6 794/2/6
f 795/2/6 796/2/6 799/2/6
f 799/2/6 796/2/6 800/2/6
f 797/2/6 798/2/6 801/2/6
f 801/2/6 798/2/6 802/2/6
f 799/1/6 800/1/6 803/1/6
f 803/1/6 800/1/6 804/1/6
f 801/1/6 802/1/6 805/1/6
f 805/1/6 802/1/6 806/1/6
f 807/1/6 808/1/6 809/1/6
f 809/1/6 808/1/6 810/1/6
