# MagicaVoxel @ ephtracy

# material
mtllib stone2.mtl
usemtl palette

# normals
vn -1 0 0
vn 1 0 0
vn 0 0 1
vn 0 0 -1
vn 0 -1 0
vn 0 1 0

# texcoords
vt 0.927734 0.5
vt 0.931641 0.5
vt 0.935547 0.5
vt 0.939453 0.5
vt 0.978516 0.5
vt 0.982422 0.5
vt 0.994141 0.5

# verts
v -8 0 8
v -8 0 -8
v -8 15 8
v -8 15 -8
v -8 16 8
v -8 16 -8
v 0 15 -2
v 0 15 -6
v 0 16 -2
v 0 16 -6
v 1 14 -3
v 1 14 -5
v 1 15 8
v 1 15 6
v 1 15 4
v 1 15 3
v 1 15 -2
v 1 15 -3
v 1 15 -5
v 1 15 -6
v 1 15 -8
v 1 16 8
v 1 16 6
v 1 16 4
v 1 16 3
v 1 16 -2
v 1 16 -6
v 1 16 -8
v 2 0 -2
v 2 0 -3
v 2 0 -5
v 2 0 -7
v 2 2 -5
v 2 3 -3
v 2 3 -4
v 2 3 -5
v 2 5 -5
v 2 5 -6
v 2 7 -5
v 2 7 -6
v 2 9 -3
v 2 9 -5
v 2 11 -3
v 2 11 -5
v 2 13 8
v 2 13 7
v 2 13 -7
v 2 13 -8
v 2 14 7
v 2 14 6
v 2 14 4
v 2 14 2
v 2 14 -1
v 2 14 -2
v 2 14 -3
v 2 14 -5
v 2 15 8
v 2 15 6
v 2 15 5
v 2 15 4
v 2 15 2
v 2 15 -1
v 2 15 -3
v 2 15 -5
v 2 15 -8
v 2 16 6
v 2 16 5
v 2 16 4
v 3 0 8
v 3 0 -2
v 3 0 -3
v 3 0 -5
v 3 0 -7
v 3 0 -8
v 3 2 -4
v 3 2 -5
v 3 3 4
v 3 3 3
v 3 3 -3
v 3 3 -4
v 3 3 -5
v 3 4 7
v 3 4 6
v 3 4 3
v 3 4 2
v 3 5 4
v 3 5 3
v 3 6 3
v 3 6 2
v 3 9 7
v 3 9 6
v 3 9 4
v 3 9 3
v 3 10 -0
v 3 10 -1
v 3 11 4
v 3 11 3
v 3 13 8
v 3 13 7
v 3 13 -0
v 3 13 -1
v 3 13 -7
v 3 13 -8
v 3 14 7
v 3 14 6
v 3 14 4
v 3 14 2
v 3 14 -1
v 3 14 -2
v 3 15 6
v 3 15 4
v 3 15 2
v 3 15 -1
v -8 0 8
v -8 15 8
v -8 16 8
v 1 0 8
v 1 15 8
v 1 16 8
v 2 13 8
v 2 15 8
v 3 0 8
v 3 13 8
v 2 13 7
v 2 14 7
v 3 13 7
v 3 14 7
v 1 15 6
v 1 16 6
v 2 14 6
v 2 15 6
v 2 16 6
v 3 14 6
v 3 15 6
v 2 14 2
v 2 15 2
v 3 14 2
v 3 15 2
v 2 0 -3
v 2 3 -3
v 3 0 -3
v 3 3 -3
v 1 14 -5
v 1 15 -5
v 2 14 -5
v 2 15 -5
v 0 15 -6
v 0 16 -6
v 1 15 -6
v 1 16 -6
v 2 0 -7
v 2 13 -7
v 3 0 -7
v 3 13 -7
v 1 15 4
v 1 16 4
v 2 14 4
v 2 15 4
v 2 16 4
v 3 14 4
v 3 15 4
v 2 14 -1
v 2 15 -1
v 3 14 -1
v 3 15 -1
v 0 15 -2
v 0 16 -2
v 1 15 -2
v 1 16 -2
v 2 0 -2
v 2 14 -2
v 3 0 -2
v 3 14 -2
v 1 14 -3
v 1 15 -3
v 2 14 -3
v 2 15 -3
v 2 0 -5
v 2 2 -5
v 2 3 -5
v 3 0 -5
v 3 2 -5
v 3 3 -5
v -8 0 -8
v -8 15 -8
v -8 16 -8
v 1 0 -8
v 1 15 -8
v 1 16 -8
v 2 13 -8
v 2 15 -8
v 3 0 -8
v 3 13 -8
v -8 0 8
v 1 0 8
v 3 0 8
v -7 0 7
v 1 0 7
v 2 0 -2
v 3 0 -2
v 2 0 -3
v 3 0 -3
v 2 0 -5
v 3 0 -5
v -7 0 -7
v 1 0 -7
v 2 0 -7
v 3 0 -7
v -8 0 -8
v 1 0 -8
v 3 0 -8
v 2 3 -3
v 3 3 -3
v 2 3 -4
v 3 3 -4
v 2 3 -5
v 3 3 -5
v 2 13 8
v 3 13 8
v 2 13 7
v 3 13 7
v 2 13 -7
v 3 13 -7
v 2 13 -8
v 3 13 -8
v 2 14 7
v 3 14 7
v 2 14 6
v 3 14 6
v 2 14 4
v 3 14 4
v 2 14 2
v 3 14 2
v 2 14 -1
v 3 14 -1
v 2 14 -2
v 3 14 -2
v 1 14 -3
v 2 14 -3
v 1 14 -5
v 2 14 -5
v 1 15 8
v 2 15 8
v 1 15 6
v 2 15 6
v 3 15 6
v 2 15 5
v 1 15 4
v 2 15 4
v 3 15 4
v 1 15 3
v 2 15 2
v 3 15 2
v 2 15 -1
v 3 15 -1
v 0 15 -2
v 1 15 -2
v 1 15 -3
v 2 15 -3
v 1 15 -5
v 2 15 -5
v 0 15 -6
v 1 15 -6
v 1 15 -8
v 2 15 -8
v -8 16 8
v 1 16 8
v 1 16 6
v 2 16 6
v 1 16 5
v 2 16 5
v 0 16 4
v 1 16 4
v 2 16 4
v 0 16 3
v 1 16 3
v 0 16 -2
v 1 16 -2
v 0 16 -6
v 1 16 -6
v -8 16 -8
v 1 16 -8

# faces
f 3/7/1 2/7/1 1/7/1
f 4/7/1 2/7/1 3/7/1
f 5/2/1 4/2/1 3/2/1
f 6/2/1 4/2/1 5/2/1
f 7/2/2 8/2/2 9/2/2
f 9/2/2 8/2/2 10/2/2
f 11/2/2 12/2/2 18/2/2
f 18/2/2 12/2/2 19/2/2
f 13/2/2 14/2/2 22/2/2
f 22/2/2 14/2/2 23/2/2
f 15/5/2 16/5/2 24/5/2
f 16/2/2 17/2/2 25/2/2
f 24/5/2 16/5/2 25/5/2
f 25/2/2 17/2/2 26/2/2
f 20/2/2 21/2/2 27/2/2
f 27/2/2 21/2/2 28/2/2
f 31/2/2 32/2/2 33/2/2
f 29/2/2 30/2/2 34/2/2
f 33/2/2 32/2/2 36/2/2
f 34/2/2 35/2/2 37/2/2
f 35/2/2 36/2/2 37/2/2
f 36/2/2 32/2/2 37/2/2
f 37/2/2 32/2/2 38/2/2
f 34/2/2 37/2/2 39/2/2
f 37/4/2 38/4/2 39/4/2
f 38/2/2 32/2/2 40/2/2
f 39/4/2 38/4/2 40/4/2
f 29/2/2 34/2/2 41/2/2
f 34/2/2 39/2/2 41/2/2
f 39/2/2 40/2/2 41/2/2
f 41/2/2 40/2/2 42/2/2
f 29/2/2 41/2/2 43/2/2
f 41/4/2 42/4/2 43/4/2
f 42/2/2 40/2/2 44/2/2
f 43/4/2 42/4/2 44/4/2
f 40/2/2 32/2/2 47/2/2
f 43/2/2 44/2/2 47/2/2
f 44/2/2 40/2/2 47/2/2
f 45/2/2 46/2/2 49/2/2
f 47/2/2 48/2/2 54/2/2
f 29/2/2 43/2/2 54/2/2
f 43/2/2 47/2/2 54/2/2
f 54/2/2 48/2/2 55/2/2
f 55/2/2 48/2/2 56/2/2
f 49/2/2 50/2/2 57/2/2
f 45/2/2 49/2/2 57/2/2
f 57/2/2 50/2/2 58/2/2
f 51/2/2 52/2/2 60/2/2
f 60/2/2 52/2/2 61/2/2
f 54/2/2 55/2/2 62/2/2
f 53/2/2 54/2/2 62/2/2
f 62/2/2 55/2/2 63/2/2
f 56/2/2 48/2/2 64/2/2
f 64/2/2 48/2/2 65/2/2
f 58/2/2 59/2/2 66/2/2
f 59/5/2 60/5/2 67/5/2
f 66/2/2 59/2/2 67/2/2
f 67/5/2 60/5/2 68/5/2
f 71/2/2 72/2/2 75/2/2
f 75/2/2 72/2/2 76/2/2
f 69/2/2 70/2/2 77/2/2
f 77/2/2 70/2/2 78/2/2
f 71/2/2 75/2/2 79/2/2
f 75/3/2 76/3/2 80/3/2
f 79/2/2 75/2/2 80/2/2
f 80/3/2 76/3/2 81/3/2
f 69/2/2 77/2/2 82/2/2
f 82/2/2 77/2/2 83/2/2
f 78/2/2 70/2/2 84/2/2
f 77/6/2 78/6/2 84/6/2
f 84/2/2 70/2/2 85/2/2
f 83/2/2 77/2/2 86/2/2
f 77/6/2 84/6/2 86/6/2
f 84/1/2 85/1/2 87/1/2
f 86/6/2 84/6/2 87/6/2
f 86/2/2 87/2/2 88/2/2
f 87/1/2 85/1/2 88/1/2
f 85/2/2 70/2/2 89/2/2
f 88/1/2 85/1/2 89/1/2
f 82/1/2 83/1/2 90/1/2
f 69/2/2 82/2/2 90/2/2
f 86/2/2 88/2/2 91/2/2
f 90/1/2 83/1/2 91/1/2
f 88/2/2 89/2/2 91/2/2
f 83/2/2 86/2/2 91/2/2
f 91/2/2 89/2/2 92/2/2
f 92/2/2 89/2/2 93/2/2
f 89/2/2 70/2/2 94/2/2
f 93/2/2 89/2/2 94/2/2
f 94/2/2 70/2/2 95/2/2
f 92/4/2 93/4/2 96/4/2
f 90/2/2 91/2/2 96/2/2
f 91/2/2 92/2/2 96/2/2
f 93/2/2 94/2/2 97/2/2
f 96/4/2 93/4/2 97/4/2
f 69/2/2 90/2/2 98/2/2
f 90/2/2 96/2/2 98/2/2
f 96/2/2 97/2/2 98/2/2
f 98/2/2 97/2/2 99/2/2
f 97/2/2 94/2/2 100/2/2
f 99/2/2 97/2/2 100/2/2
f 94/6/2 95/6/2 100/6/2
f 95/2/2 70/2/2 101/2/2
f 100/6/2 95/6/2 101/6/2
f 73/2/2 74/2/2 102/2/2
f 102/2/2 74/2/2 103/2/2
f 100/2/2 101/2/2 104/2/2
f 99/2/2 100/2/2 104/2/2
f 104/2/2 101/2/2 105/2/2
f 105/2/2 101/2/2 106/2/2
f 106/2/2 101/2/2 107/2/2
f 101/2/2 70/2/2 108/2/2
f 107/2/2 101/2/2 108/2/2
f 108/2/2 70/2/2 109/2/2
f 105/2/2 106/2/2 110/2/2
f 110/2/2 106/2/2 111/2/2
f 107/2/2 108/2/2 112/2/2
f 112/2/2 108/2/2 113/2/2
f 117/7/3 115/7/3 114/7/3
f 118/2/3 116/2/3 115/2/3
f 118/7/3 115/7/3 117/7/3
f 119/2/3 116/2/3 118/2/3
f 120/2/3 118/2/3 117/2/3
f 121/2/3 118/2/3 120/2/3
f 122/2/3 120/2/3 117/2/3
f 123/2/3 120/2/3 122/2/3
f 126/2/3 125/2/3 124/2/3
f 127/2/3 125/2/3 126/2/3
f 131/2/3 129/2/3 128/2/3
f 132/2/3 129/2/3 131/2/3
f 133/2/3 131/2/3 130/2/3
f 134/2/3 131/2/3 133/2/3
f 137/2/3 136/2/3 135/2/3
f 138/2/3 136/2/3 137/2/3
f 141/2/3 140/2/3 139/2/3
f 142/2/3 140/2/3 141/2/3
f 145/2/3 144/2/3 143/2/3
f 146/2/3 144/2/3 145/2/3
f 149/2/3 148/2/3 147/2/3
f 150/2/3 148/2/3 149/2/3
f 153/2/3 152/2/3 151/2/3
f 154/2/3 152/2/3 153/2/3
f 155/5/4 156/5/4 158/5/4
f 158/5/4 156/5/4 159/5/4
f 157/2/4 158/2/4 160/2/4
f 160/2/4 158/2/4 161/2/4
f 162/2/4 163/2/4 164/2/4
f 164/2/4 163/2/4 165/2/4
f 166/2/4 167/2/4 168/2/4
f 168/2/4 167/2/4 169/2/4
f 170/2/4 171/2/4 172/2/4
f 172/2/4 171/2/4 173/2/4
f 174/2/4 175/2/4 176/2/4
f 176/2/4 175/2/4 177/2/4
f 178/2/4 179/2/4 181/2/4
f 179/3/4 180/3/4 182/3/4
f 181/2/4 179/2/4 182/2/4
f 182/3/4 180/3/4 183/3/4
f 184/7/4 185/7/4 187/7/4
f 185/2/4 186/2/4 188/2/4
f 187/7/4 185/7/4 188/7/4
f 188/2/4 186/2/4 189/2/4
f 187/2/4 188/2/4 190/2/4
f 190/2/4 188/2/4 191/2/4
f 187/2/4 190/2/4 192/2/4
f 192/2/4 190/2/4 193/2/4
f 197/7/5 195/7/5 194/7/5
f 198/2/5 196/2/5 195/2/5
f 198/7/5 195/7/5 197/7/5
f 199/2/5 196/2/5 198/2/5
f 200/2/5 196/2/5 199/2/5
f 201/2/5 199/2/5 198/2/5
f 203/2/5 201/2/5 198/2/5
f 203/2/5 202/2/5 201/2/5
f 204/2/5 202/2/5 203/2/5
f 205/7/5 197/7/5 194/7/5
f 205/3/5 198/3/5 197/3/5
f 206/2/5 203/2/5 198/2/5
f 206/3/5 198/3/5 205/3/5
f 207/2/5 203/2/5 206/2/5
f 209/7/5 205/7/5 194/7/5
f 209/7/5 206/7/5 205/7/5
f 210/2/5 208/2/5 207/2/5
f 210/7/5 206/7/5 209/7/5
f 210/2/5 207/2/5 206/2/5
f 211/2/5 208/2/5 210/2/5
f 212/2/6 213/2/6 214/2/6
f 214/2/6 213/2/6 215/2/6
f 214/3/6 215/3/6 216/3/6
f 216/3/6 215/3/6 217/3/6
f 218/2/6 219/2/6 220/2/6
f 220/2/6 219/2/6 221/2/6
f 222/2/6 223/2/6 224/2/6
f 224/2/6 223/2/6 225/2/6
f 226/2/6 227/2/6 228/2/6
f 228/2/6 227/2/6 229/2/6
f 230/2/6 231/2/6 232/2/6
f 232/2/6 231/2/6 233/2/6
f 234/2/6 235/2/6 236/2/6
f 236/2/6 235/2/6 237/2/6
f 238/2/6 239/2/6 240/2/6
f 240/2/6 239/2/6 241/2/6
f 242/2/6 243/2/6 244/2/6
f 244/2/6 243/2/6 245/2/6
f 245/2/6 246/2/6 247/2/6
f 247/2/6 246/2/6 249/2/6
f 249/2/6 246/2/6 250/2/6
f 248/2/6 249/2/6 251/2/6
f 251/2/6 249/2/6 252/2/6
f 251/2/6 252/2/6 254/2/6
f 252/2/6 253/2/6 254/2/6
f 254/2/6 253/2/6 255/2/6
f 251/2/6 254/2/6 257/2/6
f 257/2/6 254/2/6 258/2/6
f 256/2/6 257/2/6 258/2/6
f 258/2/6 254/2/6 259/2/6
f 256/2/6 258/2/6 260/2/6
f 256/2/6 260/2/6 262/2/6
f 260/2/6 261/2/6 262/2/6
f 262/2/6 261/2/6 263/2/6
f 263/2/6 261/2/6 264/2/6
f 264/2/6 261/2/6 265/2/6
f 266/2/6 267/2/6 268/2/6
f 266/2/6 268/2/6 270/2/6
f 268/2/6 269/2/6 270/2/6
f 270/2/6 269/2/6 271/2/6
f 266/2/6 270/2/6 272/2/6
f 270/5/6 271/5/6 273/5/6
f 272/2/6 270/2/6 273/2/6
f 273/5/6 271/5/6 274/5/6
f 266/2/6 272/2/6 275/2/6
f 272/5/6 273/5/6 275/5/6
f 275/5/6 273/5/6 276/5/6
f 266/2/6 275/2/6 277/2/6
f 275/2/6 276/2/6 277/2/6
f 277/2/6 276/2/6 278/2/6
f 266/2/6 277/2/6 279/2/6
f 266/2/6 279/2/6 281/2/6
f 279/2/6 280/2/6 281/2/6
f 281/2/6 280/2/6 282/2/6
