# MagicaVoxel @ ephtracy

# material
mtllib stone3.mtl
usemtl palette

# normals
vn -1 0 0
vn 1 0 0
vn 0 0 1
vn 0 0 -1
vn 0 -1 0
vn 0 1 0

# texcoords
vt 0.927734 0.5
vt 0.931641 0.5
vt 0.935547 0.5
vt 0.943359 0.5
vt 0.951172 0.5
vt 0.994141 0.5

# verts
v -8 0 8
v -8 0 -4
v -8 0 -5
v -8 1 -3
v -8 1 -4
v -8 1 -5
v -8 9 -3
v -8 9 -4
v -8 11 -3
v -8 11 -4
v -8 16 8
v -8 16 -3
v -8 16 -4
v -5 1 -4
v -5 1 -5
v -5 3 -4
v -5 3 -5
v -5 5 -4
v -5 5 -5
v -5 9 -4
v -5 9 -5
v -5 10 -4
v -5 10 -5
v -5 13 -4
v -5 13 -5
v -4 0 -5
v -4 0 -6
v -4 1 -5
v -4 1 -6
v -4 13 -4
v -4 13 -5
v -4 14 -4
v -4 14 -5
v -1 7 -4
v -1 7 -5
v -1 9 -4
v -1 9 -5
v -3 8 -4
v -3 8 -5
v -3 14 -4
v -3 14 -5
v -2 7 -4
v -2 7 -5
v -2 8 -4
v -2 8 -5
v 0 7 -4
v 0 7 -5
v 0 9 -4
v 0 9 -5
v 1 0 -5
v 1 0 -6
v 1 1 -4
v 1 1 -5
v 1 1 -6
v 1 7 -4
v 1 7 -5
v 2 6 -1
v 2 6 -2
v 2 16 -1
v 2 16 -2
v 3 0 -4
v 3 0 -5
v 3 1 -4
v 3 1 -5
v 3 2 -1
v 3 2 -2
v 3 6 5
v 3 6 3
v 3 6 -1
v 3 6 -2
v 3 6 -4
v 3 8 -0
v 3 8 -1
v 3 9 8
v 3 9 5
v 3 9 -3
v 3 9 -4
v 3 10 3
v 3 10 2
v 3 11 8
v 3 11 7
v 3 11 4
v 3 11 3
v 3 11 1
v 3 11 -0
v 3 12 -3
v 3 12 -4
v 3 13 4
v 3 13 3
v 3 13 2
v 3 13 1
v 3 16 8
v 3 16 7
v 3 16 -1
v 3 16 -2
v 3 16 -4
v 4 1 5
v 4 1 3
v 4 1 -0
v 4 1 -1
v 4 1 -2
v 4 1 -3
v 4 1 -4
v 4 2 -1
v 4 2 -2
v 4 5 6
v 4 5 5
v 4 5 3
v 4 5 -0
v 4 6 5
v 4 6 3
v 4 6 -2
v 4 6 -4
v 4 7 8
v 4 7 6
v 4 7 2
v 4 7 1
v 4 8 -0
v 4 8 -1
v 4 9 8
v 4 9 5
v 4 9 2
v 4 9 1
v 4 10 3
v 4 10 2
v 4 11 1
v 4 11 -0
v 4 13 2
v 4 13 1
v 5 0 5
v 5 0 3
v 5 0 1
v 5 0 -0
v 5 0 -1
v 5 0 -3
v 5 0 -4
v 5 1 7
v 5 1 6
v 5 1 5
v 5 1 3
v 5 1 1
v 5 1 -0
v 5 1 -1
v 5 1 -3
v 5 1 -4
v 5 2 8
v 5 2 7
v 5 5 8
v 5 5 6
v 5 5 5
v 5 5 3
v 5 5 -0
v 5 7 8
v 5 7 6
v 6 0 8
v 6 0 7
v 6 0 6
v 6 0 5
v 6 0 3
v 6 0 1
v 6 1 7
v 6 1 6
v 6 1 5
v 6 1 3
v 6 1 1
v 6 2 8
v 6 2 7
v -8 0 8
v -8 16 8
v 1 0 8
v 1 16 8
v 2 11 8
v 2 16 8
v 3 9 8
v 3 11 8
v 3 16 8
v 4 5 8
v 4 7 8
v 4 9 8
v 5 0 8
v 5 2 8
v 5 5 8
v 5 7 8
v 6 0 8
v 6 2 8
v 3 6 3
v 3 10 3
v 4 1 3
v 4 5 3
v 4 6 3
v 4 10 3
v 5 0 3
v 5 1 3
v 5 5 3
v 6 0 3
v 6 1 3
v 3 10 2
v 3 13 2
v 4 10 2
v 4 13 2
v 2 6 -2
v 2 16 -2
v 3 2 -2
v 3 6 -2
v 3 16 -2
v 4 2 -2
v 4 6 -2
v 5 1 7
v 5 2 7
v 6 1 7
v 6 2 7
v 4 5 6
v 4 7 6
v 5 5 6
v 5 7 6
v 3 6 5
v 3 9 5
v 4 1 5
v 4 5 5
v 4 6 5
v 4 9 5
v 5 0 5
v 5 1 5
v 5 5 5
v 6 0 5
v 6 1 5
v 3 11 1
v 3 13 1
v 4 11 1
v 4 13 1
v 5 0 1
v 5 1 1
v 6 0 1
v 6 1 1
v 3 8 -0
v 3 11 -0
v 4 1 -0
v 4 5 -0
v 4 8 -0
v 4 11 -0
v 5 1 -0
v 5 5 -0
v 2 6 -1
v 2 16 -1
v 3 2 -1
v 3 6 -1
v 3 8 -1
v 3 16 -1
v 4 2 -1
v 4 8 -1
v -8 1 -4
v -8 9 -4
v -8 11 -4
v -8 16 -4
v -7 1 -4
v -7 9 -4
v -7 11 -4
v -5 1 -4
v -5 3 -4
v -5 5 -4
v -5 9 -4
v -5 10 -4
v -5 13 -4
v -4 13 -4
v -4 14 -4
v -3 8 -4
v -3 14 -4
v -2 7 -4
v -2 8 -4
v -2 11 -4
v -2 13 -4
v -1 7 -4
v -1 9 -4
v 0 7 -4
v 0 9 -4
v 0 11 -4
v 0 13 -4
v 1 1 -4
v 1 7 -4
v 2 9 -4
v 2 12 -4
v 3 0 -4
v 3 1 -4
v 3 6 -4
v 3 9 -4
v 3 12 -4
v 3 16 -4
v 4 0 -4
v 4 1 -4
v 4 6 -4
v 5 0 -4
v 5 1 -4
v -8 0 -5
v -8 1 -5
v -7 0 -5
v -7 1 -5
v -5 0 -5
v -5 1 -5
v -5 3 -5
v -5 5 -5
v -5 9 -5
v -5 10 -5
v -5 13 -5
v -4 0 -5
v -4 1 -5
v -4 3 -5
v -4 5 -5
v -4 9 -5
v -4 10 -5
v -4 13 -5
v -4 14 -5
v -3 4 -5
v -3 6 -5
v -3 8 -5
v -3 14 -5
v -2 1 -5
v -2 4 -5
v -2 6 -5
v -2 7 -5
v -2 8 -5
v -1 7 -5
v -1 9 -5
v 0 1 -5
v 0 7 -5
v 0 9 -5
v 1 0 -5
v 1 1 -5
v 1 7 -5
v 3 0 -5
v 3 1 -5
v -4 0 -6
v -4 1 -6
v -2 0 -6
v -2 1 -6
v 0 0 -6
v 0 1 -6
v 1 0 -6
v 1 1 -6
v -8 0 8
v 1 0 8
v 5 0 8
v 6 0 8
v 5 0 7
v 6 0 7
v 5 0 6
v 6 0 6
v 4 0 5
v 5 0 5
v 6 0 5
v 4 0 3
v 5 0 3
v 6 0 3
v 5 0 1
v 6 0 1
v 4 0 -0
v 5 0 -0
v 3 0 -1
v 4 0 -1
v 5 0 -1
v 4 0 -3
v 5 0 -3
v -8 0 -4
v -7 0 -4
v -5 0 -4
v 1 0 -4
v 3 0 -4
v 4 0 -4
v 5 0 -4
v -8 0 -5
v -7 0 -5
v -5 0 -5
v -4 0 -5
v -2 0 -5
v 0 0 -5
v 1 0 -5
v 3 0 -5
v -4 0 -6
v -2 0 -6
v 0 0 -6
v 1 0 -6
v 5 1 7
v 6 1 7
v 5 1 6
v 6 1 6
v 4 1 5
v 5 1 5
v 6 1 5
v 4 1 3
v 5 1 3
v 6 1 3
v 5 1 1
v 6 1 1
v 4 1 -0
v 5 1 -0
v 4 1 -1
v 5 1 -1
v 4 1 -2
v 4 1 -3
v 5 1 -3
v -8 1 -4
v -7 1 -4
v -5 1 -4
v 1 1 -4
v 3 1 -4
v 4 1 -4
v 5 1 -4
v -8 1 -5
v -7 1 -5
v -5 1 -5
v -4 1 -5
v -2 1 -5
v 0 1 -5
v 1 1 -5
v 3 1 -5
v -4 1 -6
v -2 1 -6
v 0 1 -6
v 1 1 -6
v 5 2 8
v 6 2 8
v 5 2 7
v 6 2 7
v 3 2 -1
v 4 2 -1
v 3 2 -2
v 4 2 -2
v 4 5 6
v 5 5 6
v 4 5 5
v 5 5 5
v 4 5 3
v 5 5 3
v 4 5 -0
v 5 5 -0
v 3 6 5
v 4 6 5
v 3 6 3
v 4 6 3
v 2 6 -1
v 3 6 -1
v 2 6 -2
v 3 6 -2
v 4 6 -2
v 3 6 -4
v 4 6 -4
v 4 7 8
v 5 7 8
v 4 7 6
v 5 7 6
v -2 7 -4
v -1 7 -4
v 0 7 -4
v 1 7 -4
v -2 7 -5
v -1 7 -5
v 0 7 -5
v 1 7 -5
v 3 8 -0
v 4 8 -0
v 3 8 -1
v 4 8 -1
v -3 8 -4
v -2 8 -4
v -3 8 -5
v -2 8 -5
v 3 9 8
v 4 9 8
v 3 9 5
v 4 9 5
v -1 9 -4
v 0 9 -4
v -1 9 -5
v 0 9 -5
v 3 10 3
v 4 10 3
v 3 10 2
v 4 10 2
v 3 11 1
v 4 11 1
v 3 11 -0
v 4 11 -0
v 3 13 2
v 4 13 2
v 3 13 1
v 4 13 1
v -5 13 -4
v -4 13 -4
v -5 13 -5
v -4 13 -5
v -4 14 -4
v -3 14 -4
v -4 14 -5
v -3 14 -5
v -8 16 8
v 1 16 8
v 2 16 8
v 3 16 8
v 2 16 7
v 3 16 7
v 2 16 -1
v 3 16 -1
v 2 16 -2
v 3 16 -2
v -8 16 -3
v 1 16 -3
v -8 16 -4
v 3 16 -4

# faces
f 4/6/1 2/6/1 1/6/1
f 5/5/1 3/5/1 2/5/1
f 5/6/1 2/6/1 4/6/1
f 6/5/1 3/5/1 5/5/1
f 7/6/1 4/6/1 1/6/1
f 7/2/1 5/2/1 4/2/1
f 8/2/1 5/2/1 7/2/1
f 9/6/1 7/6/1 1/6/1
f 9/3/1 8/3/1 7/3/1
f 10/3/1 8/3/1 9/3/1
f 11/6/1 9/6/1 1/6/1
f 12/2/1 10/2/1 9/2/1
f 12/6/1 9/6/1 11/6/1
f 13/2/1 10/2/1 12/2/1
f 16/2/1 15/2/1 14/2/1
f 17/2/1 15/2/1 16/2/1
f 18/1/1 17/1/1 16/1/1
f 19/1/1 17/1/1 18/1/1
f 20/2/1 19/2/1 18/2/1
f 21/2/1 19/2/1 20/2/1
f 22/1/1 21/1/1 20/1/1
f 23/1/1 21/1/1 22/1/1
f 24/2/1 23/2/1 22/2/1
f 25/2/1 23/2/1 24/2/1
f 28/4/1 27/4/1 26/4/1
f 29/4/1 27/4/1 28/4/1
f 32/2/1 31/2/1 30/2/1
f 33/2/1 31/2/1 32/2/1
f 36/2/1 35/2/1 34/2/1
f 37/2/1 35/2/1 36/2/1
f 38/2/2 39/2/2 40/2/2
f 40/2/2 39/2/2 41/2/2
f 42/2/2 43/2/2 44/2/2
f 44/2/2 43/2/2 45/2/2
f 46/2/2 47/2/2 48/2/2
f 48/2/2 47/2/2 49/2/2
f 50/4/2 51/4/2 53/4/2
f 53/4/2 51/4/2 54/4/2
f 52/2/2 53/2/2 55/2/2
f 55/2/2 53/2/2 56/2/2
f 57/2/2 58/2/2 59/2/2
f 59/2/2 58/2/2 60/2/2
f 61/4/2 62/4/2 63/4/2
f 63/4/2 62/4/2 64/4/2
f 65/2/2 66/2/2 69/2/2
f 69/2/2 66/2/2 70/2/2
f 67/2/2 68/2/2 75/2/2
f 70/2/2 71/2/2 76/2/2
f 76/2/2 71/2/2 77/2/2
f 74/2/2 75/2/2 78/2/2
f 75/2/2 68/2/2 78/2/2
f 74/2/2 78/2/2 80/2/2
f 78/2/2 79/2/2 80/2/2
f 80/2/2 79/2/2 81/2/2
f 81/2/2 79/2/2 82/2/2
f 82/2/2 79/2/2 83/2/2
f 72/2/2 73/2/2 85/2/2
f 76/3/2 77/3/2 86/3/2
f 70/2/2 76/2/2 86/2/2
f 86/3/2 77/3/2 87/3/2
f 81/2/2 82/2/2 88/2/2
f 82/1/2 83/1/2 88/1/2
f 83/2/2 79/2/2 89/2/2
f 88/1/2 83/1/2 89/1/2
f 89/2/2 79/2/2 90/2/2
f 84/2/2 85/2/2 91/2/2
f 80/1/2 81/1/2 92/1/2
f 81/2/2 88/2/2 93/2/2
f 92/1/2 81/1/2 93/1/2
f 89/2/2 90/2/2 93/2/2
f 90/2/2 91/2/2 93/2/2
f 88/2/2 89/2/2 93/2/2
f 91/2/2 85/2/2 94/2/2
f 93/2/2 91/2/2 94/2/2
f 85/2/2 73/2/2 94/2/2
f 70/2/2 86/2/2 95/2/2
f 86/2/2 87/2/2 95/2/2
f 95/2/2 87/2/2 96/2/2
f 99/2/2 100/2/2 104/2/2
f 100/4/2 101/4/2 104/4/2
f 102/2/2 103/2/2 105/2/2
f 104/4/2 101/4/2 105/4/2
f 101/2/2 102/2/2 105/2/2
f 97/2/2 98/2/2 107/2/2
f 107/2/2 98/2/2 108/2/2
f 99/2/2 104/2/2 109/2/2
f 107/2/2 108/2/2 110/2/2
f 108/2/2 109/2/2 110/2/2
f 106/2/2 107/2/2 110/2/2
f 110/2/2 109/2/2 111/2/2
f 105/2/2 103/2/2 112/2/2
f 112/2/2 103/2/2 113/2/2
f 106/2/2 110/2/2 115/2/2
f 111/2/2 109/2/2 116/2/2
f 116/2/2 109/2/2 117/2/2
f 109/2/2 104/2/2 118/2/2
f 117/2/2 109/2/2 118/2/2
f 118/2/2 104/2/2 119/2/2
f 114/2/2 115/2/2 120/2/2
f 115/2/2 110/2/2 121/2/2
f 120/2/2 115/2/2 121/2/2
f 116/3/2 117/3/2 122/3/2
f 111/2/2 116/2/2 122/2/2
f 117/2/2 118/2/2 123/2/2
f 122/3/2 117/3/2 123/3/2
f 111/2/2 122/2/2 124/2/2
f 122/2/2 123/2/2 124/2/2
f 124/2/2 123/2/2 125/2/2
f 123/2/2 118/2/2 126/2/2
f 125/2/2 123/2/2 126/2/2
f 126/2/2 118/2/2 127/2/2
f 125/2/2 126/2/2 128/2/2
f 128/2/2 126/2/2 129/2/2
f 130/4/2 131/4/2 139/4/2
f 139/4/2 131/4/2 140/4/2
f 132/2/2 133/2/2 141/2/2
f 133/4/2 134/4/2 142/4/2
f 141/2/2 133/2/2 142/2/2
f 134/5/2 135/5/2 143/5/2
f 142/4/2 134/4/2 143/4/2
f 135/4/2 136/4/2 144/4/2
f 143/5/2 135/5/2 144/5/2
f 144/4/2 136/4/2 145/4/2
f 137/2/2 138/2/2 147/2/2
f 138/2/2 139/2/2 147/2/2
f 146/2/2 147/2/2 148/2/2
f 147/2/2 139/2/2 149/2/2
f 148/2/2 147/2/2 149/2/2
f 149/2/2 139/2/2 150/2/2
f 140/2/2 141/2/2 151/2/2
f 141/2/2 142/2/2 151/2/2
f 151/2/2 142/2/2 152/2/2
f 148/3/2 149/3/2 153/3/2
f 153/3/2 149/3/2 154/3/2
f 155/4/2 156/4/2 161/4/2
f 156/5/2 157/5/2 161/5/2
f 157/4/2 158/4/2 162/4/2
f 161/5/2 157/5/2 162/5/2
f 162/4/2 158/4/2 163/4/2
f 159/4/2 160/4/2 164/4/2
f 164/4/2 160/4/2 165/4/2
f 155/4/2 161/4/2 166/4/2
f 166/4/2 161/4/2 167/4/2
f 170/6/3 169/6/3 168/6/3
f 171/6/3 169/6/3 170/6/3
f 172/2/3 171/2/3 170/2/3
f 173/2/3 171/2/3 172/2/3
f 174/2/3 172/2/3 170/2/3
f 175/1/3 173/1/3 172/1/3
f 175/2/3 172/2/3 174/2/3
f 176/1/3 173/1/3 175/1/3
f 177/2/3 174/2/3 170/2/3
f 178/2/3 174/2/3 177/2/3
f 179/2/3 174/2/3 178/2/3
f 180/2/3 177/2/3 170/2/3
f 181/2/3 177/2/3 180/2/3
f 182/3/3 178/3/3 177/3/3
f 182/2/3 177/2/3 181/2/3
f 183/3/3 178/3/3 182/3/3
f 184/4/3 181/4/3 180/4/3
f 185/4/3 181/4/3 184/4/3
f 190/2/3 187/2/3 186/2/3
f 191/2/3 187/2/3 190/2/3
f 193/2/3 189/2/3 188/2/3
f 194/2/3 189/2/3 193/2/3
f 195/4/3 193/4/3 192/4/3
f 196/4/3 193/4/3 195/4/3
f 199/2/3 198/2/3 197/2/3
f 200/2/3 198/2/3 199/2/3
f 204/2/3 202/2/3 201/2/3
f 205/2/3 202/2/3 204/2/3
f 206/2/3 204/2/3 203/2/3
f 207/2/3 204/2/3 206/2/3
f 208/4/4 209/4/4 210/4/4
f 210/4/4 209/4/4 211/4/4
f 212/3/4 213/3/4 214/3/4
f 214/3/4 213/3/4 215/3/4
f 216/2/4 217/2/4 220/2/4
f 220/2/4 217/2/4 221/2/4
f 218/2/4 219/2/4 223/2/4
f 223/2/4 219/2/4 224/2/4
f 222/4/4 223/4/4 225/4/4
f 225/4/4 223/4/4 226/4/4
f 227/2/4 228/2/4 229/2/4
f 229/2/4 228/2/4 230/2/4
f 231/4/4 232/4/4 233/4/4
f 233/4/4 232/4/4 234/4/4
f 235/2/4 236/2/4 239/2/4
f 239/2/4 236/2/4 240/2/4
f 237/2/4 238/2/4 241/2/4
f 241/2/4 238/2/4 242/2/4
f 243/2/4 244/2/4 246/2/4
f 246/2/4 244/2/4 247/2/4
f 247/2/4 244/2/4 248/2/4
f 245/2/4 246/2/4 249/2/4
f 246/2/4 247/2/4 249/2/4
f 249/2/4 247/2/4 250/2/4
f 251/2/4 252/2/4 255/2/4
f 252/3/4 253/3/4 256/3/4
f 255/2/4 252/2/4 256/2/4
f 253/2/4 254/2/4 257/2/4
f 256/3/4 253/3/4 257/3/4
f 255/2/4 256/2/4 258/2/4
f 256/2/4 257/2/4 258/2/4
f 258/2/4 257/2/4 259/2/4
f 259/2/4 257/2/4 260/2/4
f 260/2/4 257/2/4 261/2/4
f 261/2/4 257/2/4 262/2/4
f 257/2/4 254/2/4 263/2/4
f 262/2/4 257/2/4 263/2/4
f 263/2/4 254/2/4 264/2/4
f 264/2/4 254/2/4 265/2/4
f 265/2/4 254/2/4 267/2/4
f 266/2/4 267/2/4 269/2/4
f 269/2/4 267/2/4 270/2/4
f 270/2/4 267/2/4 271/2/4
f 268/2/4 269/2/4 272/2/4
f 269/2/4 270/2/4 272/2/4
f 272/2/4 270/2/4 273/2/4
f 273/2/4 270/2/4 275/2/4
f 270/3/4 271/3/4 276/3/4
f 275/2/4 270/2/4 276/2/4
f 271/2/4 267/2/4 277/2/4
f 276/3/4 271/3/4 277/3/4
f 275/2/4 276/2/4 279/2/4
f 274/2/4 275/2/4 279/2/4
f 276/2/4 277/2/4 279/2/4
f 279/2/4 277/2/4 280/2/4
f 278/2/4 279/2/4 280/2/4
f 280/2/4 277/2/4 281/2/4
f 278/2/4 280/2/4 283/2/4
f 283/2/4 280/2/4 284/2/4
f 280/3/4 281/3/4 285/3/4
f 284/2/4 280/2/4 285/2/4
f 281/2/4 277/2/4 286/2/4
f 285/3/4 281/3/4 286/3/4
f 267/2/4 254/2/4 287/2/4
f 286/2/4 277/2/4 287/2/4
f 277/2/4 267/2/4 287/2/4
f 282/3/4 283/3/4 288/3/4
f 283/2/4 284/2/4 289/2/4
f 288/3/4 283/3/4 289/3/4
f 289/2/4 284/2/4 290/2/4
f 288/4/4 289/4/4 291/4/4
f 291/4/4 289/4/4 292/4/4
f 293/5/4 294/5/4 295/5/4
f 295/5/4 294/5/4 296/5/4
f 295/4/4 296/4/4 297/4/4
f 297/4/4 296/4/4 298/4/4
f 297/2/4 298/2/4 304/2/4
f 298/2/4 299/2/4 304/2/4
f 304/2/4 299/2/4 305/2/4
f 299/1/4 300/1/4 306/1/4
f 305/2/4 299/2/4 306/2/4
f 300/2/4 301/2/4 307/2/4
f 306/1/4 300/1/4 307/1/4
f 301/1/4 302/1/4 308/1/4
f 307/2/4 301/2/4 308/2/4
f 302/2/4 303/2/4 309/2/4
f 308/1/4 302/1/4 309/1/4
f 309/2/4 303/2/4 310/2/4
f 307/2/4 308/2/4 312/2/4
f 310/2/4 311/2/4 312/2/4
f 309/2/4 310/2/4 312/2/4
f 308/2/4 309/2/4 312/2/4
f 306/2/4 307/2/4 312/2/4
f 305/2/4 306/2/4 312/2/4
f 312/2/4 311/2/4 313/2/4
f 313/2/4 311/2/4 314/2/4
f 314/2/4 311/2/4 315/2/4
f 305/2/4 312/2/4 316/2/4
f 312/3/4 313/3/4 317/3/4
f 316/2/4 312/2/4 317/2/4
f 313/2/4 314/2/4 318/2/4
f 317/3/4 313/3/4 318/3/4
f 318/2/4 314/2/4 319/2/4
f 319/2/4 314/2/4 320/2/4
f 316/2/4 317/2/4 321/2/4
f 317/2/4 318/2/4 321/2/4
f 318/2/4 319/2/4 321/2/4
f 316/2/4 321/2/4 323/2/4
f 321/2/4 322/2/4 323/2/4
f 323/2/4 322/2/4 324/2/4
f 324/2/4 322/2/4 325/2/4
f 323/2/4 324/2/4 327/2/4
f 327/2/4 324/2/4 328/2/4
f 326/4/4 327/4/4 329/4/4
f 329/4/4 327/4/4 330/4/4
f 331/4/4 332/4/4 333/4/4
f 333/4/4 332/4/4 334/4/4
f 333/5/4 334/5/4 335/5/4
f 335/5/4 334/5/4 336/5/4
f 335/4/4 336/4/4 337/4/4
f 337/4/4 336/4/4 338/4/4
f 343/2/5 341/2/5 340/2/5
f 343/4/5 342/4/5 341/4/5
f 344/4/5 342/4/5 343/4/5
f 345/2/5 343/2/5 340/2/5
f 345/5/5 344/5/5 343/5/5
f 346/5/5 344/5/5 345/5/5
f 347/2/5 345/2/5 340/2/5
f 348/4/5 346/4/5 345/4/5
f 348/2/5 345/2/5 347/2/5
f 349/4/5 346/4/5 348/4/5
f 350/2/5 347/2/5 340/2/5
f 350/4/5 348/4/5 347/4/5
f 351/4/5 348/4/5 350/4/5
f 353/2/5 351/2/5 350/2/5
f 353/4/5 352/4/5 351/4/5
f 354/4/5 352/4/5 353/4/5
f 355/2/5 350/2/5 340/2/5
f 355/2/5 353/2/5 350/2/5
f 356/2/5 353/2/5 355/2/5
f 357/2/5 355/2/5 340/2/5
f 358/4/5 356/4/5 355/4/5
f 358/2/5 355/2/5 357/2/5
f 359/4/5 356/4/5 358/4/5
f 360/3/5 358/3/5 357/3/5
f 360/5/5 359/5/5 358/5/5
f 361/5/5 359/5/5 360/5/5
f 362/6/5 340/6/5 339/6/5
f 363/6/5 340/6/5 362/6/5
f 364/6/5 340/6/5 363/6/5
f 365/2/5 357/2/5 340/2/5
f 365/6/5 340/6/5 364/6/5
f 366/3/5 360/3/5 357/3/5
f 366/2/5 357/2/5 365/2/5
f 367/4/5 361/4/5 360/4/5
f 367/3/5 360/3/5 366/3/5
f 368/4/5 361/4/5 367/4/5
f 369/5/5 363/5/5 362/5/5
f 370/4/5 364/4/5 363/4/5
f 370/5/5 363/5/5 369/5/5
f 371/2/5 365/2/5 364/2/5
f 371/4/5 364/4/5 370/4/5
f 372/2/5 365/2/5 371/2/5
f 373/2/5 365/2/5 372/2/5
f 374/2/5 365/2/5 373/2/5
f 375/4/5 366/4/5 365/4/5
f 375/2/5 365/2/5 374/2/5
f 376/4/5 366/4/5 375/4/5
f 377/4/5 373/4/5 372/4/5
f 378/5/5 374/5/5 373/5/5
f 378/4/5 373/4/5 377/4/5
f 379/4/5 375/4/5 374/4/5
f 379/5/5 374/5/5 378/5/5
f 380/4/5 375/4/5 379/4/5
f 381/5/6 382/5/6 383/5/6
f 383/5/6 382/5/6 384/5/6
f 383/4/6 384/4/6 386/4/6
f 386/4/6 384/4/6 387/4/6
f 385/4/6 386/4/6 388/4/6
f 388/4/6 386/4/6 389/4/6
f 389/4/6 390/4/6 391/4/6
f 391/4/6 390/4/6 392/4/6
f 393/4/6 394/4/6 395/4/6
f 395/4/6 394/4/6 396/4/6
f 395/5/6 396/5/6 397/5/6
f 397/5/6 396/5/6 398/5/6
f 398/5/6 396/5/6 399/5/6
f 398/4/6 399/4/6 405/4/6
f 405/4/6 399/4/6 406/4/6
f 400/5/6 401/5/6 407/5/6
f 401/4/6 402/4/6 408/4/6
f 407/5/6 401/5/6 408/5/6
f 408/4/6 402/4/6 409/4/6
f 403/4/6 404/4/6 413/4/6
f 413/4/6 404/4/6 414/4/6
f 410/4/6 411/4/6 415/4/6
f 411/5/6 412/5/6 416/5/6
f 415/4/6 411/4/6 416/4/6
f 412/4/6 413/4/6 417/4/6
f 416/5/6 412/5/6 417/5/6
f 417/4/6 413/4/6 418/4/6
f 419/4/6 420/4/6 421/4/6
f 421/4/6 420/4/6 422/4/6
f 423/4/6 424/4/6 425/4/6
f 425/4/6 424/4/6 426/4/6
f 427/2/6 428/2/6 429/2/6
f 429/2/6 428/2/6 430/2/6
f 431/2/6 432/2/6 433/2/6
f 433/2/6 432/2/6 434/2/6
f 435/2/6 436/2/6 437/2/6
f 437/2/6 436/2/6 438/2/6
f 439/2/6 440/2/6 441/2/6
f 441/2/6 440/2/6 442/2/6
f 442/2/6 443/2/6 444/2/6
f 444/2/6 443/2/6 445/2/6
f 446/3/6 447/3/6 448/3/6
f 448/3/6 447/3/6 449/3/6
f 450/2/6 451/2/6 454/2/6
f 454/2/6 451/2/6 455/2/6
f 452/2/6 453/2/6 456/2/6
f 456/2/6 453/2/6 457/2/6
f 458/2/6 459/2/6 460/2/6
f 460/2/6 459/2/6 461/2/6
f 462/2/6 463/2/6 464/2/6
f 464/2/6 463/2/6 465/2/6
f 466/2/6 467/2/6 468/2/6
f 468/2/6 467/2/6 469/2/6
f 470/2/6 471/2/6 472/2/6
f 472/2/6 471/2/6 473/2/6
f 474/2/6 475/2/6 476/2/6
f 476/2/6 475/2/6 477/2/6
f 478/2/6 479/2/6 480/2/6
f 480/2/6 479/2/6 481/2/6
f 482/2/6 483/2/6 484/2/6
f 484/2/6 483/2/6 485/2/6
f 486/2/6 487/2/6 488/2/6
f 488/2/6 487/2/6 489/2/6
f 490/2/6 491/2/6 492/2/6
f 492/2/6 491/2/6 493/2/6
f 495/2/6 496/2/6 498/2/6
f 496/1/6 497/1/6 498/1/6
f 498/1/6 497/1/6 499/1/6
f 495/2/6 498/2/6 500/2/6
f 498/2/6 499/2/6 500/2/6
f 500/2/6 499/2/6 501/2/6
f 495/2/6 500/2/6 502/2/6
f 494/6/6 495/6/6 504/6/6
f 502/2/6 503/2/6 505/2/6
f 504/6/6 495/6/6 505/6/6
f 495/2/6 502/2/6 505/2/6
f 504/2/6 505/2/6 506/2/6
f 505/2/6 503/2/6 507/2/6
f 506/2/6 505/2/6 507/2/6
