# MagicaVoxel @ ephtracy

# material
mtllib sword.mtl
usemtl palette

# normals
vn -1 0 0
vn 1 0 0
vn 0 0 1
vn 0 0 -1
vn 0 -1 0
vn 0 1 0

# texcoords
vt 0.224609 0.5
vt 0.310547 0.5
vt 0.919922 0.5
vt 0.935547 0.5
vt 0.951172 0.5
vt 0.962891 0.5
vt 0.966797 0.5
vt 0.970703 0.5

# verts
v -1.5 0 7
v -1.5 0 6
v -1.5 1 8
v -1.5 1 7
v -1.5 2 15
v -1.5 2 14
v -1.5 2 7
v -1.5 2 6
v -1.5 3 14
v -1.5 3 13
v -1.5 3 12
v -1.5 3 11
v -1.5 3 10
v -1.5 3 9
v -1.5 3 8
v -1.5 4 14
v -1.5 4 13
v -1.5 4 12
v -1.5 4 11
v -1.5 4 10
v -1.5 4 9
v -1.5 4 8
v -1.5 5 15
v -1.5 5 14
v -1.5 5 7
v -1.5 5 6
v -1.5 6 8
v -1.5 6 7
v -1.5 7 7
v -1.5 7 6
v -0.5 2 14
v -0.5 2 13
v -0.5 2 12
v -0.5 2 11
v -0.5 2 10
v -0.5 2 9
v -0.5 2 8
v -0.5 2 7
v -0.5 2 6
v -0.5 2 -14
v -0.5 3 16
v -0.5 3 15
v -0.5 3 14
v -0.5 3 13
v -0.5 3 12
v -0.5 3 11
v -0.5 3 10
v -0.5 3 9
v -0.5 3 8
v -0.5 3 7
v -0.5 3 -2
v -0.5 3 -3
v -0.5 3 -4
v -0.5 3 -13
v -0.5 3 -14
v -0.5 3 -16
v -0.5 4 16
v -0.5 4 15
v -0.5 4 14
v -0.5 4 13
v -0.5 4 12
v -0.5 4 11
v -0.5 4 10
v -0.5 4 9
v -0.5 4 8
v -0.5 4 7
v -0.5 4 -2
v -0.5 4 -3
v -0.5 4 -4
v -0.5 4 -13
v -0.5 4 -14
v -0.5 4 -15
v -0.5 4 -16
v -0.5 5 14
v -0.5 5 13
v -0.5 5 12
v -0.5 5 11
v -0.5 5 10
v -0.5 5 9
v -0.5 5 8
v -0.5 5 7
v -0.5 5 6
v -0.5 5 -13
v -0.5 5 -14
v -0.5 5 -15
v 0.5 2 14
v 0.5 2 13
v 0.5 2 12
v 0.5 2 11
v 0.5 2 10
v 0.5 2 9
v 0.5 2 8
v 0.5 2 7
v 0.5 2 6
v 0.5 2 -14
v 0.5 3 16
v 0.5 3 15
v 0.5 3 14
v 0.5 3 13
v 0.5 3 12
v 0.5 3 11
v 0.5 3 10
v 0.5 3 9
v 0.5 3 8
v 0.5 3 7
v 0.5 3 -2
v 0.5 3 -3
v 0.5 3 -4
v 0.5 3 -13
v 0.5 3 -14
v 0.5 3 -16
v 0.5 4 16
v 0.5 4 15
v 0.5 4 14
v 0.5 4 13
v 0.5 4 12
v 0.5 4 11
v 0.5 4 10
v 0.5 4 9
v 0.5 4 8
v 0.5 4 7
v 0.5 4 -2
v 0.5 4 -3
v 0.5 4 -4
v 0.5 4 -13
v 0.5 4 -14
v 0.5 4 -15
v 0.5 4 -16
v 0.5 5 14
v 0.5 5 13
v 0.5 5 12
v 0.5 5 11
v 0.5 5 10
v 0.5 5 9
v 0.5 5 8
v 0.5 5 7
v 0.5 5 6
v 0.5 5 -13
v 0.5 5 -14
v 0.5 5 -15
v 1.5 0 7
v 1.5 0 6
v 1.5 1 8
v 1.5 1 7
v 1.5 2 15
v 1.5 2 14
v 1.5 2 7
v 1.5 2 6
v 1.5 3 14
v 1.5 3 13
v 1.5 3 12
v 1.5 3 11
v 1.5 3 10
v 1.5 3 9
v 1.5 3 8
v 1.5 4 14
v 1.5 4 13
v 1.5 4 12
v 1.5 4 11
v 1.5 4 10
v 1.5 4 9
v 1.5 4 8
v 1.5 5 15
v 1.5 5 14
v 1.5 5 7
v 1.5 5 6
v 1.5 6 8
v 1.5 6 7
v 1.5 7 7
v 1.5 7 6
v -0.5 3 16
v -0.5 4 16
v 0.5 3 16
v 0.5 4 16
v -1.5 2 15
v -1.5 5 15
v -0.5 3 15
v -0.5 4 15
v 0.5 3 15
v 0.5 4 15
v 1.5 2 15
v 1.5 5 15
v -1.5 1 8
v -1.5 3 8
v -1.5 4 8
v -1.5 6 8
v -0.5 2 8
v -0.5 3 8
v -0.5 4 8
v -0.5 5 8
v 0.5 2 8
v 0.5 3 8
v 0.5 4 8
v 0.5 5 8
v 1.5 1 8
v 1.5 3 8
v 1.5 4 8
v 1.5 6 8
v -1.5 0 7
v -1.5 1 7
v -1.5 6 7
v -1.5 7 7
v 1.5 0 7
v 1.5 1 7
v 1.5 6 7
v 1.5 7 7
v -1.5 2 14
v -1.5 3 14
v -1.5 4 14
v -1.5 5 14
v -0.5 2 14
v -0.5 3 14
v -0.5 4 14
v -0.5 5 14
v 0.5 2 14
v 0.5 3 14
v 0.5 4 14
v 0.5 5 14
v 1.5 2 14
v 1.5 3 14
v 1.5 4 14
v 1.5 5 14
v -1.5 2 7
v -1.5 5 7
v -0.5 2 7
v -0.5 3 7
v -0.5 4 7
v -0.5 5 7
v 0.5 2 7
v 0.5 3 7
v 0.5 4 7
v 0.5 5 7
v 1.5 2 7
v 1.5 5 7
v -1.5 0 6
v -1.5 2 6
v -1.5 5 6
v -1.5 7 6
v -0.5 2 6
v -0.5 5 6
v 0.5 2 6
v 0.5 5 6
v 1.5 0 6
v 1.5 2 6
v 1.5 5 6
v 1.5 7 6
v -0.5 2 -14
v -0.5 3 -14
v 0.5 2 -14
v 0.5 3 -14
v -0.5 4 -15
v -0.5 5 -15
v 0.5 4 -15
v 0.5 5 -15
v -0.5 3 -16
v -0.5 4 -16
v 0.5 3 -16
v 0.5 4 -16
v -1.5 0 7
v 1.5 0 7
v -1.5 0 6
v 1.5 0 6
v -1.5 1 8
v 1.5 1 8
v -1.5 1 7
v 1.5 1 7
v -1.5 2 15
v 1.5 2 15
v -1.5 2 14
v -0.5 2 14
v 0.5 2 14
v 1.5 2 14
v -0.5 2 13
v 0.5 2 13
v -0.5 2 12
v 0.5 2 12
v -0.5 2 11
v 0.5 2 11
v -0.5 2 10
v 0.5 2 10
v -0.5 2 9
v 0.5 2 9
v -0.5 2 8
v 0.5 2 8
v -0.5 2 6
v 0.5 2 6
v -0.5 2 -14
v 0.5 2 -14
v -0.5 3 16
v 0.5 3 16
v -0.5 3 15
v 0.5 3 15
v -1.5 3 14
v -0.5 3 14
v 0.5 3 14
v 1.5 3 14
v -1.5 3 13
v -0.5 3 13
v 0.5 3 13
v 1.5 3 13
v -1.5 3 12
v -0.5 3 12
v 0.5 3 12
v 1.5 3 12
v -1.5 3 11
v -0.5 3 11
v 0.5 3 11
v 1.5 3 11
v -1.5 3 10
v -0.5 3 10
v 0.5 3 10
v 1.5 3 10
v -1.5 3 9
v -0.5 3 9
v 0.5 3 9
v 1.5 3 9
v -1.5 3 8
v -0.5 3 8
v 0.5 3 8
v 1.5 3 8
v -0.5 3 -14
v 0.5 3 -14
v -0.5 3 -16
v 0.5 3 -16
v -1.5 5 7
v -0.5 5 7
v 0.5 5 7
v 1.5 5 7
v -1.5 5 6
v -0.5 5 6
v 0.5 5 6
v 1.5 5 6
v -1.5 2 7
v -0.5 2 7
v 0.5 2 7
v 1.5 2 7
v -1.5 2 6
v -0.5 2 6
v 0.5 2 6
v 1.5 2 6
v -0.5 4 16
v 0.5 4 16
v -0.5 4 15
v 0.5 4 15
v -1.5 4 14
v -0.5 4 14
v 0.5 4 14
v 1.5 4 14
v -1.5 4 13
v -0.5 4 13
v 0.5 4 13
v 1.5 4 13
v -1.5 4 12
v -0.5 4 12
v 0.5 4 12
v 1.5 4 12
v -1.5 4 11
v -0.5 4 11
v 0.5 4 11
v 1.5 4 11
v -1.5 4 10
v -0.5 4 10
v 0.5 4 10
v 1.5 4 10
v -1.5 4 9
v -0.5 4 9
v 0.5 4 9
v 1.5 4 9
v -1.5 4 8
v -0.5 4 8
v 0.5 4 8
v 1.5 4 8
v -0.5 4 -15
v 0.5 4 -15
v -0.5 4 -16
v 0.5 4 -16
v -1.5 5 15
v 1.5 5 15
v -1.5 5 14
v -0.5 5 14
v 0.5 5 14
v 1.5 5 14
v -0.5 5 13
v 0.5 5 13
v -0.5 5 12
v 0.5 5 12
v -0.5 5 11
v 0.5 5 11
v -0.5 5 10
v 0.5 5 10
v -0.5 5 9
v 0.5 5 9
v -0.5 5 8
v 0.5 5 8
v -0.5 5 6
v 0.5 5 6
v -0.5 5 -13
v 0.5 5 -13
v -0.5 5 -14
v 0.5 5 -14
v -0.5 5 -15
v 0.5 5 -15
v -1.5 6 8
v 1.5 6 8
v -1.5 6 7
v 1.5 6 7
v -1.5 7 7
v 1.5 7 7
v -1.5 7 6
v 1.5 7 6

# faces
f 4/4/1 2/4/1 1/4/1
f 7/4/1 2/4/1 4/4/1
f 7/4/1 4/4/1 3/4/1
f 8/4/1 2/4/1 7/4/1
f 9/5/1 6/5/1 5/5/1
f 15/4/1 7/4/1 3/4/1
f 16/5/1 9/5/1 5/5/1
f 16/2/1 10/2/1 9/2/1
f 17/1/1 11/1/1 10/1/1
f 17/2/1 10/2/1 16/2/1
f 18/2/1 12/2/1 11/2/1
f 18/1/1 11/1/1 17/1/1
f 19/1/1 13/1/1 12/1/1
f 19/2/1 12/2/1 18/2/1
f 20/2/1 14/2/1 13/2/1
f 20/1/1 13/1/1 19/1/1
f 21/1/1 15/1/1 14/1/1
f 21/2/1 14/2/1 20/2/1
f 22/4/1 7/4/1 15/4/1
f 22/1/1 15/1/1 21/1/1
f 23/5/1 16/5/1 5/5/1
f 24/5/1 16/5/1 23/5/1
f 25/4/1 7/4/1 22/4/1
f 27/4/1 26/4/1 25/4/1
f 27/4/1 25/4/1 22/4/1
f 28/4/1 26/4/1 27/4/1
f 29/4/1 26/4/1 28/4/1
f 30/4/1 26/4/1 29/4/1
f 43/2/1 32/2/1 31/2/1
f 44/1/1 33/1/1 32/1/1
f 44/2/1 32/2/1 43/2/1
f 45/2/1 34/2/1 33/2/1
f 45/1/1 33/1/1 44/1/1
f 46/1/1 35/1/1 34/1/1
f 46/2/1 34/2/1 45/2/1
f 47/2/1 36/2/1 35/2/1
f 47/1/1 35/1/1 46/1/1
f 48/1/1 37/1/1 36/1/1
f 48/2/1 36/2/1 47/2/1
f 49/1/1 37/1/1 48/1/1
f 50/6/1 39/6/1 38/6/1
f 50/6/1 40/6/1 39/6/1
f 51/6/1 40/6/1 50/6/1
f 52/6/1 40/6/1 51/6/1
f 53/6/1 40/6/1 52/6/1
f 54/6/1 40/6/1 53/6/1
f 55/6/1 40/6/1 54/6/1
f 57/5/1 42/5/1 41/5/1
f 58/5/1 42/5/1 57/5/1
f 66/7/1 51/7/1 50/7/1
f 67/3/1 52/3/1 51/3/1
f 67/7/1 51/7/1 66/7/1
f 68/7/1 53/7/1 52/7/1
f 68/3/1 52/3/1 67/3/1
f 69/3/1 54/3/1 53/3/1
f 69/7/1 53/7/1 68/7/1
f 70/6/1 56/6/1 55/6/1
f 70/3/1 54/3/1 69/3/1
f 70/6/1 55/6/1 54/6/1
f 71/6/1 56/6/1 70/6/1
f 72/6/1 56/6/1 71/6/1
f 73/6/1 56/6/1 72/6/1
f 74/2/1 60/2/1 59/2/1
f 75/1/1 61/1/1 60/1/1
f 75/2/1 60/2/1 74/2/1
f 76/2/1 62/2/1 61/2/1
f 76/1/1 61/1/1 75/1/1
f 77/1/1 63/1/1 62/1/1
f 77/2/1 62/2/1 76/2/1
f 78/2/1 64/2/1 63/2/1
f 78/1/1 63/1/1 77/1/1
f 79/1/1 65/1/1 64/1/1
f 79/2/1 64/2/1 78/2/1
f 80/1/1 65/1/1 79/1/1
f 81/8/1 69/8/1 68/8/1
f 81/8/1 68/8/1 67/8/1
f 81/8/1 67/8/1 66/8/1
f 81/8/1 70/8/1 69/8/1
f 82/8/1 70/8/1 81/8/1
f 83/3/1 71/3/1 70/3/1
f 83/8/1 70/8/1 82/8/1
f 84/6/1 72/6/1 71/6/1
f 84/3/1 71/3/1 83/3/1
f 85/6/1 72/6/1 84/6/1
f 86/2/2 87/2/2 98/2/2
f 87/1/2 88/1/2 99/1/2
f 98/2/2 87/2/2 99/2/2
f 88/2/2 89/2/2 100/2/2
f 99/1/2 88/1/2 100/1/2
f 89/1/2 90/1/2 101/1/2
f 100/2/2 89/2/2 101/2/2
f 90/2/2 91/2/2 102/2/2
f 101/1/2 90/1/2 102/1/2
f 91/1/2 92/1/2 103/1/2
f 102/2/2 91/2/2 103/2/2
f 103/1/2 92/1/2 104/1/2
f 93/6/2 94/6/2 105/6/2
f 94/6/2 95/6/2 105/6/2
f 105/6/2 95/6/2 106/6/2
f 106/6/2 95/6/2 107/6/2
f 107/6/2 95/6/2 108/6/2
f 108/6/2 95/6/2 109/6/2
f 109/6/2 95/6/2 110/6/2
f 96/5/2 97/5/2 112/5/2
f 112/5/2 97/5/2 113/5/2
f 105/7/2 106/7/2 121/7/2
f 106/3/2 107/3/2 122/3/2
f 121/7/2 106/7/2 122/7/2
f 107/7/2 108/7/2 123/7/2
f 122/3/2 107/3/2 123/3/2
f 108/3/2 109/3/2 124/3/2
f 123/7/2 108/7/2 124/7/2
f 110/6/2 111/6/2 125/6/2
f 124/3/2 109/3/2 125/3/2
f 109/6/2 110/6/2 125/6/2
f 125/6/2 111/6/2 126/6/2
f 126/6/2 111/6/2 127/6/2
f 127/6/2 111/6/2 128/6/2
f 114/2/2 115/2/2 129/2/2
f 115/1/2 116/1/2 130/1/2
f 129/2/2 115/2/2 130/2/2
f 116/2/2 117/2/2 131/2/2
f 130/1/2 116/1/2 131/1/2
f 117/1/2 118/1/2 132/1/2
f 131/2/2 117/2/2 132/2/2
f 118/2/2 119/2/2 133/2/2
f 132/1/2 118/1/2 133/1/2
f 119/1/2 120/1/2 134/1/2
f 133/2/2 119/2/2 134/2/2
f 134/1/2 120/1/2 135/1/2
f 123/8/2 124/8/2 136/8/2
f 122/8/2 123/8/2 136/8/2
f 121/8/2 122/8/2 136/8/2
f 124/8/2 125/8/2 136/8/2
f 136/8/2 125/8/2 137/8/2
f 125/3/2 126/3/2 138/3/2
f 137/8/2 125/8/2 138/8/2
f 126/6/2 127/6/2 139/6/2
f 138/3/2 126/3/2 139/3/2
f 139/6/2 127/6/2 140/6/2
f 141/4/2 142/4/2 144/4/2
f 144/4/2 142/4/2 147/4/2
f 143/4/2 144/4/2 147/4/2
f 147/4/2 142/4/2 148/4/2
f 145/5/2 146/5/2 149/5/2
f 143/4/2 147/4/2 155/4/2
f 145/5/2 149/5/2 156/5/2
f 149/2/2 150/2/2 156/2/2
f 150/1/2 151/1/2 157/1/2
f 156/2/2 150/2/2 157/2/2
f 151/2/2 152/2/2 158/2/2
f 157/1/2 151/1/2 158/1/2
f 152/1/2 153/1/2 159/1/2
f 158/2/2 152/2/2 159/2/2
f 153/2/2 154/2/2 160/2/2
f 159/1/2 153/1/2 160/1/2
f 154/1/2 155/1/2 161/1/2
f 160/2/2 154/2/2 161/2/2
f 155/4/2 147/4/2 162/4/2
f 161/1/2 155/1/2 162/1/2
f 145/5/2 156/5/2 163/5/2
f 163/5/2 156/5/2 164/5/2
f 162/4/2 147/4/2 165/4/2
f 165/4/2 166/4/2 167/4/2
f 162/4/2 165/4/2 167/4/2
f 167/4/2 166/4/2 168/4/2
f 168/4/2 166/4/2 169/4/2
f 169/4/2 166/4/2 170/4/2
f 173/5/3 172/5/3 171/5/3
f 174/5/3 172/5/3 173/5/3
f 177/5/3 176/5/3 175/5/3
f 178/5/3 176/5/3 177/5/3
f 179/5/3 177/5/3 175/5/3
f 180/5/3 176/5/3 178/5/3
f 181/5/3 179/5/3 175/5/3
f 181/5/3 180/5/3 179/5/3
f 182/5/3 176/5/3 180/5/3
f 182/5/3 180/5/3 181/5/3
f 187/4/3 184/4/3 183/4/3
f 188/4/3 184/4/3 187/4/3
f 189/4/3 186/4/3 185/4/3
f 190/4/3 186/4/3 189/4/3
f 191/4/3 187/4/3 183/4/3
f 194/4/3 186/4/3 190/4/3
f 195/4/3 192/4/3 191/4/3
f 195/4/3 191/4/3 183/4/3
f 196/4/3 192/4/3 195/4/3
f 197/4/3 194/4/3 193/4/3
f 198/4/3 186/4/3 194/4/3
f 198/4/3 194/4/3 197/4/3
f 203/4/3 200/4/3 199/4/3
f 204/4/3 200/4/3 203/4/3
f 205/4/3 202/4/3 201/4/3
f 206/4/3 202/4/3 205/4/3
f 207/5/4 208/5/4 211/5/4
f 211/5/4 208/5/4 212/5/4
f 209/5/4 210/5/4 213/5/4
f 213/5/4 210/5/4 214/5/4
f 215/5/4 216/5/4 219/5/4
f 219/5/4 216/5/4 220/5/4
f 217/5/4 218/5/4 221/5/4
f 221/5/4 218/5/4 222/5/4
f 223/4/4 224/4/4 225/4/4
f 225/4/4 224/4/4 226/4/4
f 226/4/4 224/4/4 227/4/4
f 227/4/4 224/4/4 228/4/4
f 229/4/4 230/4/4 233/4/4
f 231/4/4 232/4/4 233/4/4
f 230/4/4 231/4/4 233/4/4
f 233/4/4 232/4/4 234/4/4
f 235/4/4 236/4/4 239/4/4
f 237/4/4 238/4/4 240/4/4
f 235/4/4 239/4/4 241/4/4
f 240/4/4 238/4/4 242/4/4
f 235/4/4 241/4/4 243/4/4
f 243/4/4 241/4/4 244/4/4
f 242/4/4 238/4/4 245/4/4
f 245/4/4 238/4/4 246/4/4
f 247/6/4 248/6/4 249/6/4
f 249/6/4 248/6/4 250/6/4
f 251/6/4 252/6/4 253/6/4
f 253/6/4 252/6/4 254/6/4
f 255/6/4 256/6/4 257/6/4
f 257/6/4 256/6/4 258/6/4
f 261/4/5 260/4/5 259/4/5
f 262/4/5 260/4/5 261/4/5
f 265/4/5 264/4/5 263/4/5
f 266/4/5 264/4/5 265/4/5
f 269/5/5 268/5/5 267/5/5
f 270/5/5 268/5/5 269/5/5
f 271/5/5 268/5/5 270/5/5
f 272/5/5 268/5/5 271/5/5
f 273/2/5 271/2/5 270/2/5
f 274/2/5 271/2/5 273/2/5
f 275/1/5 274/1/5 273/1/5
f 276/1/5 274/1/5 275/1/5
f 277/2/5 276/2/5 275/2/5
f 278/2/5 276/2/5 277/2/5
f 279/1/5 278/1/5 277/1/5
f 280/1/5 278/1/5 279/1/5
f 281/2/5 280/2/5 279/2/5
f 282/2/5 280/2/5 281/2/5
f 283/1/5 282/1/5 281/1/5
f 284/1/5 282/1/5 283/1/5
f 287/6/5 286/6/5 285/6/5
f 288/6/5 286/6/5 287/6/5
f 291/5/5 290/5/5 289/5/5
f 292/5/5 290/5/5 291/5/5
f 297/2/5 294/2/5 293/2/5
f 298/2/5 294/2/5 297/2/5
f 299/2/5 296/2/5 295/2/5
f 300/2/5 296/2/5 299/2/5
f 301/1/5 298/1/5 297/1/5
f 302/1/5 298/1/5 301/1/5
f 303/1/5 300/1/5 299/1/5
f 304/1/5 300/1/5 303/1/5
f 305/2/5 302/2/5 301/2/5
f 306/2/5 302/2/5 305/2/5
f 307/2/5 304/2/5 303/2/5
f 308/2/5 304/2/5 307/2/5
f 309/1/5 306/1/5 305/1/5
f 310/1/5 306/1/5 309/1/5
f 311/1/5 308/1/5 307/1/5
f 312/1/5 308/1/5 311/1/5
f 313/2/5 310/2/5 309/2/5
f 314/2/5 310/2/5 313/2/5
f 315/2/5 312/2/5 311/2/5
f 316/2/5 312/2/5 315/2/5
f 317/1/5 314/1/5 313/1/5
f 318/1/5 314/1/5 317/1/5
f 319/1/5 316/1/5 315/1/5
f 320/1/5 316/1/5 319/1/5
f 323/6/5 322/6/5 321/6/5
f 324/6/5 322/6/5 323/6/5
f 329/4/5 326/4/5 325/4/5
f 330/4/5 326/4/5 329/4/5
f 331/4/5 328/4/5 327/4/5
f 332/4/5 328/4/5 331/4/5
f 333/4/6 334/4/6 337/4/6
f 337/4/6 334/4/6 338/4/6
f 335/4/6 336/4/6 339/4/6
f 339/4/6 336/4/6 340/4/6
f 341/5/6 342/5/6 343/5/6
f 343/5/6 342/5/6 344/5/6
f 345/2/6 346/2/6 349/2/6
f 349/2/6 346/2/6 350/2/6
f 347/2/6 348/2/6 351/2/6
f 351/2/6 348/2/6 352/2/6
f 349/1/6 350/1/6 353/1/6
f 353/1/6 350/1/6 354/1/6
f 351/1/6 352/1/6 355/1/6
f 355/1/6 352/1/6 356/1/6
f 353/2/6 354/2/6 357/2/6
f 357/2/6 354/2/6 358/2/6
f 355/2/6 356/2/6 359/2/6
f 359/2/6 356/2/6 360/2/6
f 357/1/6 358/1/6 361/1/6
f 361/1/6 358/1/6 362/1/6
f 359/1/6 360/1/6 363/1/6
f 363/1/6 360/1/6 364/1/6
f 361/2/6 362/2/6 365/2/6
f 365/2/6 362/2/6 366/2/6
f 363/2/6 364/2/6 367/2/6
f 367/2/6 364/2/6 368/2/6
f 365/1/6 366/1/6 369/1/6
f 369/1/6 366/1/6 370/1/6
f 367/1/6 368/1/6 371/1/6
f 371/1/6 368/1/6 372/1/6
f 373/6/6 374/6/6 375/6/6
f 375/6/6 374/6/6 376/6/6
f 377/5/6 378/5/6 379/5/6
f 379/5/6 378/5/6 380/5/6
f 380/5/6 378/5/6 381/5/6
f 381/5/6 378/5/6 382/5/6
f 380/2/6 381/2/6 383/2/6
f 383/2/6 381/2/6 384/2/6
f 383/1/6 384/1/6 385/1/6
f 385/1/6 384/1/6 386/1/6
f 385/2/6 386/2/6 387/2/6
f 387/2/6 386/2/6 388/2/6
f 387/1/6 388/1/6 389/1/6
f 389/1/6 388/1/6 390/1/6
f 389/2/6 390/2/6 391/2/6
f 391/2/6 390/2/6 392/2/6
f 391/1/6 392/1/6 393/1/6
f 393/1/6 392/1/6 394/1/6
f 395/8/6 396/8/6 397/8/6
f 397/8/6 396/8/6 398/8/6
f 397/3/6 398/3/6 399/3/6
f 399/3/6 398/3/6 400/3/6
f 399/6/6 400/6/6 401/6/6
f 401/6/6 400/6/6 402/6/6
f 403/4/6 404/4/6 405/4/6
f 405/4/6 404/4/6 406/4/6
f 407/4/6 408/4/6 409/4/6
f 409/4/6 408/4/6 410/4/6
